ISO-10303-21;
HEADER;
FILE_DESCRIPTION(('FreeCAD Model'),'2;1');
FILE_NAME('Open CASCADE Shape Model','2026-04-15T19:18:27',(''),(''),
  'Open CASCADE STEP processor 7.9','FreeCAD','Unknown');
FILE_SCHEMA(('AUTOMOTIVE_DESIGN { 1 0 10303 214 1 1 1 1 }'));
ENDSEC;
DATA;
#1 = APPLICATION_PROTOCOL_DEFINITION('international standard',
  'automotive_design',2000,#2);
#2 = APPLICATION_CONTEXT(
  'core data for automotive mechanical design processes');
#3 = SHAPE_DEFINITION_REPRESENTATION(#4,#10);
#4 = PRODUCT_DEFINITION_SHAPE('','',#5);
#5 = PRODUCT_DEFINITION('design','',#6,#9);
#6 = PRODUCT_DEFINITION_FORMATION('','',#7);
#7 = PRODUCT('weact_studio_power_trigger','weact_studio_power_trigger',
  '',(#8));
#8 = PRODUCT_CONTEXT('',#2,'mechanical');
#9 = PRODUCT_DEFINITION_CONTEXT('part definition',#2,'design');
#10 = ADVANCED_BREP_SHAPE_REPRESENTATION('',(#11,#15),#719);
#11 = AXIS2_PLACEMENT_3D('',#12,#13,#14);
#12 = CARTESIAN_POINT('',(0.,0.,0.));
#13 = DIRECTION('',(0.,0.,1.));
#14 = DIRECTION('',(1.,0.,-0.));
#15 = MANIFOLD_SOLID_BREP('',#16);
#16 = CLOSED_SHELL('',(#17,#57,#88,#135,#218,#324,#336,#367,#384,#401,
    #418,#435,#452,#469,#503,#537,#588,#639,#656,#673,#690,#707));
#17 = ADVANCED_FACE('',(#18),#52,.F.);
#18 = FACE_BOUND('',#19,.F.);
#19 = EDGE_LOOP('',(#20,#30,#38,#46));
#20 = ORIENTED_EDGE('',*,*,#21,.T.);
#21 = EDGE_CURVE('',#22,#24,#26,.T.);
#22 = VERTEX_POINT('',#23);
#23 = CARTESIAN_POINT('',(-10.,15.,0.));
#24 = VERTEX_POINT('',#25);
#25 = CARTESIAN_POINT('',(-10.,15.,1.55));
#26 = LINE('',#27,#28);
#27 = CARTESIAN_POINT('',(-10.,15.,0.));
#28 = VECTOR('',#29,1.);
#29 = DIRECTION('',(0.,0.,1.));
#30 = ORIENTED_EDGE('',*,*,#31,.T.);
#31 = EDGE_CURVE('',#24,#32,#34,.T.);
#32 = VERTEX_POINT('',#33);
#33 = CARTESIAN_POINT('',(-10.,-15.,1.55));
#34 = LINE('',#35,#36);
#35 = CARTESIAN_POINT('',(-10.,15.,1.55));
#36 = VECTOR('',#37,1.);
#37 = DIRECTION('',(0.,-1.,0.));
#38 = ORIENTED_EDGE('',*,*,#39,.F.);
#39 = EDGE_CURVE('',#40,#32,#42,.T.);
#40 = VERTEX_POINT('',#41);
#41 = CARTESIAN_POINT('',(-10.,-15.,0.));
#42 = LINE('',#43,#44);
#43 = CARTESIAN_POINT('',(-10.,-15.,0.));
#44 = VECTOR('',#45,1.);
#45 = DIRECTION('',(0.,0.,1.));
#46 = ORIENTED_EDGE('',*,*,#47,.F.);
#47 = EDGE_CURVE('',#22,#40,#48,.T.);
#48 = LINE('',#49,#50);
#49 = CARTESIAN_POINT('',(-10.,15.,0.));
#50 = VECTOR('',#51,1.);
#51 = DIRECTION('',(0.,-1.,0.));
#52 = PLANE('',#53);
#53 = AXIS2_PLACEMENT_3D('',#54,#55,#56);
#54 = CARTESIAN_POINT('',(-10.,15.,0.));
#55 = DIRECTION('',(1.,0.,0.));
#56 = DIRECTION('',(0.,-1.,0.));
#57 = ADVANCED_FACE('',(#58),#83,.F.);
#58 = FACE_BOUND('',#59,.F.);
#59 = EDGE_LOOP('',(#60,#70,#76,#77));
#60 = ORIENTED_EDGE('',*,*,#61,.T.);
#61 = EDGE_CURVE('',#62,#64,#66,.T.);
#62 = VERTEX_POINT('',#63);
#63 = CARTESIAN_POINT('',(10.,15.,0.));
#64 = VERTEX_POINT('',#65);
#65 = CARTESIAN_POINT('',(10.,15.,1.55));
#66 = LINE('',#67,#68);
#67 = CARTESIAN_POINT('',(10.,15.,0.));
#68 = VECTOR('',#69,1.);
#69 = DIRECTION('',(0.,0.,1.));
#70 = ORIENTED_EDGE('',*,*,#71,.T.);
#71 = EDGE_CURVE('',#64,#24,#72,.T.);
#72 = LINE('',#73,#74);
#73 = CARTESIAN_POINT('',(10.,15.,1.55));
#74 = VECTOR('',#75,1.);
#75 = DIRECTION('',(-1.,0.,0.));
#76 = ORIENTED_EDGE('',*,*,#21,.F.);
#77 = ORIENTED_EDGE('',*,*,#78,.F.);
#78 = EDGE_CURVE('',#62,#22,#79,.T.);
#79 = LINE('',#80,#81);
#80 = CARTESIAN_POINT('',(10.,15.,0.));
#81 = VECTOR('',#82,1.);
#82 = DIRECTION('',(-1.,0.,0.));
#83 = PLANE('',#84);
#84 = AXIS2_PLACEMENT_3D('',#85,#86,#87);
#85 = CARTESIAN_POINT('',(10.,15.,0.));
#86 = DIRECTION('',(0.,-1.,0.));
#87 = DIRECTION('',(-1.,0.,0.));
#88 = ADVANCED_FACE('',(#89),#130,.F.);
#89 = FACE_BOUND('',#90,.F.);
#90 = EDGE_LOOP('',(#91,#92,#100,#108,#116,#124));
#91 = ORIENTED_EDGE('',*,*,#39,.T.);
#92 = ORIENTED_EDGE('',*,*,#93,.T.);
#93 = EDGE_CURVE('',#32,#94,#96,.T.);
#94 = VERTEX_POINT('',#95);
#95 = CARTESIAN_POINT('',(-3.475,-15.,1.55));
#96 = LINE('',#97,#98);
#97 = CARTESIAN_POINT('',(-10.,-15.,1.55));
#98 = VECTOR('',#99,1.);
#99 = DIRECTION('',(1.,0.,0.));
#100 = ORIENTED_EDGE('',*,*,#101,.T.);
#101 = EDGE_CURVE('',#94,#102,#104,.T.);
#102 = VERTEX_POINT('',#103);
#103 = CARTESIAN_POINT('',(3.475,-15.,1.55));
#104 = LINE('',#105,#106);
#105 = CARTESIAN_POINT('',(-10.,-15.,1.55));
#106 = VECTOR('',#107,1.);
#107 = DIRECTION('',(1.,0.,0.));
#108 = ORIENTED_EDGE('',*,*,#109,.T.);
#109 = EDGE_CURVE('',#102,#110,#112,.T.);
#110 = VERTEX_POINT('',#111);
#111 = CARTESIAN_POINT('',(10.,-15.,1.55));
#112 = LINE('',#113,#114);
#113 = CARTESIAN_POINT('',(-10.,-15.,1.55));
#114 = VECTOR('',#115,1.);
#115 = DIRECTION('',(1.,0.,0.));
#116 = ORIENTED_EDGE('',*,*,#117,.F.);
#117 = EDGE_CURVE('',#118,#110,#120,.T.);
#118 = VERTEX_POINT('',#119);
#119 = CARTESIAN_POINT('',(10.,-15.,0.));
#120 = LINE('',#121,#122);
#121 = CARTESIAN_POINT('',(10.,-15.,0.));
#122 = VECTOR('',#123,1.);
#123 = DIRECTION('',(0.,0.,1.));
#124 = ORIENTED_EDGE('',*,*,#125,.F.);
#125 = EDGE_CURVE('',#40,#118,#126,.T.);
#126 = LINE('',#127,#128);
#127 = CARTESIAN_POINT('',(-10.,-15.,0.));
#128 = VECTOR('',#129,1.);
#129 = DIRECTION('',(1.,0.,0.));
#130 = PLANE('',#131);
#131 = AXIS2_PLACEMENT_3D('',#132,#133,#134);
#132 = CARTESIAN_POINT('',(-10.,-15.,0.));
#133 = DIRECTION('',(0.,1.,0.));
#134 = DIRECTION('',(1.,0.,0.));
#135 = ADVANCED_FACE('',(#136,#147,#158,#169,#180,#191,#202),#213,.F.);
#136 = FACE_BOUND('',#137,.F.);
#137 = EDGE_LOOP('',(#138,#139,#140,#146));
#138 = ORIENTED_EDGE('',*,*,#47,.T.);
#139 = ORIENTED_EDGE('',*,*,#125,.T.);
#140 = ORIENTED_EDGE('',*,*,#141,.T.);
#141 = EDGE_CURVE('',#118,#62,#142,.T.);
#142 = LINE('',#143,#144);
#143 = CARTESIAN_POINT('',(10.,-15.,0.));
#144 = VECTOR('',#145,1.);
#145 = DIRECTION('',(0.,1.,0.));
#146 = ORIENTED_EDGE('',*,*,#78,.T.);
#147 = FACE_BOUND('',#148,.F.);
#148 = EDGE_LOOP('',(#149));
#149 = ORIENTED_EDGE('',*,*,#150,.F.);
#150 = EDGE_CURVE('',#151,#151,#153,.T.);
#151 = VERTEX_POINT('',#152);
#152 = CARTESIAN_POINT('',(-8.2,10.2,0.));
#153 = CIRCLE('',#154,0.45);
#154 = AXIS2_PLACEMENT_3D('',#155,#156,#157);
#155 = CARTESIAN_POINT('',(-8.65,10.2,0.));
#156 = DIRECTION('',(0.,0.,1.));
#157 = DIRECTION('',(1.,0.,0.));
#158 = FACE_BOUND('',#159,.F.);
#159 = EDGE_LOOP('',(#160));
#160 = ORIENTED_EDGE('',*,*,#161,.F.);
#161 = EDGE_CURVE('',#162,#162,#164,.T.);
#162 = VERTEX_POINT('',#163);
#163 = CARTESIAN_POINT('',(9.1,10.2,0.));
#164 = CIRCLE('',#165,0.45);
#165 = AXIS2_PLACEMENT_3D('',#166,#167,#168);
#166 = CARTESIAN_POINT('',(8.65,10.2,0.));
#167 = DIRECTION('',(0.,0.,1.));
#168 = DIRECTION('',(1.,0.,0.));
#169 = FACE_BOUND('',#170,.F.);
#170 = EDGE_LOOP('',(#171));
#171 = ORIENTED_EDGE('',*,*,#172,.F.);
#172 = EDGE_CURVE('',#173,#173,#175,.T.);
#173 = VERTEX_POINT('',#174);
#174 = CARTESIAN_POINT('',(-1.75,12.5,0.));
#175 = CIRCLE('',#176,1.);
#176 = AXIS2_PLACEMENT_3D('',#177,#178,#179);
#177 = CARTESIAN_POINT('',(-2.75,12.5,0.));
#178 = DIRECTION('',(0.,0.,1.));
#179 = DIRECTION('',(1.,0.,0.));
#180 = FACE_BOUND('',#181,.F.);
#181 = EDGE_LOOP('',(#182));
#182 = ORIENTED_EDGE('',*,*,#183,.F.);
#183 = EDGE_CURVE('',#184,#184,#186,.T.);
#184 = VERTEX_POINT('',#185);
#185 = CARTESIAN_POINT('',(-8.2,13.,0.));
#186 = CIRCLE('',#187,0.45);
#187 = AXIS2_PLACEMENT_3D('',#188,#189,#190);
#188 = CARTESIAN_POINT('',(-8.65,13.,0.));
#189 = DIRECTION('',(0.,0.,1.));
#190 = DIRECTION('',(1.,0.,0.));
#191 = FACE_BOUND('',#192,.F.);
#192 = EDGE_LOOP('',(#193));
#193 = ORIENTED_EDGE('',*,*,#194,.F.);
#194 = EDGE_CURVE('',#195,#195,#197,.T.);
#195 = VERTEX_POINT('',#196);
#196 = CARTESIAN_POINT('',(3.75,12.5,0.));
#197 = CIRCLE('',#198,1.);
#198 = AXIS2_PLACEMENT_3D('',#199,#200,#201);
#199 = CARTESIAN_POINT('',(2.75,12.5,0.));
#200 = DIRECTION('',(0.,0.,1.));
#201 = DIRECTION('',(1.,0.,0.));
#202 = FACE_BOUND('',#203,.F.);
#203 = EDGE_LOOP('',(#204));
#204 = ORIENTED_EDGE('',*,*,#205,.F.);
#205 = EDGE_CURVE('',#206,#206,#208,.T.);
#206 = VERTEX_POINT('',#207);
#207 = CARTESIAN_POINT('',(9.1,13.,0.));
#208 = CIRCLE('',#209,0.45);
#209 = AXIS2_PLACEMENT_3D('',#210,#211,#212);
#210 = CARTESIAN_POINT('',(8.65,13.,0.));
#211 = DIRECTION('',(0.,0.,1.));
#212 = DIRECTION('',(1.,0.,0.));
#213 = PLANE('',#214);
#214 = AXIS2_PLACEMENT_3D('',#215,#216,#217);
#215 = CARTESIAN_POINT('',(0.,0.,0.));
#216 = DIRECTION('',(0.,0.,1.));
#217 = DIRECTION('',(1.,0.,0.));
#218 = ADVANCED_FACE('',(#219,#253,#264,#275,#286,#297,#308),#319,.T.);
#219 = FACE_BOUND('',#220,.T.);
#220 = EDGE_LOOP('',(#221,#222,#223,#224,#232,#240,#246,#247));
#221 = ORIENTED_EDGE('',*,*,#71,.T.);
#222 = ORIENTED_EDGE('',*,*,#31,.T.);
#223 = ORIENTED_EDGE('',*,*,#93,.T.);
#224 = ORIENTED_EDGE('',*,*,#225,.T.);
#225 = EDGE_CURVE('',#94,#226,#228,.T.);
#226 = VERTEX_POINT('',#227);
#227 = CARTESIAN_POINT('',(-3.475,-8.8,1.55));
#228 = LINE('',#229,#230);
#229 = CARTESIAN_POINT('',(-3.475,-16.2,1.55));
#230 = VECTOR('',#231,1.);
#231 = DIRECTION('',(0.,1.,-2.22044604925E-16));
#232 = ORIENTED_EDGE('',*,*,#233,.T.);
#233 = EDGE_CURVE('',#226,#234,#236,.T.);
#234 = VERTEX_POINT('',#235);
#235 = CARTESIAN_POINT('',(3.475,-8.8,1.55));
#236 = LINE('',#237,#238);
#237 = CARTESIAN_POINT('',(-3.475,-8.8,1.55));
#238 = VECTOR('',#239,1.);
#239 = DIRECTION('',(1.,1.418814577736E-32,6.389772803598E-17));
#240 = ORIENTED_EDGE('',*,*,#241,.F.);
#241 = EDGE_CURVE('',#102,#234,#242,.T.);
#242 = LINE('',#243,#244);
#243 = CARTESIAN_POINT('',(3.475,-16.2,1.55));
#244 = VECTOR('',#245,1.);
#245 = DIRECTION('',(0.,1.,-2.22044604925E-16));
#246 = ORIENTED_EDGE('',*,*,#109,.T.);
#247 = ORIENTED_EDGE('',*,*,#248,.T.);
#248 = EDGE_CURVE('',#110,#64,#249,.T.);
#249 = LINE('',#250,#251);
#250 = CARTESIAN_POINT('',(10.,-15.,1.55));
#251 = VECTOR('',#252,1.);
#252 = DIRECTION('',(0.,1.,0.));
#253 = FACE_BOUND('',#254,.T.);
#254 = EDGE_LOOP('',(#255));
#255 = ORIENTED_EDGE('',*,*,#256,.F.);
#256 = EDGE_CURVE('',#257,#257,#259,.T.);
#257 = VERTEX_POINT('',#258);
#258 = CARTESIAN_POINT('',(-8.2,10.2,1.55));
#259 = CIRCLE('',#260,0.45);
#260 = AXIS2_PLACEMENT_3D('',#261,#262,#263);
#261 = CARTESIAN_POINT('',(-8.65,10.2,1.55));
#262 = DIRECTION('',(0.,0.,1.));
#263 = DIRECTION('',(1.,0.,0.));
#264 = FACE_BOUND('',#265,.T.);
#265 = EDGE_LOOP('',(#266));
#266 = ORIENTED_EDGE('',*,*,#267,.F.);
#267 = EDGE_CURVE('',#268,#268,#270,.T.);
#268 = VERTEX_POINT('',#269);
#269 = CARTESIAN_POINT('',(9.1,10.2,1.55));
#270 = CIRCLE('',#271,0.45);
#271 = AXIS2_PLACEMENT_3D('',#272,#273,#274);
#272 = CARTESIAN_POINT('',(8.65,10.2,1.55));
#273 = DIRECTION('',(0.,0.,1.));
#274 = DIRECTION('',(1.,0.,0.));
#275 = FACE_BOUND('',#276,.T.);
#276 = EDGE_LOOP('',(#277));
#277 = ORIENTED_EDGE('',*,*,#278,.F.);
#278 = EDGE_CURVE('',#279,#279,#281,.T.);
#279 = VERTEX_POINT('',#280);
#280 = CARTESIAN_POINT('',(-1.75,12.5,1.55));
#281 = CIRCLE('',#282,1.);
#282 = AXIS2_PLACEMENT_3D('',#283,#284,#285);
#283 = CARTESIAN_POINT('',(-2.75,12.5,1.55));
#284 = DIRECTION('',(0.,0.,1.));
#285 = DIRECTION('',(1.,0.,0.));
#286 = FACE_BOUND('',#287,.T.);
#287 = EDGE_LOOP('',(#288));
#288 = ORIENTED_EDGE('',*,*,#289,.F.);
#289 = EDGE_CURVE('',#290,#290,#292,.T.);
#290 = VERTEX_POINT('',#291);
#291 = CARTESIAN_POINT('',(-8.2,13.,1.55));
#292 = CIRCLE('',#293,0.45);
#293 = AXIS2_PLACEMENT_3D('',#294,#295,#296);
#294 = CARTESIAN_POINT('',(-8.65,13.,1.55));
#295 = DIRECTION('',(0.,0.,1.));
#296 = DIRECTION('',(1.,0.,0.));
#297 = FACE_BOUND('',#298,.T.);
#298 = EDGE_LOOP('',(#299));
#299 = ORIENTED_EDGE('',*,*,#300,.F.);
#300 = EDGE_CURVE('',#301,#301,#303,.T.);
#301 = VERTEX_POINT('',#302);
#302 = CARTESIAN_POINT('',(3.75,12.5,1.55));
#303 = CIRCLE('',#304,1.);
#304 = AXIS2_PLACEMENT_3D('',#305,#306,#307);
#305 = CARTESIAN_POINT('',(2.75,12.5,1.55));
#306 = DIRECTION('',(0.,0.,1.));
#307 = DIRECTION('',(1.,0.,0.));
#308 = FACE_BOUND('',#309,.T.);
#309 = EDGE_LOOP('',(#310));
#310 = ORIENTED_EDGE('',*,*,#311,.F.);
#311 = EDGE_CURVE('',#312,#312,#314,.T.);
#312 = VERTEX_POINT('',#313);
#313 = CARTESIAN_POINT('',(9.1,13.,1.55));
#314 = CIRCLE('',#315,0.45);
#315 = AXIS2_PLACEMENT_3D('',#316,#317,#318);
#316 = CARTESIAN_POINT('',(8.65,13.,1.55));
#317 = DIRECTION('',(0.,0.,1.));
#318 = DIRECTION('',(1.,0.,0.));
#319 = PLANE('',#320);
#320 = AXIS2_PLACEMENT_3D('',#321,#322,#323);
#321 = CARTESIAN_POINT('',(0.,0.,1.55));
#322 = DIRECTION('',(0.,0.,1.));
#323 = DIRECTION('',(1.,0.,0.));
#324 = ADVANCED_FACE('',(#325),#331,.F.);
#325 = FACE_BOUND('',#326,.F.);
#326 = EDGE_LOOP('',(#327,#328,#329,#330));
#327 = ORIENTED_EDGE('',*,*,#117,.T.);
#328 = ORIENTED_EDGE('',*,*,#248,.T.);
#329 = ORIENTED_EDGE('',*,*,#61,.F.);
#330 = ORIENTED_EDGE('',*,*,#141,.F.);
#331 = PLANE('',#332);
#332 = AXIS2_PLACEMENT_3D('',#333,#334,#335);
#333 = CARTESIAN_POINT('',(10.,-15.,0.));
#334 = DIRECTION('',(-1.,0.,0.));
#335 = DIRECTION('',(0.,1.,0.));
#336 = ADVANCED_FACE('',(#337),#362,.T.);
#337 = FACE_BOUND('',#338,.T.);
#338 = EDGE_LOOP('',(#339,#349,#355,#356));
#339 = ORIENTED_EDGE('',*,*,#340,.F.);
#340 = EDGE_CURVE('',#341,#343,#345,.T.);
#341 = VERTEX_POINT('',#342);
#342 = CARTESIAN_POINT('',(-3.475,-16.2,1.55));
#343 = VERTEX_POINT('',#344);
#344 = CARTESIAN_POINT('',(3.475,-16.2,1.55));
#345 = LINE('',#346,#347);
#346 = CARTESIAN_POINT('',(-3.475,-16.2,1.55));
#347 = VECTOR('',#348,1.);
#348 = DIRECTION('',(1.,1.418814577736E-32,6.389772803598E-17));
#349 = ORIENTED_EDGE('',*,*,#350,.T.);
#350 = EDGE_CURVE('',#341,#94,#351,.T.);
#351 = LINE('',#352,#353);
#352 = CARTESIAN_POINT('',(-3.475,-16.2,1.55));
#353 = VECTOR('',#354,1.);
#354 = DIRECTION('',(0.,1.,-2.22044604925E-16));
#355 = ORIENTED_EDGE('',*,*,#101,.T.);
#356 = ORIENTED_EDGE('',*,*,#357,.F.);
#357 = EDGE_CURVE('',#343,#102,#358,.T.);
#358 = LINE('',#359,#360);
#359 = CARTESIAN_POINT('',(3.475,-16.2,1.55));
#360 = VECTOR('',#361,1.);
#361 = DIRECTION('',(0.,1.,-2.22044604925E-16));
#362 = PLANE('',#363);
#363 = AXIS2_PLACEMENT_3D('',#364,#365,#366);
#364 = CARTESIAN_POINT('',(-3.475,-16.2,1.55));
#365 = DIRECTION('',(6.389772803598E-17,-2.22044604925E-16,-1.));
#366 = DIRECTION('',(1.,1.418814577736E-32,6.389772803598E-17));
#367 = ADVANCED_FACE('',(#368),#379,.F.);
#368 = FACE_BOUND('',#369,.F.);
#369 = EDGE_LOOP('',(#370,#371,#377,#378));
#370 = ORIENTED_EDGE('',*,*,#256,.F.);
#371 = ORIENTED_EDGE('',*,*,#372,.T.);
#372 = EDGE_CURVE('',#257,#151,#373,.T.);
#373 = LINE('',#374,#375);
#374 = CARTESIAN_POINT('',(-8.2,10.2,1.55));
#375 = VECTOR('',#376,1.);
#376 = DIRECTION('',(-0.,-0.,-1.));
#377 = ORIENTED_EDGE('',*,*,#150,.T.);
#378 = ORIENTED_EDGE('',*,*,#372,.F.);
#379 = CYLINDRICAL_SURFACE('',#380,0.45);
#380 = AXIS2_PLACEMENT_3D('',#381,#382,#383);
#381 = CARTESIAN_POINT('',(-8.65,10.2,1.55));
#382 = DIRECTION('',(0.,0.,1.));
#383 = DIRECTION('',(1.,0.,0.));
#384 = ADVANCED_FACE('',(#385),#396,.F.);
#385 = FACE_BOUND('',#386,.F.);
#386 = EDGE_LOOP('',(#387,#388,#394,#395));
#387 = ORIENTED_EDGE('',*,*,#267,.F.);
#388 = ORIENTED_EDGE('',*,*,#389,.T.);
#389 = EDGE_CURVE('',#268,#162,#390,.T.);
#390 = LINE('',#391,#392);
#391 = CARTESIAN_POINT('',(9.1,10.2,1.55));
#392 = VECTOR('',#393,1.);
#393 = DIRECTION('',(-0.,-0.,-1.));
#394 = ORIENTED_EDGE('',*,*,#161,.T.);
#395 = ORIENTED_EDGE('',*,*,#389,.F.);
#396 = CYLINDRICAL_SURFACE('',#397,0.45);
#397 = AXIS2_PLACEMENT_3D('',#398,#399,#400);
#398 = CARTESIAN_POINT('',(8.65,10.2,1.55));
#399 = DIRECTION('',(0.,0.,1.));
#400 = DIRECTION('',(1.,0.,0.));
#401 = ADVANCED_FACE('',(#402),#413,.F.);
#402 = FACE_BOUND('',#403,.F.);
#403 = EDGE_LOOP('',(#404,#405,#411,#412));
#404 = ORIENTED_EDGE('',*,*,#278,.F.);
#405 = ORIENTED_EDGE('',*,*,#406,.T.);
#406 = EDGE_CURVE('',#279,#173,#407,.T.);
#407 = LINE('',#408,#409);
#408 = CARTESIAN_POINT('',(-1.75,12.5,1.55));
#409 = VECTOR('',#410,1.);
#410 = DIRECTION('',(-0.,-0.,-1.));
#411 = ORIENTED_EDGE('',*,*,#172,.T.);
#412 = ORIENTED_EDGE('',*,*,#406,.F.);
#413 = CYLINDRICAL_SURFACE('',#414,1.);
#414 = AXIS2_PLACEMENT_3D('',#415,#416,#417);
#415 = CARTESIAN_POINT('',(-2.75,12.5,1.55));
#416 = DIRECTION('',(0.,0.,1.));
#417 = DIRECTION('',(1.,0.,0.));
#418 = ADVANCED_FACE('',(#419),#430,.F.);
#419 = FACE_BOUND('',#420,.F.);
#420 = EDGE_LOOP('',(#421,#422,#428,#429));
#421 = ORIENTED_EDGE('',*,*,#289,.F.);
#422 = ORIENTED_EDGE('',*,*,#423,.T.);
#423 = EDGE_CURVE('',#290,#184,#424,.T.);
#424 = LINE('',#425,#426);
#425 = CARTESIAN_POINT('',(-8.2,13.,1.55));
#426 = VECTOR('',#427,1.);
#427 = DIRECTION('',(-0.,-0.,-1.));
#428 = ORIENTED_EDGE('',*,*,#183,.T.);
#429 = ORIENTED_EDGE('',*,*,#423,.F.);
#430 = CYLINDRICAL_SURFACE('',#431,0.45);
#431 = AXIS2_PLACEMENT_3D('',#432,#433,#434);
#432 = CARTESIAN_POINT('',(-8.65,13.,1.55));
#433 = DIRECTION('',(0.,0.,1.));
#434 = DIRECTION('',(1.,0.,0.));
#435 = ADVANCED_FACE('',(#436),#447,.F.);
#436 = FACE_BOUND('',#437,.F.);
#437 = EDGE_LOOP('',(#438,#439,#445,#446));
#438 = ORIENTED_EDGE('',*,*,#300,.F.);
#439 = ORIENTED_EDGE('',*,*,#440,.T.);
#440 = EDGE_CURVE('',#301,#195,#441,.T.);
#441 = LINE('',#442,#443);
#442 = CARTESIAN_POINT('',(3.75,12.5,1.55));
#443 = VECTOR('',#444,1.);
#444 = DIRECTION('',(-0.,-0.,-1.));
#445 = ORIENTED_EDGE('',*,*,#194,.T.);
#446 = ORIENTED_EDGE('',*,*,#440,.F.);
#447 = CYLINDRICAL_SURFACE('',#448,1.);
#448 = AXIS2_PLACEMENT_3D('',#449,#450,#451);
#449 = CARTESIAN_POINT('',(2.75,12.5,1.55));
#450 = DIRECTION('',(0.,0.,1.));
#451 = DIRECTION('',(1.,0.,0.));
#452 = ADVANCED_FACE('',(#453),#464,.F.);
#453 = FACE_BOUND('',#454,.F.);
#454 = EDGE_LOOP('',(#455,#456,#462,#463));
#455 = ORIENTED_EDGE('',*,*,#311,.F.);
#456 = ORIENTED_EDGE('',*,*,#457,.T.);
#457 = EDGE_CURVE('',#312,#206,#458,.T.);
#458 = LINE('',#459,#460);
#459 = CARTESIAN_POINT('',(9.1,13.,1.55));
#460 = VECTOR('',#461,1.);
#461 = DIRECTION('',(-0.,-0.,-1.));
#462 = ORIENTED_EDGE('',*,*,#205,.T.);
#463 = ORIENTED_EDGE('',*,*,#457,.F.);
#464 = CYLINDRICAL_SURFACE('',#465,0.45);
#465 = AXIS2_PLACEMENT_3D('',#466,#467,#468);
#466 = CARTESIAN_POINT('',(8.65,13.,1.55));
#467 = DIRECTION('',(0.,0.,1.));
#468 = DIRECTION('',(1.,0.,0.));
#469 = ADVANCED_FACE('',(#470),#498,.T.);
#470 = FACE_BOUND('',#471,.T.);
#471 = EDGE_LOOP('',(#472,#473,#474,#483,#491));
#472 = ORIENTED_EDGE('',*,*,#357,.T.);
#473 = ORIENTED_EDGE('',*,*,#241,.T.);
#474 = ORIENTED_EDGE('',*,*,#475,.T.);
#475 = EDGE_CURVE('',#234,#476,#478,.T.);
#476 = VERTEX_POINT('',#477);
#477 = CARTESIAN_POINT('',(4.475,-8.8,2.55));
#478 = CIRCLE('',#479,1.);
#479 = AXIS2_PLACEMENT_3D('',#480,#481,#482);
#480 = CARTESIAN_POINT('',(3.475,-8.8,2.55));
#481 = DIRECTION('',(0.,-1.,2.22044604925E-16));
#482 = DIRECTION('',(1.,0.,0.));
#483 = ORIENTED_EDGE('',*,*,#484,.F.);
#484 = EDGE_CURVE('',#485,#476,#487,.T.);
#485 = VERTEX_POINT('',#486);
#486 = CARTESIAN_POINT('',(4.475,-16.2,2.55));
#487 = LINE('',#488,#489);
#488 = CARTESIAN_POINT('',(4.475,-16.2,2.55));
#489 = VECTOR('',#490,1.);
#490 = DIRECTION('',(0.,1.,-2.22044604925E-16));
#491 = ORIENTED_EDGE('',*,*,#492,.F.);
#492 = EDGE_CURVE('',#343,#485,#493,.T.);
#493 = CIRCLE('',#494,1.);
#494 = AXIS2_PLACEMENT_3D('',#495,#496,#497);
#495 = CARTESIAN_POINT('',(3.475,-16.2,2.55));
#496 = DIRECTION('',(0.,-1.,2.22044604925E-16));
#497 = DIRECTION('',(1.,0.,0.));
#498 = CYLINDRICAL_SURFACE('',#499,1.);
#499 = AXIS2_PLACEMENT_3D('',#500,#501,#502);
#500 = CARTESIAN_POINT('',(3.475,-16.2,2.55));
#501 = DIRECTION('',(0.,-1.,2.22044604925E-16));
#502 = DIRECTION('',(1.,0.,0.));
#503 = ADVANCED_FACE('',(#504),#532,.T.);
#504 = FACE_BOUND('',#505,.T.);
#505 = EDGE_LOOP('',(#506,#516,#523,#524,#525));
#506 = ORIENTED_EDGE('',*,*,#507,.T.);
#507 = EDGE_CURVE('',#508,#510,#512,.T.);
#508 = VERTEX_POINT('',#509);
#509 = CARTESIAN_POINT('',(-4.475,-16.2,2.55));
#510 = VERTEX_POINT('',#511);
#511 = CARTESIAN_POINT('',(-4.475,-8.8,2.55));
#512 = LINE('',#513,#514);
#513 = CARTESIAN_POINT('',(-4.475,-16.2,2.55));
#514 = VECTOR('',#515,1.);
#515 = DIRECTION('',(0.,1.,-2.22044604925E-16));
#516 = ORIENTED_EDGE('',*,*,#517,.T.);
#517 = EDGE_CURVE('',#510,#226,#518,.T.);
#518 = CIRCLE('',#519,1.);
#519 = AXIS2_PLACEMENT_3D('',#520,#521,#522);
#520 = CARTESIAN_POINT('',(-3.475,-8.8,2.55));
#521 = DIRECTION('',(0.,-1.,2.22044604925E-16));
#522 = DIRECTION('',(1.,0.,0.));
#523 = ORIENTED_EDGE('',*,*,#225,.F.);
#524 = ORIENTED_EDGE('',*,*,#350,.F.);
#525 = ORIENTED_EDGE('',*,*,#526,.F.);
#526 = EDGE_CURVE('',#508,#341,#527,.T.);
#527 = CIRCLE('',#528,1.);
#528 = AXIS2_PLACEMENT_3D('',#529,#530,#531);
#529 = CARTESIAN_POINT('',(-3.475,-16.2,2.55));
#530 = DIRECTION('',(0.,-1.,2.22044604925E-16));
#531 = DIRECTION('',(1.,0.,0.));
#532 = CYLINDRICAL_SURFACE('',#533,1.);
#533 = AXIS2_PLACEMENT_3D('',#534,#535,#536);
#534 = CARTESIAN_POINT('',(-3.475,-16.2,2.55));
#535 = DIRECTION('',(0.,-1.,2.22044604925E-16));
#536 = DIRECTION('',(1.,0.,0.));
#537 = ADVANCED_FACE('',(#538),#583,.T.);
#538 = FACE_BOUND('',#539,.F.);
#539 = EDGE_LOOP('',(#540,#541,#542,#550,#559,#567,#576,#582));
#540 = ORIENTED_EDGE('',*,*,#233,.T.);
#541 = ORIENTED_EDGE('',*,*,#475,.T.);
#542 = ORIENTED_EDGE('',*,*,#543,.T.);
#543 = EDGE_CURVE('',#476,#544,#546,.T.);
#544 = VERTEX_POINT('',#545);
#545 = CARTESIAN_POINT('',(4.475,-8.8,3.7));
#546 = LINE('',#547,#548);
#547 = CARTESIAN_POINT('',(4.475,-8.8,2.55));
#548 = VECTOR('',#549,1.);
#549 = DIRECTION('',(0.,2.22044604925E-16,1.));
#550 = ORIENTED_EDGE('',*,*,#551,.T.);
#551 = EDGE_CURVE('',#544,#552,#554,.T.);
#552 = VERTEX_POINT('',#553);
#553 = CARTESIAN_POINT('',(3.475,-8.8,4.7));
#554 = CIRCLE('',#555,1.);
#555 = AXIS2_PLACEMENT_3D('',#556,#557,#558);
#556 = CARTESIAN_POINT('',(3.475,-8.8,3.7));
#557 = DIRECTION('',(0.,-1.,2.22044604925E-16));
#558 = DIRECTION('',(1.,0.,0.));
#559 = ORIENTED_EDGE('',*,*,#560,.T.);
#560 = EDGE_CURVE('',#552,#561,#563,.T.);
#561 = VERTEX_POINT('',#562);
#562 = CARTESIAN_POINT('',(-3.475,-8.8,4.7));
#563 = LINE('',#564,#565);
#564 = CARTESIAN_POINT('',(3.475,-8.8,4.7));
#565 = VECTOR('',#566,1.);
#566 = DIRECTION('',(-1.,0.,0.));
#567 = ORIENTED_EDGE('',*,*,#568,.T.);
#568 = EDGE_CURVE('',#561,#569,#571,.T.);
#569 = VERTEX_POINT('',#570);
#570 = CARTESIAN_POINT('',(-4.475,-8.8,3.7));
#571 = CIRCLE('',#572,1.);
#572 = AXIS2_PLACEMENT_3D('',#573,#574,#575);
#573 = CARTESIAN_POINT('',(-3.475,-8.8,3.7));
#574 = DIRECTION('',(0.,-1.,2.22044604925E-16));
#575 = DIRECTION('',(1.,0.,0.));
#576 = ORIENTED_EDGE('',*,*,#577,.T.);
#577 = EDGE_CURVE('',#569,#510,#578,.T.);
#578 = LINE('',#579,#580);
#579 = CARTESIAN_POINT('',(-4.475,-8.8,3.7));
#580 = VECTOR('',#581,1.);
#581 = DIRECTION('',(0.,-2.22044604925E-16,-1.));
#582 = ORIENTED_EDGE('',*,*,#517,.T.);
#583 = PLANE('',#584);
#584 = AXIS2_PLACEMENT_3D('',#585,#586,#587);
#585 = CARTESIAN_POINT('',(1.981509926803E-17,-8.8,3.125));
#586 = DIRECTION('',(0.,1.,-5.690778788772E-16));
#587 = DIRECTION('',(0.,5.690778788772E-16,1.));
#588 = ADVANCED_FACE('',(#589),#634,.F.);
#589 = FACE_BOUND('',#590,.T.);
#590 = EDGE_LOOP('',(#591,#592,#593,#601,#610,#618,#627,#633));
#591 = ORIENTED_EDGE('',*,*,#340,.T.);
#592 = ORIENTED_EDGE('',*,*,#492,.T.);
#593 = ORIENTED_EDGE('',*,*,#594,.T.);
#594 = EDGE_CURVE('',#485,#595,#597,.T.);
#595 = VERTEX_POINT('',#596);
#596 = CARTESIAN_POINT('',(4.475,-16.2,3.7));
#597 = LINE('',#598,#599);
#598 = CARTESIAN_POINT('',(4.475,-16.2,2.55));
#599 = VECTOR('',#600,1.);
#600 = DIRECTION('',(0.,2.22044604925E-16,1.));
#601 = ORIENTED_EDGE('',*,*,#602,.T.);
#602 = EDGE_CURVE('',#595,#603,#605,.T.);
#603 = VERTEX_POINT('',#604);
#604 = CARTESIAN_POINT('',(3.475,-16.2,4.7));
#605 = CIRCLE('',#606,1.);
#606 = AXIS2_PLACEMENT_3D('',#607,#608,#609);
#607 = CARTESIAN_POINT('',(3.475,-16.2,3.7));
#608 = DIRECTION('',(0.,-1.,2.22044604925E-16));
#609 = DIRECTION('',(1.,0.,0.));
#610 = ORIENTED_EDGE('',*,*,#611,.T.);
#611 = EDGE_CURVE('',#603,#612,#614,.T.);
#612 = VERTEX_POINT('',#613);
#613 = CARTESIAN_POINT('',(-3.475,-16.2,4.7));
#614 = LINE('',#615,#616);
#615 = CARTESIAN_POINT('',(3.475,-16.2,4.7));
#616 = VECTOR('',#617,1.);
#617 = DIRECTION('',(-1.,0.,0.));
#618 = ORIENTED_EDGE('',*,*,#619,.T.);
#619 = EDGE_CURVE('',#612,#620,#622,.T.);
#620 = VERTEX_POINT('',#621);
#621 = CARTESIAN_POINT('',(-4.475,-16.2,3.7));
#622 = CIRCLE('',#623,1.);
#623 = AXIS2_PLACEMENT_3D('',#624,#625,#626);
#624 = CARTESIAN_POINT('',(-3.475,-16.2,3.7));
#625 = DIRECTION('',(0.,-1.,2.22044604925E-16));
#626 = DIRECTION('',(1.,0.,0.));
#627 = ORIENTED_EDGE('',*,*,#628,.T.);
#628 = EDGE_CURVE('',#620,#508,#629,.T.);
#629 = LINE('',#630,#631);
#630 = CARTESIAN_POINT('',(-4.475,-16.2,3.7));
#631 = VECTOR('',#632,1.);
#632 = DIRECTION('',(0.,-2.22044604925E-16,-1.));
#633 = ORIENTED_EDGE('',*,*,#526,.T.);
#634 = PLANE('',#635);
#635 = AXIS2_PLACEMENT_3D('',#636,#637,#638);
#636 = CARTESIAN_POINT('',(1.981509926803E-17,-16.2,3.125));
#637 = DIRECTION('',(0.,1.,-5.690778788772E-16));
#638 = DIRECTION('',(0.,5.690778788772E-16,1.));
#639 = ADVANCED_FACE('',(#640),#651,.T.);
#640 = FACE_BOUND('',#641,.T.);
#641 = EDGE_LOOP('',(#642,#643,#644,#650));
#642 = ORIENTED_EDGE('',*,*,#484,.T.);
#643 = ORIENTED_EDGE('',*,*,#543,.T.);
#644 = ORIENTED_EDGE('',*,*,#645,.F.);
#645 = EDGE_CURVE('',#595,#544,#646,.T.);
#646 = LINE('',#647,#648);
#647 = CARTESIAN_POINT('',(4.475,-16.2,3.7));
#648 = VECTOR('',#649,1.);
#649 = DIRECTION('',(0.,1.,-2.22044604925E-16));
#650 = ORIENTED_EDGE('',*,*,#594,.F.);
#651 = PLANE('',#652);
#652 = AXIS2_PLACEMENT_3D('',#653,#654,#655);
#653 = CARTESIAN_POINT('',(4.475,-16.2,2.55));
#654 = DIRECTION('',(1.,0.,0.));
#655 = DIRECTION('',(0.,2.22044604925E-16,1.));
#656 = ADVANCED_FACE('',(#657),#668,.T.);
#657 = FACE_BOUND('',#658,.T.);
#658 = EDGE_LOOP('',(#659,#665,#666,#667));
#659 = ORIENTED_EDGE('',*,*,#660,.T.);
#660 = EDGE_CURVE('',#620,#569,#661,.T.);
#661 = LINE('',#662,#663);
#662 = CARTESIAN_POINT('',(-4.475,-16.2,3.7));
#663 = VECTOR('',#664,1.);
#664 = DIRECTION('',(0.,1.,-2.22044604925E-16));
#665 = ORIENTED_EDGE('',*,*,#577,.T.);
#666 = ORIENTED_EDGE('',*,*,#507,.F.);
#667 = ORIENTED_EDGE('',*,*,#628,.F.);
#668 = PLANE('',#669);
#669 = AXIS2_PLACEMENT_3D('',#670,#671,#672);
#670 = CARTESIAN_POINT('',(-4.475,-16.2,3.7));
#671 = DIRECTION('',(-1.,0.,0.));
#672 = DIRECTION('',(0.,-2.22044604925E-16,-1.));
#673 = ADVANCED_FACE('',(#674),#685,.T.);
#674 = FACE_BOUND('',#675,.T.);
#675 = EDGE_LOOP('',(#676,#677,#678,#684));
#676 = ORIENTED_EDGE('',*,*,#645,.T.);
#677 = ORIENTED_EDGE('',*,*,#551,.T.);
#678 = ORIENTED_EDGE('',*,*,#679,.F.);
#679 = EDGE_CURVE('',#603,#552,#680,.T.);
#680 = LINE('',#681,#682);
#681 = CARTESIAN_POINT('',(3.475,-16.2,4.7));
#682 = VECTOR('',#683,1.);
#683 = DIRECTION('',(0.,1.,-2.22044604925E-16));
#684 = ORIENTED_EDGE('',*,*,#602,.F.);
#685 = CYLINDRICAL_SURFACE('',#686,1.);
#686 = AXIS2_PLACEMENT_3D('',#687,#688,#689);
#687 = CARTESIAN_POINT('',(3.475,-16.2,3.7));
#688 = DIRECTION('',(0.,-1.,2.22044604925E-16));
#689 = DIRECTION('',(1.,0.,0.));
#690 = ADVANCED_FACE('',(#691),#702,.T.);
#691 = FACE_BOUND('',#692,.T.);
#692 = EDGE_LOOP('',(#693,#694,#695,#701));
#693 = ORIENTED_EDGE('',*,*,#679,.T.);
#694 = ORIENTED_EDGE('',*,*,#560,.T.);
#695 = ORIENTED_EDGE('',*,*,#696,.F.);
#696 = EDGE_CURVE('',#612,#561,#697,.T.);
#697 = LINE('',#698,#699);
#698 = CARTESIAN_POINT('',(-3.475,-16.2,4.7));
#699 = VECTOR('',#700,1.);
#700 = DIRECTION('',(0.,1.,-2.22044604925E-16));
#701 = ORIENTED_EDGE('',*,*,#611,.F.);
#702 = PLANE('',#703);
#703 = AXIS2_PLACEMENT_3D('',#704,#705,#706);
#704 = CARTESIAN_POINT('',(3.475,-16.2,4.7));
#705 = DIRECTION('',(0.,2.22044604925E-16,1.));
#706 = DIRECTION('',(-1.,0.,0.));
#707 = ADVANCED_FACE('',(#708),#714,.T.);
#708 = FACE_BOUND('',#709,.T.);
#709 = EDGE_LOOP('',(#710,#711,#712,#713));
#710 = ORIENTED_EDGE('',*,*,#696,.T.);
#711 = ORIENTED_EDGE('',*,*,#568,.T.);
#712 = ORIENTED_EDGE('',*,*,#660,.F.);
#713 = ORIENTED_EDGE('',*,*,#619,.F.);
#714 = CYLINDRICAL_SURFACE('',#715,1.);
#715 = AXIS2_PLACEMENT_3D('',#716,#717,#718);
#716 = CARTESIAN_POINT('',(-3.475,-16.2,3.7));
#717 = DIRECTION('',(0.,-1.,2.22044604925E-16));
#718 = DIRECTION('',(1.,0.,0.));
#719 = ( GEOMETRIC_REPRESENTATION_CONTEXT(3) 
GLOBAL_UNCERTAINTY_ASSIGNED_CONTEXT((#723)) GLOBAL_UNIT_ASSIGNED_CONTEXT
((#720,#721,#722)) REPRESENTATION_CONTEXT('Context #1',
  '3D Context with UNIT and UNCERTAINTY') );
#720 = ( LENGTH_UNIT() NAMED_UNIT(*) SI_UNIT(.MILLI.,.METRE.) );
#721 = ( NAMED_UNIT(*) PLANE_ANGLE_UNIT() SI_UNIT($,.RADIAN.) );
#722 = ( NAMED_UNIT(*) SI_UNIT($,.STERADIAN.) SOLID_ANGLE_UNIT() );
#723 = UNCERTAINTY_MEASURE_WITH_UNIT(LENGTH_MEASURE(1.E-07),#720,
  'distance_accuracy_value','confusion accuracy');
#724 = PRODUCT_RELATED_PRODUCT_CATEGORY('part',$,(#7));
#725 = MECHANICAL_DESIGN_GEOMETRIC_PRESENTATION_REPRESENTATION('',(#726)
  ,#719);
#726 = STYLED_ITEM('color',(#727),#15);
#727 = PRESENTATION_STYLE_ASSIGNMENT((#728,#734));
#728 = SURFACE_STYLE_USAGE(.BOTH.,#729);
#729 = SURFACE_SIDE_STYLE('',(#730));
#730 = SURFACE_STYLE_FILL_AREA(#731);
#731 = FILL_AREA_STYLE('',(#732));
#732 = FILL_AREA_STYLE_COLOUR('',#733);
#733 = COLOUR_RGB('',0.952941189437,0.337254907675,0.211764712168);
#734 = CURVE_STYLE('',#735,POSITIVE_LENGTH_MEASURE(0.1),#736);
#735 = DRAUGHTING_PRE_DEFINED_CURVE_FONT('continuous');
#736 = COLOUR_RGB('',0.678431390124,0.709803936702,0.741176476869);
ENDSEC;
END-ISO-10303-21;
