%TF.GenerationSoftware,KiCad,Pcbnew,9.0.4*%
%TF.CreationDate,2025-10-06T20:23:03+02:00*%
%TF.ProjectId,onyks-iot-monitor-weather-pcb,6f6e796b-732d-4696-9f74-2d6d6f6e6974,rev?*%
%TF.SameCoordinates,Original*%
%TF.FileFunction,Legend,Top*%
%TF.FilePolarity,Positive*%
%FSLAX46Y46*%
G04 Gerber Fmt 4.6, Leading zero omitted, Abs format (unit mm)*
G04 Created by KiCad (PCBNEW 9.0.4) date 2025-10-06 20:23:03*
%MOMM*%
%LPD*%
G01*
G04 APERTURE LIST*
%ADD10C,0.254000*%
%ADD11C,0.150000*%
%ADD12C,0.100000*%
%ADD13C,0.120000*%
G04 APERTURE END LIST*
D10*
X115132380Y-80513842D02*
X115313809Y-80574318D01*
X115313809Y-80574318D02*
X115616190Y-80574318D01*
X115616190Y-80574318D02*
X115737142Y-80513842D01*
X115737142Y-80513842D02*
X115797618Y-80453365D01*
X115797618Y-80453365D02*
X115858095Y-80332413D01*
X115858095Y-80332413D02*
X115858095Y-80211461D01*
X115858095Y-80211461D02*
X115797618Y-80090508D01*
X115797618Y-80090508D02*
X115737142Y-80030032D01*
X115737142Y-80030032D02*
X115616190Y-79969556D01*
X115616190Y-79969556D02*
X115374285Y-79909080D01*
X115374285Y-79909080D02*
X115253333Y-79848603D01*
X115253333Y-79848603D02*
X115192856Y-79788127D01*
X115192856Y-79788127D02*
X115132380Y-79667175D01*
X115132380Y-79667175D02*
X115132380Y-79546222D01*
X115132380Y-79546222D02*
X115192856Y-79425270D01*
X115192856Y-79425270D02*
X115253333Y-79364794D01*
X115253333Y-79364794D02*
X115374285Y-79304318D01*
X115374285Y-79304318D02*
X115676666Y-79304318D01*
X115676666Y-79304318D02*
X115858095Y-79364794D01*
X116341904Y-79425270D02*
X116402380Y-79364794D01*
X116402380Y-79364794D02*
X116523333Y-79304318D01*
X116523333Y-79304318D02*
X116825714Y-79304318D01*
X116825714Y-79304318D02*
X116946666Y-79364794D01*
X116946666Y-79364794D02*
X117007142Y-79425270D01*
X117007142Y-79425270D02*
X117067619Y-79546222D01*
X117067619Y-79546222D02*
X117067619Y-79667175D01*
X117067619Y-79667175D02*
X117007142Y-79848603D01*
X117007142Y-79848603D02*
X116281428Y-80574318D01*
X116281428Y-80574318D02*
X117067619Y-80574318D01*
D11*
X119458333Y-66359580D02*
X119410714Y-66407200D01*
X119410714Y-66407200D02*
X119267857Y-66454819D01*
X119267857Y-66454819D02*
X119172619Y-66454819D01*
X119172619Y-66454819D02*
X119029762Y-66407200D01*
X119029762Y-66407200D02*
X118934524Y-66311961D01*
X118934524Y-66311961D02*
X118886905Y-66216723D01*
X118886905Y-66216723D02*
X118839286Y-66026247D01*
X118839286Y-66026247D02*
X118839286Y-65883390D01*
X118839286Y-65883390D02*
X118886905Y-65692914D01*
X118886905Y-65692914D02*
X118934524Y-65597676D01*
X118934524Y-65597676D02*
X119029762Y-65502438D01*
X119029762Y-65502438D02*
X119172619Y-65454819D01*
X119172619Y-65454819D02*
X119267857Y-65454819D01*
X119267857Y-65454819D02*
X119410714Y-65502438D01*
X119410714Y-65502438D02*
X119458333Y-65550057D01*
X119791667Y-65454819D02*
X120410714Y-65454819D01*
X120410714Y-65454819D02*
X120077381Y-65835771D01*
X120077381Y-65835771D02*
X120220238Y-65835771D01*
X120220238Y-65835771D02*
X120315476Y-65883390D01*
X120315476Y-65883390D02*
X120363095Y-65931009D01*
X120363095Y-65931009D02*
X120410714Y-66026247D01*
X120410714Y-66026247D02*
X120410714Y-66264342D01*
X120410714Y-66264342D02*
X120363095Y-66359580D01*
X120363095Y-66359580D02*
X120315476Y-66407200D01*
X120315476Y-66407200D02*
X120220238Y-66454819D01*
X120220238Y-66454819D02*
X119934524Y-66454819D01*
X119934524Y-66454819D02*
X119839286Y-66407200D01*
X119839286Y-66407200D02*
X119791667Y-66359580D01*
X124004761Y-86350057D02*
X123909523Y-86302438D01*
X123909523Y-86302438D02*
X123814285Y-86207200D01*
X123814285Y-86207200D02*
X123671428Y-86064342D01*
X123671428Y-86064342D02*
X123576190Y-86016723D01*
X123576190Y-86016723D02*
X123480952Y-86016723D01*
X123528571Y-86254819D02*
X123433333Y-86207200D01*
X123433333Y-86207200D02*
X123338095Y-86111961D01*
X123338095Y-86111961D02*
X123290476Y-85921485D01*
X123290476Y-85921485D02*
X123290476Y-85588152D01*
X123290476Y-85588152D02*
X123338095Y-85397676D01*
X123338095Y-85397676D02*
X123433333Y-85302438D01*
X123433333Y-85302438D02*
X123528571Y-85254819D01*
X123528571Y-85254819D02*
X123719047Y-85254819D01*
X123719047Y-85254819D02*
X123814285Y-85302438D01*
X123814285Y-85302438D02*
X123909523Y-85397676D01*
X123909523Y-85397676D02*
X123957142Y-85588152D01*
X123957142Y-85588152D02*
X123957142Y-85921485D01*
X123957142Y-85921485D02*
X123909523Y-86111961D01*
X123909523Y-86111961D02*
X123814285Y-86207200D01*
X123814285Y-86207200D02*
X123719047Y-86254819D01*
X123719047Y-86254819D02*
X123528571Y-86254819D01*
X124814285Y-85588152D02*
X124814285Y-86254819D01*
X124576190Y-85207200D02*
X124338095Y-85921485D01*
X124338095Y-85921485D02*
X124957142Y-85921485D01*
X128959580Y-78166666D02*
X129007200Y-78214285D01*
X129007200Y-78214285D02*
X129054819Y-78357142D01*
X129054819Y-78357142D02*
X129054819Y-78452380D01*
X129054819Y-78452380D02*
X129007200Y-78595237D01*
X129007200Y-78595237D02*
X128911961Y-78690475D01*
X128911961Y-78690475D02*
X128816723Y-78738094D01*
X128816723Y-78738094D02*
X128626247Y-78785713D01*
X128626247Y-78785713D02*
X128483390Y-78785713D01*
X128483390Y-78785713D02*
X128292914Y-78738094D01*
X128292914Y-78738094D02*
X128197676Y-78690475D01*
X128197676Y-78690475D02*
X128102438Y-78595237D01*
X128102438Y-78595237D02*
X128054819Y-78452380D01*
X128054819Y-78452380D02*
X128054819Y-78357142D01*
X128054819Y-78357142D02*
X128102438Y-78214285D01*
X128102438Y-78214285D02*
X128150057Y-78166666D01*
X128054819Y-77309523D02*
X128054819Y-77499999D01*
X128054819Y-77499999D02*
X128102438Y-77595237D01*
X128102438Y-77595237D02*
X128150057Y-77642856D01*
X128150057Y-77642856D02*
X128292914Y-77738094D01*
X128292914Y-77738094D02*
X128483390Y-77785713D01*
X128483390Y-77785713D02*
X128864342Y-77785713D01*
X128864342Y-77785713D02*
X128959580Y-77738094D01*
X128959580Y-77738094D02*
X129007200Y-77690475D01*
X129007200Y-77690475D02*
X129054819Y-77595237D01*
X129054819Y-77595237D02*
X129054819Y-77404761D01*
X129054819Y-77404761D02*
X129007200Y-77309523D01*
X129007200Y-77309523D02*
X128959580Y-77261904D01*
X128959580Y-77261904D02*
X128864342Y-77214285D01*
X128864342Y-77214285D02*
X128626247Y-77214285D01*
X128626247Y-77214285D02*
X128531009Y-77261904D01*
X128531009Y-77261904D02*
X128483390Y-77309523D01*
X128483390Y-77309523D02*
X128435771Y-77404761D01*
X128435771Y-77404761D02*
X128435771Y-77595237D01*
X128435771Y-77595237D02*
X128483390Y-77690475D01*
X128483390Y-77690475D02*
X128531009Y-77738094D01*
X128531009Y-77738094D02*
X128626247Y-77785713D01*
X129157142Y-59809580D02*
X129109523Y-59857200D01*
X129109523Y-59857200D02*
X128966666Y-59904819D01*
X128966666Y-59904819D02*
X128871428Y-59904819D01*
X128871428Y-59904819D02*
X128728571Y-59857200D01*
X128728571Y-59857200D02*
X128633333Y-59761961D01*
X128633333Y-59761961D02*
X128585714Y-59666723D01*
X128585714Y-59666723D02*
X128538095Y-59476247D01*
X128538095Y-59476247D02*
X128538095Y-59333390D01*
X128538095Y-59333390D02*
X128585714Y-59142914D01*
X128585714Y-59142914D02*
X128633333Y-59047676D01*
X128633333Y-59047676D02*
X128728571Y-58952438D01*
X128728571Y-58952438D02*
X128871428Y-58904819D01*
X128871428Y-58904819D02*
X128966666Y-58904819D01*
X128966666Y-58904819D02*
X129109523Y-58952438D01*
X129109523Y-58952438D02*
X129157142Y-59000057D01*
X130109523Y-59904819D02*
X129538095Y-59904819D01*
X129823809Y-59904819D02*
X129823809Y-58904819D01*
X129823809Y-58904819D02*
X129728571Y-59047676D01*
X129728571Y-59047676D02*
X129633333Y-59142914D01*
X129633333Y-59142914D02*
X129538095Y-59190533D01*
X130442857Y-58904819D02*
X131061904Y-58904819D01*
X131061904Y-58904819D02*
X130728571Y-59285771D01*
X130728571Y-59285771D02*
X130871428Y-59285771D01*
X130871428Y-59285771D02*
X130966666Y-59333390D01*
X130966666Y-59333390D02*
X131014285Y-59381009D01*
X131014285Y-59381009D02*
X131061904Y-59476247D01*
X131061904Y-59476247D02*
X131061904Y-59714342D01*
X131061904Y-59714342D02*
X131014285Y-59809580D01*
X131014285Y-59809580D02*
X130966666Y-59857200D01*
X130966666Y-59857200D02*
X130871428Y-59904819D01*
X130871428Y-59904819D02*
X130585714Y-59904819D01*
X130585714Y-59904819D02*
X130490476Y-59857200D01*
X130490476Y-59857200D02*
X130442857Y-59809580D01*
X133074819Y-96702857D02*
X132598628Y-97036190D01*
X133074819Y-97274285D02*
X132074819Y-97274285D01*
X132074819Y-97274285D02*
X132074819Y-96893333D01*
X132074819Y-96893333D02*
X132122438Y-96798095D01*
X132122438Y-96798095D02*
X132170057Y-96750476D01*
X132170057Y-96750476D02*
X132265295Y-96702857D01*
X132265295Y-96702857D02*
X132408152Y-96702857D01*
X132408152Y-96702857D02*
X132503390Y-96750476D01*
X132503390Y-96750476D02*
X132551009Y-96798095D01*
X132551009Y-96798095D02*
X132598628Y-96893333D01*
X132598628Y-96893333D02*
X132598628Y-97274285D01*
X133074819Y-95750476D02*
X133074819Y-96321904D01*
X133074819Y-96036190D02*
X132074819Y-96036190D01*
X132074819Y-96036190D02*
X132217676Y-96131428D01*
X132217676Y-96131428D02*
X132312914Y-96226666D01*
X132312914Y-96226666D02*
X132360533Y-96321904D01*
X132074819Y-95131428D02*
X132074819Y-95036190D01*
X132074819Y-95036190D02*
X132122438Y-94940952D01*
X132122438Y-94940952D02*
X132170057Y-94893333D01*
X132170057Y-94893333D02*
X132265295Y-94845714D01*
X132265295Y-94845714D02*
X132455771Y-94798095D01*
X132455771Y-94798095D02*
X132693866Y-94798095D01*
X132693866Y-94798095D02*
X132884342Y-94845714D01*
X132884342Y-94845714D02*
X132979580Y-94893333D01*
X132979580Y-94893333D02*
X133027200Y-94940952D01*
X133027200Y-94940952D02*
X133074819Y-95036190D01*
X133074819Y-95036190D02*
X133074819Y-95131428D01*
X133074819Y-95131428D02*
X133027200Y-95226666D01*
X133027200Y-95226666D02*
X132979580Y-95274285D01*
X132979580Y-95274285D02*
X132884342Y-95321904D01*
X132884342Y-95321904D02*
X132693866Y-95369523D01*
X132693866Y-95369523D02*
X132455771Y-95369523D01*
X132455771Y-95369523D02*
X132265295Y-95321904D01*
X132265295Y-95321904D02*
X132170057Y-95274285D01*
X132170057Y-95274285D02*
X132122438Y-95226666D01*
X132122438Y-95226666D02*
X132074819Y-95131428D01*
X128674819Y-96702857D02*
X128198628Y-97036190D01*
X128674819Y-97274285D02*
X127674819Y-97274285D01*
X127674819Y-97274285D02*
X127674819Y-96893333D01*
X127674819Y-96893333D02*
X127722438Y-96798095D01*
X127722438Y-96798095D02*
X127770057Y-96750476D01*
X127770057Y-96750476D02*
X127865295Y-96702857D01*
X127865295Y-96702857D02*
X128008152Y-96702857D01*
X128008152Y-96702857D02*
X128103390Y-96750476D01*
X128103390Y-96750476D02*
X128151009Y-96798095D01*
X128151009Y-96798095D02*
X128198628Y-96893333D01*
X128198628Y-96893333D02*
X128198628Y-97274285D01*
X128674819Y-95750476D02*
X128674819Y-96321904D01*
X128674819Y-96036190D02*
X127674819Y-96036190D01*
X127674819Y-96036190D02*
X127817676Y-96131428D01*
X127817676Y-96131428D02*
X127912914Y-96226666D01*
X127912914Y-96226666D02*
X127960533Y-96321904D01*
X127770057Y-95369523D02*
X127722438Y-95321904D01*
X127722438Y-95321904D02*
X127674819Y-95226666D01*
X127674819Y-95226666D02*
X127674819Y-94988571D01*
X127674819Y-94988571D02*
X127722438Y-94893333D01*
X127722438Y-94893333D02*
X127770057Y-94845714D01*
X127770057Y-94845714D02*
X127865295Y-94798095D01*
X127865295Y-94798095D02*
X127960533Y-94798095D01*
X127960533Y-94798095D02*
X128103390Y-94845714D01*
X128103390Y-94845714D02*
X128674819Y-95417142D01*
X128674819Y-95417142D02*
X128674819Y-94798095D01*
X146643095Y-67854819D02*
X146643095Y-68664342D01*
X146643095Y-68664342D02*
X146690714Y-68759580D01*
X146690714Y-68759580D02*
X146738333Y-68807200D01*
X146738333Y-68807200D02*
X146833571Y-68854819D01*
X146833571Y-68854819D02*
X147024047Y-68854819D01*
X147024047Y-68854819D02*
X147119285Y-68807200D01*
X147119285Y-68807200D02*
X147166904Y-68759580D01*
X147166904Y-68759580D02*
X147214523Y-68664342D01*
X147214523Y-68664342D02*
X147214523Y-67854819D01*
X148166904Y-67854819D02*
X147690714Y-67854819D01*
X147690714Y-67854819D02*
X147643095Y-68331009D01*
X147643095Y-68331009D02*
X147690714Y-68283390D01*
X147690714Y-68283390D02*
X147785952Y-68235771D01*
X147785952Y-68235771D02*
X148024047Y-68235771D01*
X148024047Y-68235771D02*
X148119285Y-68283390D01*
X148119285Y-68283390D02*
X148166904Y-68331009D01*
X148166904Y-68331009D02*
X148214523Y-68426247D01*
X148214523Y-68426247D02*
X148214523Y-68664342D01*
X148214523Y-68664342D02*
X148166904Y-68759580D01*
X148166904Y-68759580D02*
X148119285Y-68807200D01*
X148119285Y-68807200D02*
X148024047Y-68854819D01*
X148024047Y-68854819D02*
X147785952Y-68854819D01*
X147785952Y-68854819D02*
X147690714Y-68807200D01*
X147690714Y-68807200D02*
X147643095Y-68759580D01*
X114046666Y-106574819D02*
X114046666Y-107289104D01*
X114046666Y-107289104D02*
X113999047Y-107431961D01*
X113999047Y-107431961D02*
X113903809Y-107527200D01*
X113903809Y-107527200D02*
X113760952Y-107574819D01*
X113760952Y-107574819D02*
X113665714Y-107574819D01*
X114475238Y-106670057D02*
X114522857Y-106622438D01*
X114522857Y-106622438D02*
X114618095Y-106574819D01*
X114618095Y-106574819D02*
X114856190Y-106574819D01*
X114856190Y-106574819D02*
X114951428Y-106622438D01*
X114951428Y-106622438D02*
X114999047Y-106670057D01*
X114999047Y-106670057D02*
X115046666Y-106765295D01*
X115046666Y-106765295D02*
X115046666Y-106860533D01*
X115046666Y-106860533D02*
X114999047Y-107003390D01*
X114999047Y-107003390D02*
X114427619Y-107574819D01*
X114427619Y-107574819D02*
X115046666Y-107574819D01*
X116654819Y-96436666D02*
X116178628Y-96769999D01*
X116654819Y-97008094D02*
X115654819Y-97008094D01*
X115654819Y-97008094D02*
X115654819Y-96627142D01*
X115654819Y-96627142D02*
X115702438Y-96531904D01*
X115702438Y-96531904D02*
X115750057Y-96484285D01*
X115750057Y-96484285D02*
X115845295Y-96436666D01*
X115845295Y-96436666D02*
X115988152Y-96436666D01*
X115988152Y-96436666D02*
X116083390Y-96484285D01*
X116083390Y-96484285D02*
X116131009Y-96531904D01*
X116131009Y-96531904D02*
X116178628Y-96627142D01*
X116178628Y-96627142D02*
X116178628Y-97008094D01*
X115988152Y-95579523D02*
X116654819Y-95579523D01*
X115607200Y-95817618D02*
X116321485Y-96055713D01*
X116321485Y-96055713D02*
X116321485Y-95436666D01*
X118474819Y-96176666D02*
X117998628Y-96509999D01*
X118474819Y-96748094D02*
X117474819Y-96748094D01*
X117474819Y-96748094D02*
X117474819Y-96367142D01*
X117474819Y-96367142D02*
X117522438Y-96271904D01*
X117522438Y-96271904D02*
X117570057Y-96224285D01*
X117570057Y-96224285D02*
X117665295Y-96176666D01*
X117665295Y-96176666D02*
X117808152Y-96176666D01*
X117808152Y-96176666D02*
X117903390Y-96224285D01*
X117903390Y-96224285D02*
X117951009Y-96271904D01*
X117951009Y-96271904D02*
X117998628Y-96367142D01*
X117998628Y-96367142D02*
X117998628Y-96748094D01*
X118474819Y-95700475D02*
X118474819Y-95509999D01*
X118474819Y-95509999D02*
X118427200Y-95414761D01*
X118427200Y-95414761D02*
X118379580Y-95367142D01*
X118379580Y-95367142D02*
X118236723Y-95271904D01*
X118236723Y-95271904D02*
X118046247Y-95224285D01*
X118046247Y-95224285D02*
X117665295Y-95224285D01*
X117665295Y-95224285D02*
X117570057Y-95271904D01*
X117570057Y-95271904D02*
X117522438Y-95319523D01*
X117522438Y-95319523D02*
X117474819Y-95414761D01*
X117474819Y-95414761D02*
X117474819Y-95605237D01*
X117474819Y-95605237D02*
X117522438Y-95700475D01*
X117522438Y-95700475D02*
X117570057Y-95748094D01*
X117570057Y-95748094D02*
X117665295Y-95795713D01*
X117665295Y-95795713D02*
X117903390Y-95795713D01*
X117903390Y-95795713D02*
X117998628Y-95748094D01*
X117998628Y-95748094D02*
X118046247Y-95700475D01*
X118046247Y-95700475D02*
X118093866Y-95605237D01*
X118093866Y-95605237D02*
X118093866Y-95414761D01*
X118093866Y-95414761D02*
X118046247Y-95319523D01*
X118046247Y-95319523D02*
X117998628Y-95271904D01*
X117998628Y-95271904D02*
X117903390Y-95224285D01*
X113990476Y-68179819D02*
X113990476Y-68894104D01*
X113990476Y-68894104D02*
X113942857Y-69036961D01*
X113942857Y-69036961D02*
X113847619Y-69132200D01*
X113847619Y-69132200D02*
X113704762Y-69179819D01*
X113704762Y-69179819D02*
X113609524Y-69179819D01*
X114990476Y-69179819D02*
X114419048Y-69179819D01*
X114704762Y-69179819D02*
X114704762Y-68179819D01*
X114704762Y-68179819D02*
X114609524Y-68322676D01*
X114609524Y-68322676D02*
X114514286Y-68417914D01*
X114514286Y-68417914D02*
X114419048Y-68465533D01*
X115323810Y-68179819D02*
X115942857Y-68179819D01*
X115942857Y-68179819D02*
X115609524Y-68560771D01*
X115609524Y-68560771D02*
X115752381Y-68560771D01*
X115752381Y-68560771D02*
X115847619Y-68608390D01*
X115847619Y-68608390D02*
X115895238Y-68656009D01*
X115895238Y-68656009D02*
X115942857Y-68751247D01*
X115942857Y-68751247D02*
X115942857Y-68989342D01*
X115942857Y-68989342D02*
X115895238Y-69084580D01*
X115895238Y-69084580D02*
X115847619Y-69132200D01*
X115847619Y-69132200D02*
X115752381Y-69179819D01*
X115752381Y-69179819D02*
X115466667Y-69179819D01*
X115466667Y-69179819D02*
X115371429Y-69132200D01*
X115371429Y-69132200D02*
X115323810Y-69084580D01*
X126104819Y-95776666D02*
X125628628Y-96109999D01*
X126104819Y-96348094D02*
X125104819Y-96348094D01*
X125104819Y-96348094D02*
X125104819Y-95967142D01*
X125104819Y-95967142D02*
X125152438Y-95871904D01*
X125152438Y-95871904D02*
X125200057Y-95824285D01*
X125200057Y-95824285D02*
X125295295Y-95776666D01*
X125295295Y-95776666D02*
X125438152Y-95776666D01*
X125438152Y-95776666D02*
X125533390Y-95824285D01*
X125533390Y-95824285D02*
X125581009Y-95871904D01*
X125581009Y-95871904D02*
X125628628Y-95967142D01*
X125628628Y-95967142D02*
X125628628Y-96348094D01*
X125104819Y-94919523D02*
X125104819Y-95109999D01*
X125104819Y-95109999D02*
X125152438Y-95205237D01*
X125152438Y-95205237D02*
X125200057Y-95252856D01*
X125200057Y-95252856D02*
X125342914Y-95348094D01*
X125342914Y-95348094D02*
X125533390Y-95395713D01*
X125533390Y-95395713D02*
X125914342Y-95395713D01*
X125914342Y-95395713D02*
X126009580Y-95348094D01*
X126009580Y-95348094D02*
X126057200Y-95300475D01*
X126057200Y-95300475D02*
X126104819Y-95205237D01*
X126104819Y-95205237D02*
X126104819Y-95014761D01*
X126104819Y-95014761D02*
X126057200Y-94919523D01*
X126057200Y-94919523D02*
X126009580Y-94871904D01*
X126009580Y-94871904D02*
X125914342Y-94824285D01*
X125914342Y-94824285D02*
X125676247Y-94824285D01*
X125676247Y-94824285D02*
X125581009Y-94871904D01*
X125581009Y-94871904D02*
X125533390Y-94919523D01*
X125533390Y-94919523D02*
X125485771Y-95014761D01*
X125485771Y-95014761D02*
X125485771Y-95205237D01*
X125485771Y-95205237D02*
X125533390Y-95300475D01*
X125533390Y-95300475D02*
X125581009Y-95348094D01*
X125581009Y-95348094D02*
X125676247Y-95395713D01*
X129604761Y-80950057D02*
X129509523Y-80902438D01*
X129509523Y-80902438D02*
X129414285Y-80807200D01*
X129414285Y-80807200D02*
X129271428Y-80664342D01*
X129271428Y-80664342D02*
X129176190Y-80616723D01*
X129176190Y-80616723D02*
X129080952Y-80616723D01*
X129128571Y-80854819D02*
X129033333Y-80807200D01*
X129033333Y-80807200D02*
X128938095Y-80711961D01*
X128938095Y-80711961D02*
X128890476Y-80521485D01*
X128890476Y-80521485D02*
X128890476Y-80188152D01*
X128890476Y-80188152D02*
X128938095Y-79997676D01*
X128938095Y-79997676D02*
X129033333Y-79902438D01*
X129033333Y-79902438D02*
X129128571Y-79854819D01*
X129128571Y-79854819D02*
X129319047Y-79854819D01*
X129319047Y-79854819D02*
X129414285Y-79902438D01*
X129414285Y-79902438D02*
X129509523Y-79997676D01*
X129509523Y-79997676D02*
X129557142Y-80188152D01*
X129557142Y-80188152D02*
X129557142Y-80521485D01*
X129557142Y-80521485D02*
X129509523Y-80711961D01*
X129509523Y-80711961D02*
X129414285Y-80807200D01*
X129414285Y-80807200D02*
X129319047Y-80854819D01*
X129319047Y-80854819D02*
X129128571Y-80854819D01*
X129890476Y-79854819D02*
X130509523Y-79854819D01*
X130509523Y-79854819D02*
X130176190Y-80235771D01*
X130176190Y-80235771D02*
X130319047Y-80235771D01*
X130319047Y-80235771D02*
X130414285Y-80283390D01*
X130414285Y-80283390D02*
X130461904Y-80331009D01*
X130461904Y-80331009D02*
X130509523Y-80426247D01*
X130509523Y-80426247D02*
X130509523Y-80664342D01*
X130509523Y-80664342D02*
X130461904Y-80759580D01*
X130461904Y-80759580D02*
X130414285Y-80807200D01*
X130414285Y-80807200D02*
X130319047Y-80854819D01*
X130319047Y-80854819D02*
X130033333Y-80854819D01*
X130033333Y-80854819D02*
X129938095Y-80807200D01*
X129938095Y-80807200D02*
X129890476Y-80759580D01*
X135066666Y-106574819D02*
X135066666Y-107289104D01*
X135066666Y-107289104D02*
X135019047Y-107431961D01*
X135019047Y-107431961D02*
X134923809Y-107527200D01*
X134923809Y-107527200D02*
X134780952Y-107574819D01*
X134780952Y-107574819D02*
X134685714Y-107574819D01*
X135971428Y-106574819D02*
X135780952Y-106574819D01*
X135780952Y-106574819D02*
X135685714Y-106622438D01*
X135685714Y-106622438D02*
X135638095Y-106670057D01*
X135638095Y-106670057D02*
X135542857Y-106812914D01*
X135542857Y-106812914D02*
X135495238Y-107003390D01*
X135495238Y-107003390D02*
X135495238Y-107384342D01*
X135495238Y-107384342D02*
X135542857Y-107479580D01*
X135542857Y-107479580D02*
X135590476Y-107527200D01*
X135590476Y-107527200D02*
X135685714Y-107574819D01*
X135685714Y-107574819D02*
X135876190Y-107574819D01*
X135876190Y-107574819D02*
X135971428Y-107527200D01*
X135971428Y-107527200D02*
X136019047Y-107479580D01*
X136019047Y-107479580D02*
X136066666Y-107384342D01*
X136066666Y-107384342D02*
X136066666Y-107146247D01*
X136066666Y-107146247D02*
X136019047Y-107051009D01*
X136019047Y-107051009D02*
X135971428Y-107003390D01*
X135971428Y-107003390D02*
X135876190Y-106955771D01*
X135876190Y-106955771D02*
X135685714Y-106955771D01*
X135685714Y-106955771D02*
X135590476Y-107003390D01*
X135590476Y-107003390D02*
X135542857Y-107051009D01*
X135542857Y-107051009D02*
X135495238Y-107146247D01*
X124059580Y-87966666D02*
X124107200Y-88014285D01*
X124107200Y-88014285D02*
X124154819Y-88157142D01*
X124154819Y-88157142D02*
X124154819Y-88252380D01*
X124154819Y-88252380D02*
X124107200Y-88395237D01*
X124107200Y-88395237D02*
X124011961Y-88490475D01*
X124011961Y-88490475D02*
X123916723Y-88538094D01*
X123916723Y-88538094D02*
X123726247Y-88585713D01*
X123726247Y-88585713D02*
X123583390Y-88585713D01*
X123583390Y-88585713D02*
X123392914Y-88538094D01*
X123392914Y-88538094D02*
X123297676Y-88490475D01*
X123297676Y-88490475D02*
X123202438Y-88395237D01*
X123202438Y-88395237D02*
X123154819Y-88252380D01*
X123154819Y-88252380D02*
X123154819Y-88157142D01*
X123154819Y-88157142D02*
X123202438Y-88014285D01*
X123202438Y-88014285D02*
X123250057Y-87966666D01*
X123154819Y-87061904D02*
X123154819Y-87538094D01*
X123154819Y-87538094D02*
X123631009Y-87585713D01*
X123631009Y-87585713D02*
X123583390Y-87538094D01*
X123583390Y-87538094D02*
X123535771Y-87442856D01*
X123535771Y-87442856D02*
X123535771Y-87204761D01*
X123535771Y-87204761D02*
X123583390Y-87109523D01*
X123583390Y-87109523D02*
X123631009Y-87061904D01*
X123631009Y-87061904D02*
X123726247Y-87014285D01*
X123726247Y-87014285D02*
X123964342Y-87014285D01*
X123964342Y-87014285D02*
X124059580Y-87061904D01*
X124059580Y-87061904D02*
X124107200Y-87109523D01*
X124107200Y-87109523D02*
X124154819Y-87204761D01*
X124154819Y-87204761D02*
X124154819Y-87442856D01*
X124154819Y-87442856D02*
X124107200Y-87538094D01*
X124107200Y-87538094D02*
X124059580Y-87585713D01*
X118466666Y-106574819D02*
X118466666Y-107289104D01*
X118466666Y-107289104D02*
X118419047Y-107431961D01*
X118419047Y-107431961D02*
X118323809Y-107527200D01*
X118323809Y-107527200D02*
X118180952Y-107574819D01*
X118180952Y-107574819D02*
X118085714Y-107574819D01*
X119466666Y-107574819D02*
X118895238Y-107574819D01*
X119180952Y-107574819D02*
X119180952Y-106574819D01*
X119180952Y-106574819D02*
X119085714Y-106717676D01*
X119085714Y-106717676D02*
X118990476Y-106812914D01*
X118990476Y-106812914D02*
X118895238Y-106860533D01*
X130866666Y-106574819D02*
X130866666Y-107289104D01*
X130866666Y-107289104D02*
X130819047Y-107431961D01*
X130819047Y-107431961D02*
X130723809Y-107527200D01*
X130723809Y-107527200D02*
X130580952Y-107574819D01*
X130580952Y-107574819D02*
X130485714Y-107574819D01*
X131819047Y-106574819D02*
X131342857Y-106574819D01*
X131342857Y-106574819D02*
X131295238Y-107051009D01*
X131295238Y-107051009D02*
X131342857Y-107003390D01*
X131342857Y-107003390D02*
X131438095Y-106955771D01*
X131438095Y-106955771D02*
X131676190Y-106955771D01*
X131676190Y-106955771D02*
X131771428Y-107003390D01*
X131771428Y-107003390D02*
X131819047Y-107051009D01*
X131819047Y-107051009D02*
X131866666Y-107146247D01*
X131866666Y-107146247D02*
X131866666Y-107384342D01*
X131866666Y-107384342D02*
X131819047Y-107479580D01*
X131819047Y-107479580D02*
X131771428Y-107527200D01*
X131771428Y-107527200D02*
X131676190Y-107574819D01*
X131676190Y-107574819D02*
X131438095Y-107574819D01*
X131438095Y-107574819D02*
X131342857Y-107527200D01*
X131342857Y-107527200D02*
X131295238Y-107479580D01*
X120674819Y-96477857D02*
X120198628Y-96811190D01*
X120674819Y-97049285D02*
X119674819Y-97049285D01*
X119674819Y-97049285D02*
X119674819Y-96668333D01*
X119674819Y-96668333D02*
X119722438Y-96573095D01*
X119722438Y-96573095D02*
X119770057Y-96525476D01*
X119770057Y-96525476D02*
X119865295Y-96477857D01*
X119865295Y-96477857D02*
X120008152Y-96477857D01*
X120008152Y-96477857D02*
X120103390Y-96525476D01*
X120103390Y-96525476D02*
X120151009Y-96573095D01*
X120151009Y-96573095D02*
X120198628Y-96668333D01*
X120198628Y-96668333D02*
X120198628Y-97049285D01*
X120674819Y-95525476D02*
X120674819Y-96096904D01*
X120674819Y-95811190D02*
X119674819Y-95811190D01*
X119674819Y-95811190D02*
X119817676Y-95906428D01*
X119817676Y-95906428D02*
X119912914Y-96001666D01*
X119912914Y-96001666D02*
X119960533Y-96096904D01*
X119674819Y-95192142D02*
X119674819Y-94573095D01*
X119674819Y-94573095D02*
X120055771Y-94906428D01*
X120055771Y-94906428D02*
X120055771Y-94763571D01*
X120055771Y-94763571D02*
X120103390Y-94668333D01*
X120103390Y-94668333D02*
X120151009Y-94620714D01*
X120151009Y-94620714D02*
X120246247Y-94573095D01*
X120246247Y-94573095D02*
X120484342Y-94573095D01*
X120484342Y-94573095D02*
X120579580Y-94620714D01*
X120579580Y-94620714D02*
X120627200Y-94668333D01*
X120627200Y-94668333D02*
X120674819Y-94763571D01*
X120674819Y-94763571D02*
X120674819Y-95049285D01*
X120674819Y-95049285D02*
X120627200Y-95144523D01*
X120627200Y-95144523D02*
X120579580Y-95192142D01*
X125757142Y-59759580D02*
X125709523Y-59807200D01*
X125709523Y-59807200D02*
X125566666Y-59854819D01*
X125566666Y-59854819D02*
X125471428Y-59854819D01*
X125471428Y-59854819D02*
X125328571Y-59807200D01*
X125328571Y-59807200D02*
X125233333Y-59711961D01*
X125233333Y-59711961D02*
X125185714Y-59616723D01*
X125185714Y-59616723D02*
X125138095Y-59426247D01*
X125138095Y-59426247D02*
X125138095Y-59283390D01*
X125138095Y-59283390D02*
X125185714Y-59092914D01*
X125185714Y-59092914D02*
X125233333Y-58997676D01*
X125233333Y-58997676D02*
X125328571Y-58902438D01*
X125328571Y-58902438D02*
X125471428Y-58854819D01*
X125471428Y-58854819D02*
X125566666Y-58854819D01*
X125566666Y-58854819D02*
X125709523Y-58902438D01*
X125709523Y-58902438D02*
X125757142Y-58950057D01*
X126709523Y-59854819D02*
X126138095Y-59854819D01*
X126423809Y-59854819D02*
X126423809Y-58854819D01*
X126423809Y-58854819D02*
X126328571Y-58997676D01*
X126328571Y-58997676D02*
X126233333Y-59092914D01*
X126233333Y-59092914D02*
X126138095Y-59140533D01*
X127090476Y-58950057D02*
X127138095Y-58902438D01*
X127138095Y-58902438D02*
X127233333Y-58854819D01*
X127233333Y-58854819D02*
X127471428Y-58854819D01*
X127471428Y-58854819D02*
X127566666Y-58902438D01*
X127566666Y-58902438D02*
X127614285Y-58950057D01*
X127614285Y-58950057D02*
X127661904Y-59045295D01*
X127661904Y-59045295D02*
X127661904Y-59140533D01*
X127661904Y-59140533D02*
X127614285Y-59283390D01*
X127614285Y-59283390D02*
X127042857Y-59854819D01*
X127042857Y-59854819D02*
X127661904Y-59854819D01*
X116038095Y-58854819D02*
X116038095Y-59664342D01*
X116038095Y-59664342D02*
X116085714Y-59759580D01*
X116085714Y-59759580D02*
X116133333Y-59807200D01*
X116133333Y-59807200D02*
X116228571Y-59854819D01*
X116228571Y-59854819D02*
X116419047Y-59854819D01*
X116419047Y-59854819D02*
X116514285Y-59807200D01*
X116514285Y-59807200D02*
X116561904Y-59759580D01*
X116561904Y-59759580D02*
X116609523Y-59664342D01*
X116609523Y-59664342D02*
X116609523Y-58854819D01*
X117609523Y-59854819D02*
X117038095Y-59854819D01*
X117323809Y-59854819D02*
X117323809Y-58854819D01*
X117323809Y-58854819D02*
X117228571Y-58997676D01*
X117228571Y-58997676D02*
X117133333Y-59092914D01*
X117133333Y-59092914D02*
X117038095Y-59140533D01*
X134874819Y-96026666D02*
X134398628Y-96359999D01*
X134874819Y-96598094D02*
X133874819Y-96598094D01*
X133874819Y-96598094D02*
X133874819Y-96217142D01*
X133874819Y-96217142D02*
X133922438Y-96121904D01*
X133922438Y-96121904D02*
X133970057Y-96074285D01*
X133970057Y-96074285D02*
X134065295Y-96026666D01*
X134065295Y-96026666D02*
X134208152Y-96026666D01*
X134208152Y-96026666D02*
X134303390Y-96074285D01*
X134303390Y-96074285D02*
X134351009Y-96121904D01*
X134351009Y-96121904D02*
X134398628Y-96217142D01*
X134398628Y-96217142D02*
X134398628Y-96598094D01*
X133874819Y-95121904D02*
X133874819Y-95598094D01*
X133874819Y-95598094D02*
X134351009Y-95645713D01*
X134351009Y-95645713D02*
X134303390Y-95598094D01*
X134303390Y-95598094D02*
X134255771Y-95502856D01*
X134255771Y-95502856D02*
X134255771Y-95264761D01*
X134255771Y-95264761D02*
X134303390Y-95169523D01*
X134303390Y-95169523D02*
X134351009Y-95121904D01*
X134351009Y-95121904D02*
X134446247Y-95074285D01*
X134446247Y-95074285D02*
X134684342Y-95074285D01*
X134684342Y-95074285D02*
X134779580Y-95121904D01*
X134779580Y-95121904D02*
X134827200Y-95169523D01*
X134827200Y-95169523D02*
X134874819Y-95264761D01*
X134874819Y-95264761D02*
X134874819Y-95502856D01*
X134874819Y-95502856D02*
X134827200Y-95598094D01*
X134827200Y-95598094D02*
X134779580Y-95645713D01*
X112094819Y-96592857D02*
X111618628Y-96926190D01*
X112094819Y-97164285D02*
X111094819Y-97164285D01*
X111094819Y-97164285D02*
X111094819Y-96783333D01*
X111094819Y-96783333D02*
X111142438Y-96688095D01*
X111142438Y-96688095D02*
X111190057Y-96640476D01*
X111190057Y-96640476D02*
X111285295Y-96592857D01*
X111285295Y-96592857D02*
X111428152Y-96592857D01*
X111428152Y-96592857D02*
X111523390Y-96640476D01*
X111523390Y-96640476D02*
X111571009Y-96688095D01*
X111571009Y-96688095D02*
X111618628Y-96783333D01*
X111618628Y-96783333D02*
X111618628Y-97164285D01*
X112094819Y-95640476D02*
X112094819Y-96211904D01*
X112094819Y-95926190D02*
X111094819Y-95926190D01*
X111094819Y-95926190D02*
X111237676Y-96021428D01*
X111237676Y-96021428D02*
X111332914Y-96116666D01*
X111332914Y-96116666D02*
X111380533Y-96211904D01*
X111428152Y-94783333D02*
X112094819Y-94783333D01*
X111047200Y-95021428D02*
X111761485Y-95259523D01*
X111761485Y-95259523D02*
X111761485Y-94640476D01*
X149114819Y-84549523D02*
X149829104Y-84549523D01*
X149829104Y-84549523D02*
X149971961Y-84597142D01*
X149971961Y-84597142D02*
X150067200Y-84692380D01*
X150067200Y-84692380D02*
X150114819Y-84835237D01*
X150114819Y-84835237D02*
X150114819Y-84930475D01*
X150114819Y-83549523D02*
X150114819Y-84120951D01*
X150114819Y-83835237D02*
X149114819Y-83835237D01*
X149114819Y-83835237D02*
X149257676Y-83930475D01*
X149257676Y-83930475D02*
X149352914Y-84025713D01*
X149352914Y-84025713D02*
X149400533Y-84120951D01*
X149448152Y-82692380D02*
X150114819Y-82692380D01*
X149067200Y-82930475D02*
X149781485Y-83168570D01*
X149781485Y-83168570D02*
X149781485Y-82549523D01*
X124504819Y-96452857D02*
X124028628Y-96786190D01*
X124504819Y-97024285D02*
X123504819Y-97024285D01*
X123504819Y-97024285D02*
X123504819Y-96643333D01*
X123504819Y-96643333D02*
X123552438Y-96548095D01*
X123552438Y-96548095D02*
X123600057Y-96500476D01*
X123600057Y-96500476D02*
X123695295Y-96452857D01*
X123695295Y-96452857D02*
X123838152Y-96452857D01*
X123838152Y-96452857D02*
X123933390Y-96500476D01*
X123933390Y-96500476D02*
X123981009Y-96548095D01*
X123981009Y-96548095D02*
X124028628Y-96643333D01*
X124028628Y-96643333D02*
X124028628Y-97024285D01*
X124504819Y-95500476D02*
X124504819Y-96071904D01*
X124504819Y-95786190D02*
X123504819Y-95786190D01*
X123504819Y-95786190D02*
X123647676Y-95881428D01*
X123647676Y-95881428D02*
X123742914Y-95976666D01*
X123742914Y-95976666D02*
X123790533Y-96071904D01*
X124504819Y-94548095D02*
X124504819Y-95119523D01*
X124504819Y-94833809D02*
X123504819Y-94833809D01*
X123504819Y-94833809D02*
X123647676Y-94929047D01*
X123647676Y-94929047D02*
X123742914Y-95024285D01*
X123742914Y-95024285D02*
X123790533Y-95119523D01*
X123733333Y-81454819D02*
X123400000Y-80978628D01*
X123161905Y-81454819D02*
X123161905Y-80454819D01*
X123161905Y-80454819D02*
X123542857Y-80454819D01*
X123542857Y-80454819D02*
X123638095Y-80502438D01*
X123638095Y-80502438D02*
X123685714Y-80550057D01*
X123685714Y-80550057D02*
X123733333Y-80645295D01*
X123733333Y-80645295D02*
X123733333Y-80788152D01*
X123733333Y-80788152D02*
X123685714Y-80883390D01*
X123685714Y-80883390D02*
X123638095Y-80931009D01*
X123638095Y-80931009D02*
X123542857Y-80978628D01*
X123542857Y-80978628D02*
X123161905Y-80978628D01*
X124685714Y-81454819D02*
X124114286Y-81454819D01*
X124400000Y-81454819D02*
X124400000Y-80454819D01*
X124400000Y-80454819D02*
X124304762Y-80597676D01*
X124304762Y-80597676D02*
X124209524Y-80692914D01*
X124209524Y-80692914D02*
X124114286Y-80740533D01*
X115540476Y-70654819D02*
X115540476Y-71369104D01*
X115540476Y-71369104D02*
X115492857Y-71511961D01*
X115492857Y-71511961D02*
X115397619Y-71607200D01*
X115397619Y-71607200D02*
X115254762Y-71654819D01*
X115254762Y-71654819D02*
X115159524Y-71654819D01*
X116540476Y-71654819D02*
X115969048Y-71654819D01*
X116254762Y-71654819D02*
X116254762Y-70654819D01*
X116254762Y-70654819D02*
X116159524Y-70797676D01*
X116159524Y-70797676D02*
X116064286Y-70892914D01*
X116064286Y-70892914D02*
X115969048Y-70940533D01*
X117159524Y-70654819D02*
X117254762Y-70654819D01*
X117254762Y-70654819D02*
X117350000Y-70702438D01*
X117350000Y-70702438D02*
X117397619Y-70750057D01*
X117397619Y-70750057D02*
X117445238Y-70845295D01*
X117445238Y-70845295D02*
X117492857Y-71035771D01*
X117492857Y-71035771D02*
X117492857Y-71273866D01*
X117492857Y-71273866D02*
X117445238Y-71464342D01*
X117445238Y-71464342D02*
X117397619Y-71559580D01*
X117397619Y-71559580D02*
X117350000Y-71607200D01*
X117350000Y-71607200D02*
X117254762Y-71654819D01*
X117254762Y-71654819D02*
X117159524Y-71654819D01*
X117159524Y-71654819D02*
X117064286Y-71607200D01*
X117064286Y-71607200D02*
X117016667Y-71559580D01*
X117016667Y-71559580D02*
X116969048Y-71464342D01*
X116969048Y-71464342D02*
X116921429Y-71273866D01*
X116921429Y-71273866D02*
X116921429Y-71035771D01*
X116921429Y-71035771D02*
X116969048Y-70845295D01*
X116969048Y-70845295D02*
X117016667Y-70750057D01*
X117016667Y-70750057D02*
X117064286Y-70702438D01*
X117064286Y-70702438D02*
X117159524Y-70654819D01*
X132357142Y-59809580D02*
X132309523Y-59857200D01*
X132309523Y-59857200D02*
X132166666Y-59904819D01*
X132166666Y-59904819D02*
X132071428Y-59904819D01*
X132071428Y-59904819D02*
X131928571Y-59857200D01*
X131928571Y-59857200D02*
X131833333Y-59761961D01*
X131833333Y-59761961D02*
X131785714Y-59666723D01*
X131785714Y-59666723D02*
X131738095Y-59476247D01*
X131738095Y-59476247D02*
X131738095Y-59333390D01*
X131738095Y-59333390D02*
X131785714Y-59142914D01*
X131785714Y-59142914D02*
X131833333Y-59047676D01*
X131833333Y-59047676D02*
X131928571Y-58952438D01*
X131928571Y-58952438D02*
X132071428Y-58904819D01*
X132071428Y-58904819D02*
X132166666Y-58904819D01*
X132166666Y-58904819D02*
X132309523Y-58952438D01*
X132309523Y-58952438D02*
X132357142Y-59000057D01*
X133309523Y-59904819D02*
X132738095Y-59904819D01*
X133023809Y-59904819D02*
X133023809Y-58904819D01*
X133023809Y-58904819D02*
X132928571Y-59047676D01*
X132928571Y-59047676D02*
X132833333Y-59142914D01*
X132833333Y-59142914D02*
X132738095Y-59190533D01*
X134261904Y-59904819D02*
X133690476Y-59904819D01*
X133976190Y-59904819D02*
X133976190Y-58904819D01*
X133976190Y-58904819D02*
X133880952Y-59047676D01*
X133880952Y-59047676D02*
X133785714Y-59142914D01*
X133785714Y-59142914D02*
X133690476Y-59190533D01*
X143656666Y-105974819D02*
X143656666Y-106689104D01*
X143656666Y-106689104D02*
X143609047Y-106831961D01*
X143609047Y-106831961D02*
X143513809Y-106927200D01*
X143513809Y-106927200D02*
X143370952Y-106974819D01*
X143370952Y-106974819D02*
X143275714Y-106974819D01*
X144275714Y-106403390D02*
X144180476Y-106355771D01*
X144180476Y-106355771D02*
X144132857Y-106308152D01*
X144132857Y-106308152D02*
X144085238Y-106212914D01*
X144085238Y-106212914D02*
X144085238Y-106165295D01*
X144085238Y-106165295D02*
X144132857Y-106070057D01*
X144132857Y-106070057D02*
X144180476Y-106022438D01*
X144180476Y-106022438D02*
X144275714Y-105974819D01*
X144275714Y-105974819D02*
X144466190Y-105974819D01*
X144466190Y-105974819D02*
X144561428Y-106022438D01*
X144561428Y-106022438D02*
X144609047Y-106070057D01*
X144609047Y-106070057D02*
X144656666Y-106165295D01*
X144656666Y-106165295D02*
X144656666Y-106212914D01*
X144656666Y-106212914D02*
X144609047Y-106308152D01*
X144609047Y-106308152D02*
X144561428Y-106355771D01*
X144561428Y-106355771D02*
X144466190Y-106403390D01*
X144466190Y-106403390D02*
X144275714Y-106403390D01*
X144275714Y-106403390D02*
X144180476Y-106451009D01*
X144180476Y-106451009D02*
X144132857Y-106498628D01*
X144132857Y-106498628D02*
X144085238Y-106593866D01*
X144085238Y-106593866D02*
X144085238Y-106784342D01*
X144085238Y-106784342D02*
X144132857Y-106879580D01*
X144132857Y-106879580D02*
X144180476Y-106927200D01*
X144180476Y-106927200D02*
X144275714Y-106974819D01*
X144275714Y-106974819D02*
X144466190Y-106974819D01*
X144466190Y-106974819D02*
X144561428Y-106927200D01*
X144561428Y-106927200D02*
X144609047Y-106879580D01*
X144609047Y-106879580D02*
X144656666Y-106784342D01*
X144656666Y-106784342D02*
X144656666Y-106593866D01*
X144656666Y-106593866D02*
X144609047Y-106498628D01*
X144609047Y-106498628D02*
X144561428Y-106451009D01*
X144561428Y-106451009D02*
X144466190Y-106403390D01*
X147466666Y-105974819D02*
X147466666Y-106689104D01*
X147466666Y-106689104D02*
X147419047Y-106831961D01*
X147419047Y-106831961D02*
X147323809Y-106927200D01*
X147323809Y-106927200D02*
X147180952Y-106974819D01*
X147180952Y-106974819D02*
X147085714Y-106974819D01*
X147990476Y-106974819D02*
X148180952Y-106974819D01*
X148180952Y-106974819D02*
X148276190Y-106927200D01*
X148276190Y-106927200D02*
X148323809Y-106879580D01*
X148323809Y-106879580D02*
X148419047Y-106736723D01*
X148419047Y-106736723D02*
X148466666Y-106546247D01*
X148466666Y-106546247D02*
X148466666Y-106165295D01*
X148466666Y-106165295D02*
X148419047Y-106070057D01*
X148419047Y-106070057D02*
X148371428Y-106022438D01*
X148371428Y-106022438D02*
X148276190Y-105974819D01*
X148276190Y-105974819D02*
X148085714Y-105974819D01*
X148085714Y-105974819D02*
X147990476Y-106022438D01*
X147990476Y-106022438D02*
X147942857Y-106070057D01*
X147942857Y-106070057D02*
X147895238Y-106165295D01*
X147895238Y-106165295D02*
X147895238Y-106403390D01*
X147895238Y-106403390D02*
X147942857Y-106498628D01*
X147942857Y-106498628D02*
X147990476Y-106546247D01*
X147990476Y-106546247D02*
X148085714Y-106593866D01*
X148085714Y-106593866D02*
X148276190Y-106593866D01*
X148276190Y-106593866D02*
X148371428Y-106546247D01*
X148371428Y-106546247D02*
X148419047Y-106498628D01*
X148419047Y-106498628D02*
X148466666Y-106403390D01*
X122674819Y-95801666D02*
X122198628Y-96134999D01*
X122674819Y-96373094D02*
X121674819Y-96373094D01*
X121674819Y-96373094D02*
X121674819Y-95992142D01*
X121674819Y-95992142D02*
X121722438Y-95896904D01*
X121722438Y-95896904D02*
X121770057Y-95849285D01*
X121770057Y-95849285D02*
X121865295Y-95801666D01*
X121865295Y-95801666D02*
X122008152Y-95801666D01*
X122008152Y-95801666D02*
X122103390Y-95849285D01*
X122103390Y-95849285D02*
X122151009Y-95896904D01*
X122151009Y-95896904D02*
X122198628Y-95992142D01*
X122198628Y-95992142D02*
X122198628Y-96373094D01*
X122103390Y-95230237D02*
X122055771Y-95325475D01*
X122055771Y-95325475D02*
X122008152Y-95373094D01*
X122008152Y-95373094D02*
X121912914Y-95420713D01*
X121912914Y-95420713D02*
X121865295Y-95420713D01*
X121865295Y-95420713D02*
X121770057Y-95373094D01*
X121770057Y-95373094D02*
X121722438Y-95325475D01*
X121722438Y-95325475D02*
X121674819Y-95230237D01*
X121674819Y-95230237D02*
X121674819Y-95039761D01*
X121674819Y-95039761D02*
X121722438Y-94944523D01*
X121722438Y-94944523D02*
X121770057Y-94896904D01*
X121770057Y-94896904D02*
X121865295Y-94849285D01*
X121865295Y-94849285D02*
X121912914Y-94849285D01*
X121912914Y-94849285D02*
X122008152Y-94896904D01*
X122008152Y-94896904D02*
X122055771Y-94944523D01*
X122055771Y-94944523D02*
X122103390Y-95039761D01*
X122103390Y-95039761D02*
X122103390Y-95230237D01*
X122103390Y-95230237D02*
X122151009Y-95325475D01*
X122151009Y-95325475D02*
X122198628Y-95373094D01*
X122198628Y-95373094D02*
X122293866Y-95420713D01*
X122293866Y-95420713D02*
X122484342Y-95420713D01*
X122484342Y-95420713D02*
X122579580Y-95373094D01*
X122579580Y-95373094D02*
X122627200Y-95325475D01*
X122627200Y-95325475D02*
X122674819Y-95230237D01*
X122674819Y-95230237D02*
X122674819Y-95039761D01*
X122674819Y-95039761D02*
X122627200Y-94944523D01*
X122627200Y-94944523D02*
X122579580Y-94896904D01*
X122579580Y-94896904D02*
X122484342Y-94849285D01*
X122484342Y-94849285D02*
X122293866Y-94849285D01*
X122293866Y-94849285D02*
X122198628Y-94896904D01*
X122198628Y-94896904D02*
X122151009Y-94944523D01*
X122151009Y-94944523D02*
X122103390Y-95039761D01*
X153990476Y-87794819D02*
X153990476Y-88509104D01*
X153990476Y-88509104D02*
X153942857Y-88651961D01*
X153942857Y-88651961D02*
X153847619Y-88747200D01*
X153847619Y-88747200D02*
X153704762Y-88794819D01*
X153704762Y-88794819D02*
X153609524Y-88794819D01*
X154990476Y-88794819D02*
X154419048Y-88794819D01*
X154704762Y-88794819D02*
X154704762Y-87794819D01*
X154704762Y-87794819D02*
X154609524Y-87937676D01*
X154609524Y-87937676D02*
X154514286Y-88032914D01*
X154514286Y-88032914D02*
X154419048Y-88080533D01*
X155942857Y-88794819D02*
X155371429Y-88794819D01*
X155657143Y-88794819D02*
X155657143Y-87794819D01*
X155657143Y-87794819D02*
X155561905Y-87937676D01*
X155561905Y-87937676D02*
X155466667Y-88032914D01*
X155466667Y-88032914D02*
X155371429Y-88080533D01*
X113694819Y-96592857D02*
X113218628Y-96926190D01*
X113694819Y-97164285D02*
X112694819Y-97164285D01*
X112694819Y-97164285D02*
X112694819Y-96783333D01*
X112694819Y-96783333D02*
X112742438Y-96688095D01*
X112742438Y-96688095D02*
X112790057Y-96640476D01*
X112790057Y-96640476D02*
X112885295Y-96592857D01*
X112885295Y-96592857D02*
X113028152Y-96592857D01*
X113028152Y-96592857D02*
X113123390Y-96640476D01*
X113123390Y-96640476D02*
X113171009Y-96688095D01*
X113171009Y-96688095D02*
X113218628Y-96783333D01*
X113218628Y-96783333D02*
X113218628Y-97164285D01*
X113694819Y-95640476D02*
X113694819Y-96211904D01*
X113694819Y-95926190D02*
X112694819Y-95926190D01*
X112694819Y-95926190D02*
X112837676Y-96021428D01*
X112837676Y-96021428D02*
X112932914Y-96116666D01*
X112932914Y-96116666D02*
X112980533Y-96211904D01*
X112694819Y-94735714D02*
X112694819Y-95211904D01*
X112694819Y-95211904D02*
X113171009Y-95259523D01*
X113171009Y-95259523D02*
X113123390Y-95211904D01*
X113123390Y-95211904D02*
X113075771Y-95116666D01*
X113075771Y-95116666D02*
X113075771Y-94878571D01*
X113075771Y-94878571D02*
X113123390Y-94783333D01*
X113123390Y-94783333D02*
X113171009Y-94735714D01*
X113171009Y-94735714D02*
X113266247Y-94688095D01*
X113266247Y-94688095D02*
X113504342Y-94688095D01*
X113504342Y-94688095D02*
X113599580Y-94735714D01*
X113599580Y-94735714D02*
X113647200Y-94783333D01*
X113647200Y-94783333D02*
X113694819Y-94878571D01*
X113694819Y-94878571D02*
X113694819Y-95116666D01*
X113694819Y-95116666D02*
X113647200Y-95211904D01*
X113647200Y-95211904D02*
X113599580Y-95259523D01*
X127561905Y-66754819D02*
X127561905Y-65754819D01*
X127561905Y-65754819D02*
X127800000Y-65754819D01*
X127800000Y-65754819D02*
X127942857Y-65802438D01*
X127942857Y-65802438D02*
X128038095Y-65897676D01*
X128038095Y-65897676D02*
X128085714Y-65992914D01*
X128085714Y-65992914D02*
X128133333Y-66183390D01*
X128133333Y-66183390D02*
X128133333Y-66326247D01*
X128133333Y-66326247D02*
X128085714Y-66516723D01*
X128085714Y-66516723D02*
X128038095Y-66611961D01*
X128038095Y-66611961D02*
X127942857Y-66707200D01*
X127942857Y-66707200D02*
X127800000Y-66754819D01*
X127800000Y-66754819D02*
X127561905Y-66754819D01*
X129085714Y-66754819D02*
X128514286Y-66754819D01*
X128800000Y-66754819D02*
X128800000Y-65754819D01*
X128800000Y-65754819D02*
X128704762Y-65897676D01*
X128704762Y-65897676D02*
X128609524Y-65992914D01*
X128609524Y-65992914D02*
X128514286Y-66040533D01*
X128928571Y-68062295D02*
X128471428Y-68062295D01*
X128700000Y-68062295D02*
X128700000Y-67262295D01*
X128700000Y-67262295D02*
X128623809Y-67376580D01*
X128623809Y-67376580D02*
X128547619Y-67452771D01*
X128547619Y-67452771D02*
X128471428Y-67490866D01*
X130674819Y-96051666D02*
X130198628Y-96384999D01*
X130674819Y-96623094D02*
X129674819Y-96623094D01*
X129674819Y-96623094D02*
X129674819Y-96242142D01*
X129674819Y-96242142D02*
X129722438Y-96146904D01*
X129722438Y-96146904D02*
X129770057Y-96099285D01*
X129770057Y-96099285D02*
X129865295Y-96051666D01*
X129865295Y-96051666D02*
X130008152Y-96051666D01*
X130008152Y-96051666D02*
X130103390Y-96099285D01*
X130103390Y-96099285D02*
X130151009Y-96146904D01*
X130151009Y-96146904D02*
X130198628Y-96242142D01*
X130198628Y-96242142D02*
X130198628Y-96623094D01*
X129674819Y-95718332D02*
X129674819Y-95051666D01*
X129674819Y-95051666D02*
X130674819Y-95480237D01*
X122666666Y-106574819D02*
X122666666Y-107289104D01*
X122666666Y-107289104D02*
X122619047Y-107431961D01*
X122619047Y-107431961D02*
X122523809Y-107527200D01*
X122523809Y-107527200D02*
X122380952Y-107574819D01*
X122380952Y-107574819D02*
X122285714Y-107574819D01*
X123047619Y-106574819D02*
X123714285Y-106574819D01*
X123714285Y-106574819D02*
X123285714Y-107574819D01*
D10*
X115132380Y-86313842D02*
X115313809Y-86374318D01*
X115313809Y-86374318D02*
X115616190Y-86374318D01*
X115616190Y-86374318D02*
X115737142Y-86313842D01*
X115737142Y-86313842D02*
X115797618Y-86253365D01*
X115797618Y-86253365D02*
X115858095Y-86132413D01*
X115858095Y-86132413D02*
X115858095Y-86011461D01*
X115858095Y-86011461D02*
X115797618Y-85890508D01*
X115797618Y-85890508D02*
X115737142Y-85830032D01*
X115737142Y-85830032D02*
X115616190Y-85769556D01*
X115616190Y-85769556D02*
X115374285Y-85709080D01*
X115374285Y-85709080D02*
X115253333Y-85648603D01*
X115253333Y-85648603D02*
X115192856Y-85588127D01*
X115192856Y-85588127D02*
X115132380Y-85467175D01*
X115132380Y-85467175D02*
X115132380Y-85346222D01*
X115132380Y-85346222D02*
X115192856Y-85225270D01*
X115192856Y-85225270D02*
X115253333Y-85164794D01*
X115253333Y-85164794D02*
X115374285Y-85104318D01*
X115374285Y-85104318D02*
X115676666Y-85104318D01*
X115676666Y-85104318D02*
X115858095Y-85164794D01*
X117067619Y-86374318D02*
X116341904Y-86374318D01*
X116704761Y-86374318D02*
X116704761Y-85104318D01*
X116704761Y-85104318D02*
X116583809Y-85285746D01*
X116583809Y-85285746D02*
X116462857Y-85406699D01*
X116462857Y-85406699D02*
X116341904Y-85467175D01*
D11*
X131554819Y-83842857D02*
X131078628Y-84176190D01*
X131554819Y-84414285D02*
X130554819Y-84414285D01*
X130554819Y-84414285D02*
X130554819Y-84033333D01*
X130554819Y-84033333D02*
X130602438Y-83938095D01*
X130602438Y-83938095D02*
X130650057Y-83890476D01*
X130650057Y-83890476D02*
X130745295Y-83842857D01*
X130745295Y-83842857D02*
X130888152Y-83842857D01*
X130888152Y-83842857D02*
X130983390Y-83890476D01*
X130983390Y-83890476D02*
X131031009Y-83938095D01*
X131031009Y-83938095D02*
X131078628Y-84033333D01*
X131078628Y-84033333D02*
X131078628Y-84414285D01*
X131554819Y-82890476D02*
X131554819Y-83461904D01*
X131554819Y-83176190D02*
X130554819Y-83176190D01*
X130554819Y-83176190D02*
X130697676Y-83271428D01*
X130697676Y-83271428D02*
X130792914Y-83366666D01*
X130792914Y-83366666D02*
X130840533Y-83461904D01*
X130554819Y-82033333D02*
X130554819Y-82223809D01*
X130554819Y-82223809D02*
X130602438Y-82319047D01*
X130602438Y-82319047D02*
X130650057Y-82366666D01*
X130650057Y-82366666D02*
X130792914Y-82461904D01*
X130792914Y-82461904D02*
X130983390Y-82509523D01*
X130983390Y-82509523D02*
X131364342Y-82509523D01*
X131364342Y-82509523D02*
X131459580Y-82461904D01*
X131459580Y-82461904D02*
X131507200Y-82414285D01*
X131507200Y-82414285D02*
X131554819Y-82319047D01*
X131554819Y-82319047D02*
X131554819Y-82128571D01*
X131554819Y-82128571D02*
X131507200Y-82033333D01*
X131507200Y-82033333D02*
X131459580Y-81985714D01*
X131459580Y-81985714D02*
X131364342Y-81938095D01*
X131364342Y-81938095D02*
X131126247Y-81938095D01*
X131126247Y-81938095D02*
X131031009Y-81985714D01*
X131031009Y-81985714D02*
X130983390Y-82033333D01*
X130983390Y-82033333D02*
X130935771Y-82128571D01*
X130935771Y-82128571D02*
X130935771Y-82319047D01*
X130935771Y-82319047D02*
X130983390Y-82414285D01*
X130983390Y-82414285D02*
X131031009Y-82461904D01*
X131031009Y-82461904D02*
X131126247Y-82509523D01*
X126666666Y-106574819D02*
X126666666Y-107289104D01*
X126666666Y-107289104D02*
X126619047Y-107431961D01*
X126619047Y-107431961D02*
X126523809Y-107527200D01*
X126523809Y-107527200D02*
X126380952Y-107574819D01*
X126380952Y-107574819D02*
X126285714Y-107574819D01*
X127571428Y-106908152D02*
X127571428Y-107574819D01*
X127333333Y-106527200D02*
X127095238Y-107241485D01*
X127095238Y-107241485D02*
X127714285Y-107241485D01*
X149834819Y-91933333D02*
X150549104Y-91933333D01*
X150549104Y-91933333D02*
X150691961Y-91980952D01*
X150691961Y-91980952D02*
X150787200Y-92076190D01*
X150787200Y-92076190D02*
X150834819Y-92219047D01*
X150834819Y-92219047D02*
X150834819Y-92314285D01*
X149834819Y-91552380D02*
X149834819Y-90933333D01*
X149834819Y-90933333D02*
X150215771Y-91266666D01*
X150215771Y-91266666D02*
X150215771Y-91123809D01*
X150215771Y-91123809D02*
X150263390Y-91028571D01*
X150263390Y-91028571D02*
X150311009Y-90980952D01*
X150311009Y-90980952D02*
X150406247Y-90933333D01*
X150406247Y-90933333D02*
X150644342Y-90933333D01*
X150644342Y-90933333D02*
X150739580Y-90980952D01*
X150739580Y-90980952D02*
X150787200Y-91028571D01*
X150787200Y-91028571D02*
X150834819Y-91123809D01*
X150834819Y-91123809D02*
X150834819Y-91409523D01*
X150834819Y-91409523D02*
X150787200Y-91504761D01*
X150787200Y-91504761D02*
X150739580Y-91552380D01*
X139433333Y-99654819D02*
X139100000Y-99178628D01*
X138861905Y-99654819D02*
X138861905Y-98654819D01*
X138861905Y-98654819D02*
X139242857Y-98654819D01*
X139242857Y-98654819D02*
X139338095Y-98702438D01*
X139338095Y-98702438D02*
X139385714Y-98750057D01*
X139385714Y-98750057D02*
X139433333Y-98845295D01*
X139433333Y-98845295D02*
X139433333Y-98988152D01*
X139433333Y-98988152D02*
X139385714Y-99083390D01*
X139385714Y-99083390D02*
X139338095Y-99131009D01*
X139338095Y-99131009D02*
X139242857Y-99178628D01*
X139242857Y-99178628D02*
X138861905Y-99178628D01*
X139814286Y-98750057D02*
X139861905Y-98702438D01*
X139861905Y-98702438D02*
X139957143Y-98654819D01*
X139957143Y-98654819D02*
X140195238Y-98654819D01*
X140195238Y-98654819D02*
X140290476Y-98702438D01*
X140290476Y-98702438D02*
X140338095Y-98750057D01*
X140338095Y-98750057D02*
X140385714Y-98845295D01*
X140385714Y-98845295D02*
X140385714Y-98940533D01*
X140385714Y-98940533D02*
X140338095Y-99083390D01*
X140338095Y-99083390D02*
X139766667Y-99654819D01*
X139766667Y-99654819D02*
X140385714Y-99654819D01*
X122757142Y-59879819D02*
X122423809Y-59403628D01*
X122185714Y-59879819D02*
X122185714Y-58879819D01*
X122185714Y-58879819D02*
X122566666Y-58879819D01*
X122566666Y-58879819D02*
X122661904Y-58927438D01*
X122661904Y-58927438D02*
X122709523Y-58975057D01*
X122709523Y-58975057D02*
X122757142Y-59070295D01*
X122757142Y-59070295D02*
X122757142Y-59213152D01*
X122757142Y-59213152D02*
X122709523Y-59308390D01*
X122709523Y-59308390D02*
X122661904Y-59356009D01*
X122661904Y-59356009D02*
X122566666Y-59403628D01*
X122566666Y-59403628D02*
X122185714Y-59403628D01*
X123709523Y-59879819D02*
X123138095Y-59879819D01*
X123423809Y-59879819D02*
X123423809Y-58879819D01*
X123423809Y-58879819D02*
X123328571Y-59022676D01*
X123328571Y-59022676D02*
X123233333Y-59117914D01*
X123233333Y-59117914D02*
X123138095Y-59165533D01*
X124042857Y-58879819D02*
X124709523Y-58879819D01*
X124709523Y-58879819D02*
X124280952Y-59879819D01*
D12*
%TO.C,S2*%
X112400000Y-78500000D02*
X112400000Y-78500000D01*
X112500000Y-78500000D02*
X112500000Y-78500000D01*
X113050000Y-78150000D02*
X119150000Y-78150000D01*
X113050000Y-79100000D02*
X113050000Y-78150000D01*
X113050000Y-80900000D02*
X113050000Y-81850000D01*
X113050000Y-81850000D02*
X119150000Y-81850000D01*
X119150000Y-78150000D02*
X119150000Y-79100000D01*
X119150000Y-81850000D02*
X119150000Y-80900000D01*
X112400000Y-78500000D02*
G75*
G02*
X112500000Y-78500000I50000J0D01*
G01*
X112500000Y-78500000D02*
G75*
G02*
X112400000Y-78500000I-50000J0D01*
G01*
D13*
%TO.C,C3*%
X118259420Y-64090000D02*
X118540580Y-64090000D01*
X118259420Y-65110000D02*
X118540580Y-65110000D01*
%TO.C,Q4*%
X125390000Y-84937500D02*
X125390000Y-84287500D01*
X125390000Y-84937500D02*
X125390000Y-85587500D01*
X128510000Y-84937500D02*
X128510000Y-84287500D01*
X128510000Y-84937500D02*
X128510000Y-85587500D01*
X128790000Y-84015000D02*
X128460000Y-83775000D01*
X128790000Y-83535000D01*
X128790000Y-84015000D01*
G36*
X128790000Y-84015000D02*
G01*
X128460000Y-83775000D01*
X128790000Y-83535000D01*
X128790000Y-84015000D01*
G37*
%TO.C,C6*%
X125959420Y-77490000D02*
X126240580Y-77490000D01*
X125959420Y-78510000D02*
X126240580Y-78510000D01*
%TO.C,C13*%
X130290000Y-61509420D02*
X130290000Y-61790580D01*
X131310000Y-61509420D02*
X131310000Y-61790580D01*
%TO.C,R10*%
X132097500Y-93297258D02*
X132097500Y-92822742D01*
X133142500Y-93297258D02*
X133142500Y-92822742D01*
%TO.C,R12*%
X127897500Y-93322258D02*
X127897500Y-92847742D01*
X128942500Y-93322258D02*
X128942500Y-92847742D01*
%TO.C,U5*%
X135130000Y-52000000D02*
X135130000Y-58160000D01*
X135130000Y-52000000D02*
X153370000Y-52000000D01*
X135130000Y-76960000D02*
X135130000Y-77740000D01*
X135130000Y-77740000D02*
X136130000Y-77740000D01*
X153370000Y-52000000D02*
X153370000Y-58415000D01*
X153370000Y-76960000D02*
X153370000Y-77740000D01*
X153370000Y-77740000D02*
X152370000Y-77740000D01*
X135125000Y-58885000D02*
X134625000Y-58885000D01*
X135125000Y-58385000D01*
X135125000Y-58885000D01*
G36*
X135125000Y-58885000D02*
G01*
X134625000Y-58885000D01*
X135125000Y-58385000D01*
X135125000Y-58885000D01*
G37*
%TO.C,J2*%
X113000000Y-103470000D02*
X113000000Y-98280000D01*
X115760000Y-98280000D02*
X113000000Y-98280000D01*
X115760000Y-103470000D02*
X113000000Y-103470000D01*
X115760000Y-103470000D02*
X115760000Y-98280000D01*
X115760000Y-104740000D02*
X115760000Y-106120000D01*
X115760000Y-106120000D02*
X114380000Y-106120000D01*
%TO.C,R4*%
X115677500Y-93332258D02*
X115677500Y-92857742D01*
X116722500Y-93332258D02*
X116722500Y-92857742D01*
%TO.C,R9*%
X117297500Y-92847742D02*
X117297500Y-93322258D01*
X118342500Y-92847742D02*
X118342500Y-93322258D01*
%TO.C,J13*%
X110220000Y-64620000D02*
X111600000Y-64620000D01*
X110220000Y-66000000D02*
X110220000Y-64620000D01*
X110220000Y-67270000D02*
X110220000Y-69920000D01*
X110220000Y-67270000D02*
X112980000Y-67270000D01*
X110220000Y-69920000D02*
X112980000Y-69920000D01*
X112980000Y-67270000D02*
X112980000Y-69920000D01*
%TO.C,R6*%
X125352500Y-92797742D02*
X125352500Y-93272258D01*
X126397500Y-92797742D02*
X126397500Y-93272258D01*
%TO.C,Q3*%
X125390000Y-80862500D02*
X125390000Y-80212500D01*
X125390000Y-80862500D02*
X125390000Y-81512500D01*
X128510000Y-80862500D02*
X128510000Y-80212500D01*
X128510000Y-80862500D02*
X128510000Y-81512500D01*
X125440000Y-82025000D02*
X125110000Y-82265000D01*
X125110000Y-81785000D01*
X125440000Y-82025000D01*
G36*
X125440000Y-82025000D02*
G01*
X125110000Y-82265000D01*
X125110000Y-81785000D01*
X125440000Y-82025000D01*
G37*
%TO.C,J6*%
X134020000Y-103470000D02*
X134020000Y-98280000D01*
X136780000Y-98280000D02*
X134020000Y-98280000D01*
X136780000Y-103470000D02*
X134020000Y-103470000D01*
X136780000Y-103470000D02*
X136780000Y-98280000D01*
X136780000Y-104740000D02*
X136780000Y-106120000D01*
X136780000Y-106120000D02*
X135400000Y-106120000D01*
%TO.C,C5*%
X125984420Y-87290000D02*
X126265580Y-87290000D01*
X125984420Y-88310000D02*
X126265580Y-88310000D01*
%TO.C,J1*%
X117420000Y-103470000D02*
X117420000Y-98280000D01*
X120180000Y-98280000D02*
X117420000Y-98280000D01*
X120180000Y-103470000D02*
X117420000Y-103470000D01*
X120180000Y-103470000D02*
X120180000Y-98280000D01*
X120180000Y-104740000D02*
X120180000Y-106120000D01*
X120180000Y-106120000D02*
X118800000Y-106120000D01*
%TO.C,J5*%
X129820000Y-103470000D02*
X129820000Y-98280000D01*
X132580000Y-98280000D02*
X129820000Y-98280000D01*
X132580000Y-103470000D02*
X129820000Y-103470000D01*
X132580000Y-103470000D02*
X132580000Y-98280000D01*
X132580000Y-104740000D02*
X132580000Y-106120000D01*
X132580000Y-106120000D02*
X131200000Y-106120000D01*
%TO.C,R13*%
X119697500Y-93297258D02*
X119697500Y-92822742D01*
X120742500Y-93297258D02*
X120742500Y-92822742D01*
%TO.C,C12*%
X126340580Y-61940000D02*
X126059420Y-61940000D01*
X126340580Y-62960000D02*
X126059420Y-62960000D01*
%TO.C,U1*%
X119262500Y-60290000D02*
X118462500Y-60290000D01*
X119262500Y-60290000D02*
X120062500Y-60290000D01*
X119262500Y-63410000D02*
X118462500Y-63410000D01*
X119262500Y-63410000D02*
X120062500Y-63410000D01*
X117962500Y-60340000D02*
X117722500Y-60010000D01*
X118202500Y-60010000D01*
X117962500Y-60340000D01*
G36*
X117962500Y-60340000D02*
G01*
X117722500Y-60010000D01*
X118202500Y-60010000D01*
X117962500Y-60340000D01*
G37*
%TO.C,R5*%
X133872500Y-92822742D02*
X133872500Y-93297258D01*
X134917500Y-92822742D02*
X134917500Y-93297258D01*
%TO.C,R14*%
X111117500Y-93212258D02*
X111117500Y-92737742D01*
X112162500Y-93212258D02*
X112162500Y-92737742D01*
%TO.C,J14*%
X134680000Y-80620000D02*
X147600000Y-80620000D01*
X134680000Y-83270000D02*
X134680000Y-80620000D01*
X134680000Y-85920000D02*
X134680000Y-84540000D01*
X136060000Y-85920000D02*
X134680000Y-85920000D01*
X137330000Y-83270000D02*
X134680000Y-83270000D01*
X137330000Y-85920000D02*
X137330000Y-83270000D01*
X137330000Y-85920000D02*
X147600000Y-85920000D01*
X147600000Y-85920000D02*
X147600000Y-80620000D01*
%TO.C,R11*%
X123727500Y-93272258D02*
X123727500Y-92797742D01*
X124772500Y-93272258D02*
X124772500Y-92797742D01*
%TO.C,R1*%
X123777500Y-83437258D02*
X123777500Y-82962742D01*
X124822500Y-83437258D02*
X124822500Y-82962742D01*
%TO.C,J10*%
X113070000Y-75580000D02*
X113070000Y-74200000D01*
X114450000Y-75580000D02*
X113070000Y-75580000D01*
X115720000Y-72820000D02*
X128530000Y-72820000D01*
X115720000Y-75580000D02*
X115720000Y-72820000D01*
X115720000Y-75580000D02*
X128530000Y-75580000D01*
X128530000Y-75580000D02*
X128530000Y-72820000D01*
%TO.C,C11*%
X132490000Y-61484420D02*
X132490000Y-61765580D01*
X133510000Y-61484420D02*
X133510000Y-61765580D01*
%TO.C,J8*%
X142610000Y-102870000D02*
X142610000Y-97680000D01*
X145370000Y-97680000D02*
X142610000Y-97680000D01*
X145370000Y-102870000D02*
X142610000Y-102870000D01*
X145370000Y-102870000D02*
X145370000Y-97680000D01*
X145370000Y-104140000D02*
X145370000Y-105520000D01*
X145370000Y-105520000D02*
X143990000Y-105520000D01*
%TO.C,J9*%
X146420000Y-102870000D02*
X146420000Y-97680000D01*
X149180000Y-97680000D02*
X146420000Y-97680000D01*
X149180000Y-102870000D02*
X146420000Y-102870000D01*
X149180000Y-102870000D02*
X149180000Y-97680000D01*
X149180000Y-104140000D02*
X149180000Y-105520000D01*
X149180000Y-105520000D02*
X147800000Y-105520000D01*
%TO.C,R8*%
X121322500Y-92797742D02*
X121322500Y-93272258D01*
X122367500Y-92797742D02*
X122367500Y-93272258D01*
%TO.C,J11*%
X153420000Y-89680000D02*
X154800000Y-89680000D01*
X153420000Y-91060000D02*
X153420000Y-89680000D01*
X153420000Y-92330000D02*
X153420000Y-100060000D01*
X153420000Y-92330000D02*
X156180000Y-92330000D01*
X153420000Y-100060000D02*
X156180000Y-100060000D01*
X156180000Y-92330000D02*
X156180000Y-100060000D01*
%TO.C,R15*%
X112717500Y-92737742D02*
X112717500Y-93212258D01*
X113762500Y-92737742D02*
X113762500Y-93212258D01*
%TO.C,D1*%
X125050000Y-64800000D02*
X125050000Y-70300000D01*
X125050000Y-64800000D02*
X132050000Y-64800000D01*
X125050000Y-70300000D02*
X131600000Y-70300000D01*
X125850000Y-68450000D02*
X125850000Y-66650000D01*
X131250000Y-68450000D02*
X131250000Y-66650000D01*
X131600000Y-70300000D02*
X132050000Y-69850000D01*
X132050000Y-69850000D02*
X132050000Y-64800000D01*
%TO.C,R7*%
X129497500Y-92847742D02*
X129497500Y-93322258D01*
X130542500Y-92847742D02*
X130542500Y-93322258D01*
%TO.C,J7*%
X121620000Y-103470000D02*
X121620000Y-98280000D01*
X124380000Y-98280000D02*
X121620000Y-98280000D01*
X124380000Y-103470000D02*
X121620000Y-103470000D01*
X124380000Y-103470000D02*
X124380000Y-98280000D01*
X124380000Y-104740000D02*
X124380000Y-106120000D01*
X124380000Y-106120000D02*
X123000000Y-106120000D01*
D12*
%TO.C,S1*%
X112400000Y-84300000D02*
X112400000Y-84300000D01*
X112500000Y-84300000D02*
X112500000Y-84300000D01*
X113050000Y-83950000D02*
X119150000Y-83950000D01*
X113050000Y-84900000D02*
X113050000Y-83950000D01*
X113050000Y-86700000D02*
X113050000Y-87650000D01*
X113050000Y-87650000D02*
X119150000Y-87650000D01*
X119150000Y-83950000D02*
X119150000Y-84900000D01*
X119150000Y-87650000D02*
X119150000Y-86700000D01*
X112400000Y-84300000D02*
G75*
G02*
X112500000Y-84300000I50000J0D01*
G01*
X112500000Y-84300000D02*
G75*
G02*
X112400000Y-84300000I-50000J0D01*
G01*
D13*
%TO.C,R16*%
X128977500Y-82962742D02*
X128977500Y-83437258D01*
X130022500Y-82962742D02*
X130022500Y-83437258D01*
%TO.C,J4*%
X125620000Y-103470000D02*
X125620000Y-98280000D01*
X128380000Y-98280000D02*
X125620000Y-98280000D01*
X128380000Y-103470000D02*
X125620000Y-103470000D01*
X128380000Y-103470000D02*
X128380000Y-98280000D01*
X128380000Y-104740000D02*
X128380000Y-106120000D01*
X128380000Y-106120000D02*
X127000000Y-106120000D01*
%TO.C,J3*%
X139000000Y-90220000D02*
X139000000Y-92980000D01*
X146730000Y-90220000D02*
X139000000Y-90220000D01*
X146730000Y-90220000D02*
X146730000Y-92980000D01*
X146730000Y-92980000D02*
X139000000Y-92980000D01*
X148000000Y-90220000D02*
X149380000Y-90220000D01*
X149380000Y-90220000D02*
X149380000Y-91600000D01*
%TO.C,R2*%
X139077500Y-101137742D02*
X139077500Y-101612258D01*
X140122500Y-101137742D02*
X140122500Y-101612258D01*
%TO.C,R17*%
X128077500Y-61412742D02*
X128077500Y-61887258D01*
X129122500Y-61412742D02*
X129122500Y-61887258D01*
%TO.C,C4*%
X123090000Y-61534420D02*
X123090000Y-61815580D01*
X124110000Y-61534420D02*
X124110000Y-61815580D01*
%TD*%
M02*
