%TF.GenerationSoftware,KiCad,Pcbnew,9.0.4*%
%TF.CreationDate,2025-10-06T20:23:03+02:00*%
%TF.ProjectId,onyks-iot-monitor-weather-pcb,6f6e796b-732d-4696-9f74-2d6d6f6e6974,rev?*%
%TF.SameCoordinates,Original*%
%TF.FileFunction,Soldermask,Top*%
%TF.FilePolarity,Negative*%
%FSLAX46Y46*%
G04 Gerber Fmt 4.6, Leading zero omitted, Abs format (unit mm)*
G04 Created by KiCad (PCBNEW 9.0.4) date 2025-10-06 20:23:03*
%MOMM*%
%LPD*%
G01*
G04 APERTURE LIST*
G04 Aperture macros list*
%AMRoundRect*
0 Rectangle with rounded corners*
0 $1 Rounding radius*
0 $2 $3 $4 $5 $6 $7 $8 $9 X,Y pos of 4 corners*
0 Add a 4 corners polygon primitive as box body*
4,1,4,$2,$3,$4,$5,$6,$7,$8,$9,$2,$3,0*
0 Add four circle primitives for the rounded corners*
1,1,$1+$1,$2,$3*
1,1,$1+$1,$4,$5*
1,1,$1+$1,$6,$7*
1,1,$1+$1,$8,$9*
0 Add four rect primitives between the rounded corners*
20,1,$1+$1,$2,$3,$4,$5,0*
20,1,$1+$1,$4,$5,$6,$7,0*
20,1,$1+$1,$6,$7,$8,$9,0*
20,1,$1+$1,$8,$9,$2,$3,0*%
G04 Aperture macros list end*
%ADD10R,2.400000X1.000000*%
%ADD11RoundRect,0.225000X-0.225000X-0.250000X0.225000X-0.250000X0.225000X0.250000X-0.225000X0.250000X0*%
%ADD12RoundRect,0.150000X-0.150000X0.587500X-0.150000X-0.587500X0.150000X-0.587500X0.150000X0.587500X0*%
%ADD13RoundRect,0.225000X-0.250000X0.225000X-0.250000X-0.225000X0.250000X-0.225000X0.250000X0.225000X0*%
%ADD14RoundRect,0.200000X0.275000X-0.200000X0.275000X0.200000X-0.275000X0.200000X-0.275000X-0.200000X0*%
%ADD15R,1.500000X0.900000*%
%ADD16R,0.900000X1.500000*%
%ADD17C,0.600000*%
%ADD18R,3.800000X3.800000*%
%ADD19R,1.700000X1.700000*%
%ADD20C,1.700000*%
%ADD21RoundRect,0.200000X-0.275000X0.200000X-0.275000X-0.200000X0.275000X-0.200000X0.275000X0.200000X0*%
%ADD22RoundRect,0.150000X0.150000X-0.587500X0.150000X0.587500X-0.150000X0.587500X-0.150000X-0.587500X0*%
%ADD23RoundRect,0.225000X0.225000X0.250000X-0.225000X0.250000X-0.225000X-0.250000X0.225000X-0.250000X0*%
%ADD24RoundRect,0.150000X-0.512500X-0.150000X0.512500X-0.150000X0.512500X0.150000X-0.512500X0.150000X0*%
%ADD25RoundRect,0.090000X-0.660000X-0.360000X0.660000X-0.360000X0.660000X0.360000X-0.660000X0.360000X0*%
G04 APERTURE END LIST*
D10*
%TO.C,S2*%
X112800000Y-80000000D03*
X119400000Y-80000000D03*
%TD*%
D11*
%TO.C,C3*%
X117625000Y-64600000D03*
X119175000Y-64600000D03*
%TD*%
D12*
%TO.C,Q4*%
X127900000Y-84000000D03*
X126000000Y-84000000D03*
X126950000Y-85875000D03*
%TD*%
D11*
%TO.C,C6*%
X125325000Y-78000000D03*
X126875000Y-78000000D03*
%TD*%
D13*
%TO.C,C13*%
X130800000Y-60875000D03*
X130800000Y-62425000D03*
%TD*%
D14*
%TO.C,R10*%
X132620000Y-93885000D03*
X132620000Y-92235000D03*
%TD*%
%TO.C,R12*%
X128420000Y-93910000D03*
X128420000Y-92260000D03*
%TD*%
D15*
%TO.C,U5*%
X135500000Y-59610000D03*
X135500000Y-60880000D03*
X135500000Y-62150000D03*
X135500000Y-63420000D03*
X135500000Y-64690000D03*
X135500000Y-65960000D03*
X135500000Y-67230000D03*
X135500000Y-68500000D03*
X135500000Y-69770000D03*
X135500000Y-71040000D03*
X135500000Y-72310000D03*
X135500000Y-73580000D03*
X135500000Y-74850000D03*
X135500000Y-76120000D03*
D16*
X138540000Y-77370000D03*
X139810000Y-77370000D03*
X141080000Y-77370000D03*
X142350000Y-77370000D03*
X143620000Y-77370000D03*
X144890000Y-77370000D03*
X146160000Y-77370000D03*
X147430000Y-77370000D03*
X148700000Y-77370000D03*
X149970000Y-77370000D03*
D15*
X153000000Y-76120000D03*
X153000000Y-74850000D03*
X153000000Y-73580000D03*
X153000000Y-72310000D03*
X153000000Y-71040000D03*
X153000000Y-69770000D03*
X153000000Y-68500000D03*
X153000000Y-67230000D03*
X153000000Y-65960000D03*
X153000000Y-64690000D03*
X153000000Y-63420000D03*
X153000000Y-62150000D03*
X153000000Y-60880000D03*
X153000000Y-59610000D03*
D17*
X141350000Y-66630000D03*
X141350000Y-68030000D03*
X142050000Y-65930000D03*
X142050000Y-67330000D03*
X142050000Y-68730000D03*
X142725000Y-66630000D03*
X142725000Y-68030000D03*
D18*
X142750000Y-67330000D03*
D17*
X143450000Y-65930000D03*
X143450000Y-67330000D03*
X143450000Y-68730000D03*
X144150000Y-66630000D03*
X144150000Y-68030000D03*
%TD*%
D19*
%TO.C,J2*%
X114380000Y-104740000D03*
D20*
X114380000Y-102200000D03*
X114380000Y-99660000D03*
%TD*%
D14*
%TO.C,R4*%
X116200000Y-93920000D03*
X116200000Y-92270000D03*
%TD*%
D21*
%TO.C,R9*%
X117820000Y-92260000D03*
X117820000Y-93910000D03*
%TD*%
D19*
%TO.C,J13*%
X111600000Y-66000000D03*
D20*
X111600000Y-68540000D03*
%TD*%
D21*
%TO.C,R6*%
X125875000Y-92210000D03*
X125875000Y-93860000D03*
%TD*%
D22*
%TO.C,Q3*%
X126000000Y-81800000D03*
X127900000Y-81800000D03*
X126950000Y-79925000D03*
%TD*%
D19*
%TO.C,J6*%
X135400000Y-104740000D03*
D20*
X135400000Y-102200000D03*
X135400000Y-99660000D03*
%TD*%
D11*
%TO.C,C5*%
X125350000Y-87800000D03*
X126900000Y-87800000D03*
%TD*%
D19*
%TO.C,J1*%
X118800000Y-104740000D03*
D20*
X118800000Y-102200000D03*
X118800000Y-99660000D03*
%TD*%
D19*
%TO.C,J5*%
X131200000Y-104740000D03*
D20*
X131200000Y-102200000D03*
X131200000Y-99660000D03*
%TD*%
D14*
%TO.C,R13*%
X120220000Y-93885000D03*
X120220000Y-92235000D03*
%TD*%
D23*
%TO.C,C12*%
X126975000Y-62450000D03*
X125425000Y-62450000D03*
%TD*%
D24*
%TO.C,U1*%
X118125000Y-60900000D03*
X118125000Y-61850000D03*
X118125000Y-62800000D03*
X120400000Y-62800000D03*
X120400000Y-60900000D03*
%TD*%
D21*
%TO.C,R5*%
X134395000Y-92235000D03*
X134395000Y-93885000D03*
%TD*%
D14*
%TO.C,R14*%
X111640000Y-93800000D03*
X111640000Y-92150000D03*
%TD*%
D19*
%TO.C,J14*%
X136060000Y-84540000D03*
D20*
X136060000Y-82000000D03*
X138600000Y-84540000D03*
X138600000Y-82000000D03*
X141140000Y-84540000D03*
X141140000Y-82000000D03*
X143680000Y-84540000D03*
X143680000Y-82000000D03*
X146220000Y-84540000D03*
X146220000Y-82000000D03*
%TD*%
D14*
%TO.C,R11*%
X124250000Y-93860000D03*
X124250000Y-92210000D03*
%TD*%
%TO.C,R1*%
X124300000Y-84025000D03*
X124300000Y-82375000D03*
%TD*%
D19*
%TO.C,J10*%
X114450000Y-74200000D03*
D20*
X116990000Y-74200000D03*
X119530000Y-74200000D03*
X122070000Y-74200000D03*
X124610000Y-74200000D03*
X127150000Y-74200000D03*
%TD*%
D13*
%TO.C,C11*%
X133000000Y-60850000D03*
X133000000Y-62400000D03*
%TD*%
D19*
%TO.C,J8*%
X143990000Y-104140000D03*
D20*
X143990000Y-101600000D03*
X143990000Y-99060000D03*
%TD*%
D19*
%TO.C,J9*%
X147800000Y-104140000D03*
D20*
X147800000Y-101600000D03*
X147800000Y-99060000D03*
%TD*%
D21*
%TO.C,R8*%
X121845000Y-92210000D03*
X121845000Y-93860000D03*
%TD*%
D19*
%TO.C,J11*%
X154800000Y-91060000D03*
D20*
X154800000Y-93600000D03*
X154800000Y-96140000D03*
X154800000Y-98680000D03*
%TD*%
D21*
%TO.C,R15*%
X113240000Y-92150000D03*
X113240000Y-93800000D03*
%TD*%
D25*
%TO.C,D1*%
X126100000Y-65900000D03*
X126100000Y-69200000D03*
X131000000Y-69200000D03*
X131000000Y-65900000D03*
%TD*%
D21*
%TO.C,R7*%
X130020000Y-92260000D03*
X130020000Y-93910000D03*
%TD*%
D19*
%TO.C,J7*%
X123000000Y-104740000D03*
D20*
X123000000Y-102200000D03*
X123000000Y-99660000D03*
%TD*%
D10*
%TO.C,S1*%
X112800000Y-85800000D03*
X119400000Y-85800000D03*
%TD*%
D21*
%TO.C,R16*%
X129500000Y-82375000D03*
X129500000Y-84025000D03*
%TD*%
D19*
%TO.C,J4*%
X127000000Y-104740000D03*
D20*
X127000000Y-102200000D03*
X127000000Y-99660000D03*
%TD*%
D19*
%TO.C,J3*%
X148000000Y-91600000D03*
D20*
X145460000Y-91600000D03*
X142920000Y-91600000D03*
X140380000Y-91600000D03*
%TD*%
D21*
%TO.C,R2*%
X139600000Y-100550000D03*
X139600000Y-102200000D03*
%TD*%
%TO.C,R17*%
X128600000Y-60825000D03*
X128600000Y-62475000D03*
%TD*%
D13*
%TO.C,C4*%
X123600000Y-60900000D03*
X123600000Y-62450000D03*
%TD*%
M02*
