%TF.GenerationSoftware,KiCad,Pcbnew,9.0.4*%
%TF.CreationDate,2025-10-06T20:23:03+02:00*%
%TF.ProjectId,onyks-iot-monitor-weather-pcb,6f6e796b-732d-4696-9f74-2d6d6f6e6974,rev?*%
%TF.SameCoordinates,Original*%
%TF.FileFunction,Soldermask,Bot*%
%TF.FilePolarity,Negative*%
%FSLAX46Y46*%
G04 Gerber Fmt 4.6, Leading zero omitted, Abs format (unit mm)*
G04 Created by KiCad (PCBNEW 9.0.4) date 2025-10-06 20:23:03*
%MOMM*%
%LPD*%
G01*
G04 APERTURE LIST*
%ADD10R,1.700000X1.700000*%
%ADD11C,1.700000*%
G04 APERTURE END LIST*
D10*
%TO.C,J2*%
X114380000Y-104740000D03*
D11*
X114380000Y-102200000D03*
X114380000Y-99660000D03*
%TD*%
D10*
%TO.C,J13*%
X111600000Y-66000000D03*
D11*
X111600000Y-68540000D03*
%TD*%
D10*
%TO.C,J6*%
X135400000Y-104740000D03*
D11*
X135400000Y-102200000D03*
X135400000Y-99660000D03*
%TD*%
D10*
%TO.C,J1*%
X118800000Y-104740000D03*
D11*
X118800000Y-102200000D03*
X118800000Y-99660000D03*
%TD*%
D10*
%TO.C,J5*%
X131200000Y-104740000D03*
D11*
X131200000Y-102200000D03*
X131200000Y-99660000D03*
%TD*%
D10*
%TO.C,J14*%
X136060000Y-84540000D03*
D11*
X136060000Y-82000000D03*
X138600000Y-84540000D03*
X138600000Y-82000000D03*
X141140000Y-84540000D03*
X141140000Y-82000000D03*
X143680000Y-84540000D03*
X143680000Y-82000000D03*
X146220000Y-84540000D03*
X146220000Y-82000000D03*
%TD*%
D10*
%TO.C,J10*%
X114450000Y-74200000D03*
D11*
X116990000Y-74200000D03*
X119530000Y-74200000D03*
X122070000Y-74200000D03*
X124610000Y-74200000D03*
X127150000Y-74200000D03*
%TD*%
D10*
%TO.C,J8*%
X143990000Y-104140000D03*
D11*
X143990000Y-101600000D03*
X143990000Y-99060000D03*
%TD*%
D10*
%TO.C,J9*%
X147800000Y-104140000D03*
D11*
X147800000Y-101600000D03*
X147800000Y-99060000D03*
%TD*%
D10*
%TO.C,J11*%
X154800000Y-91060000D03*
D11*
X154800000Y-93600000D03*
X154800000Y-96140000D03*
X154800000Y-98680000D03*
%TD*%
D10*
%TO.C,J7*%
X123000000Y-104740000D03*
D11*
X123000000Y-102200000D03*
X123000000Y-99660000D03*
%TD*%
D10*
%TO.C,J4*%
X127000000Y-104740000D03*
D11*
X127000000Y-102200000D03*
X127000000Y-99660000D03*
%TD*%
D10*
%TO.C,J3*%
X148000000Y-91600000D03*
D11*
X145460000Y-91600000D03*
X142920000Y-91600000D03*
X140380000Y-91600000D03*
%TD*%
M02*
