%TF.GenerationSoftware,KiCad,Pcbnew,9.0.4*%
%TF.CreationDate,2025-10-06T20:23:03+02:00*%
%TF.ProjectId,onyks-iot-monitor-weather-pcb,6f6e796b-732d-4696-9f74-2d6d6f6e6974,rev?*%
%TF.SameCoordinates,Original*%
%TF.FileFunction,Copper,L3,Inr*%
%TF.FilePolarity,Positive*%
%FSLAX46Y46*%
G04 Gerber Fmt 4.6, Leading zero omitted, Abs format (unit mm)*
G04 Created by KiCad (PCBNEW 9.0.4) date 2025-10-06 20:23:03*
%MOMM*%
%LPD*%
G01*
G04 APERTURE LIST*
%TA.AperFunction,HeatsinkPad*%
%ADD10C,0.600000*%
%TD*%
%TA.AperFunction,ComponentPad*%
%ADD11R,1.700000X1.700000*%
%TD*%
%TA.AperFunction,ComponentPad*%
%ADD12C,1.700000*%
%TD*%
%TA.AperFunction,ViaPad*%
%ADD13C,0.800000*%
%TD*%
G04 APERTURE END LIST*
D10*
%TO.N,GND*%
%TO.C,U5*%
X141350000Y-66630000D03*
X141350000Y-68030000D03*
X142050000Y-65930000D03*
X142050000Y-67330000D03*
X142050000Y-68730000D03*
X142725000Y-66630000D03*
X142725000Y-68030000D03*
X143450000Y-65930000D03*
X143450000Y-67330000D03*
X143450000Y-68730000D03*
X144150000Y-66630000D03*
X144150000Y-68030000D03*
%TD*%
D11*
%TO.N,VCC*%
%TO.C,J2*%
X114380000Y-104740000D03*
D12*
%TO.N,GND*%
X114380000Y-102200000D03*
%TO.N,Net-(J2-Pin_3)*%
X114380000Y-99660000D03*
%TD*%
D11*
%TO.N,VCC*%
%TO.C,J13*%
X111600000Y-66000000D03*
D12*
%TO.N,GND*%
X111600000Y-68540000D03*
%TD*%
D11*
%TO.N,VCC*%
%TO.C,J6*%
X135400000Y-104740000D03*
D12*
%TO.N,GND*%
X135400000Y-102200000D03*
%TO.N,Net-(J6-Pin_3)*%
X135400000Y-99660000D03*
%TD*%
D11*
%TO.N,VCC*%
%TO.C,J1*%
X118800000Y-104740000D03*
D12*
%TO.N,GND*%
X118800000Y-102200000D03*
%TO.N,Net-(J1-Pin_3)*%
X118800000Y-99660000D03*
%TD*%
D11*
%TO.N,VCC*%
%TO.C,J5*%
X131200000Y-104740000D03*
D12*
%TO.N,GND*%
X131200000Y-102200000D03*
%TO.N,Net-(J5-Pin_3)*%
X131200000Y-99660000D03*
%TD*%
D11*
%TO.N,+3.3V*%
%TO.C,J14*%
X136060000Y-84540000D03*
D12*
%TO.N,/ESP32/MTMS*%
X136060000Y-82000000D03*
%TO.N,GND*%
X138600000Y-84540000D03*
%TO.N,/ESP32/MTCK*%
X138600000Y-82000000D03*
%TO.N,GND*%
X141140000Y-84540000D03*
%TO.N,/ESP32/MTDO*%
X141140000Y-82000000D03*
%TO.N,unconnected-(J14-Pin_7-Pad7)*%
X143680000Y-84540000D03*
%TO.N,/ESP32/MTDI*%
X143680000Y-82000000D03*
%TO.N,GND*%
X146220000Y-84540000D03*
X146220000Y-82000000D03*
%TD*%
D11*
%TO.N,+3.3V*%
%TO.C,J10*%
X114450000Y-74200000D03*
D12*
%TO.N,GND*%
X116990000Y-74200000D03*
%TO.N,/ESP32/UART_PROGRAM_RXD*%
X119530000Y-74200000D03*
%TO.N,/ESP32/UART_PROGRAM_TXD*%
X122070000Y-74200000D03*
%TO.N,/ESP32/UART_PROGRAM_DTR*%
X124610000Y-74200000D03*
%TO.N,/ESP32/UART_PROGRAM_RTS*%
X127150000Y-74200000D03*
%TD*%
D11*
%TO.N,VCC*%
%TO.C,J8*%
X143990000Y-104140000D03*
D12*
%TO.N,GND*%
X143990000Y-101600000D03*
%TO.N,/ESP32/IO4*%
X143990000Y-99060000D03*
%TD*%
D11*
%TO.N,VCC*%
%TO.C,J9*%
X147800000Y-104140000D03*
D12*
%TO.N,GND*%
X147800000Y-101600000D03*
%TO.N,/ESP32/IO5*%
X147800000Y-99060000D03*
%TD*%
D11*
%TO.N,+3.3V*%
%TO.C,J11*%
X154800000Y-91060000D03*
D12*
%TO.N,GND*%
X154800000Y-93600000D03*
%TO.N,/ESP32/SDA*%
X154800000Y-96140000D03*
%TO.N,/ESP32/SCL*%
X154800000Y-98680000D03*
%TD*%
D11*
%TO.N,VCC*%
%TO.C,J7*%
X123000000Y-104740000D03*
D12*
%TO.N,GND*%
X123000000Y-102200000D03*
%TO.N,Net-(J7-Pin_3)*%
X123000000Y-99660000D03*
%TD*%
D11*
%TO.N,VCC*%
%TO.C,J4*%
X127000000Y-104740000D03*
D12*
%TO.N,GND*%
X127000000Y-102200000D03*
%TO.N,Net-(J4-Pin_3)*%
X127000000Y-99660000D03*
%TD*%
D11*
%TO.N,/ESP32/IO22*%
%TO.C,J3*%
X148000000Y-91600000D03*
D12*
%TO.N,/ESP32/IO2*%
X145460000Y-91600000D03*
%TO.N,GND*%
X142920000Y-91600000D03*
%TO.N,+3.3V*%
X140380000Y-91600000D03*
%TD*%
D13*
%TO.N,/ESP32/UART_PROGRAM_RXD*%
X154800000Y-64600000D03*
%TO.N,GND*%
X125400000Y-63800000D03*
X131800000Y-62400000D03*
X134000000Y-59600000D03*
X154600000Y-59600000D03*
X122200000Y-62400000D03*
X138600000Y-78800000D03*
X116800000Y-61800000D03*
X119750000Y-61850000D03*
X129800000Y-62400000D03*
X131000000Y-67400000D03*
%TO.N,/ESP32/IO0*%
X129200000Y-85800000D03*
X153000000Y-77600000D03*
%TO.N,/ESP32/IO22*%
X154400000Y-62200000D03*
%TO.N,/ESP32/IO4*%
X154400000Y-75000000D03*
%TO.N,/ESP32/IO5*%
X154400000Y-71200000D03*
%TO.N,/ESP32/UART_PROGRAM_DTR*%
X122400000Y-84000000D03*
%TO.N,/ESP32/UART_PROGRAM_RTS*%
X129600000Y-80400000D03*
%TO.N,/ESP32/UART_PROGRAM_TXD*%
X154600000Y-63400000D03*
%TO.N,/ESP32/MTDI*%
X135400000Y-79200000D03*
%TO.N,/ESP32/IO32*%
X117760000Y-90650000D03*
X134000000Y-68600000D03*
%TO.N,/ESP32/IO27*%
X134000000Y-73600000D03*
X134160000Y-90650000D03*
%TO.N,/ESP32/IO25*%
X125760000Y-90850000D03*
X134000000Y-71000000D03*
%TO.N,/ESP32/IO26*%
X134000000Y-72400000D03*
X129960000Y-90850000D03*
%TO.N,/ESP32/IO33*%
X134000000Y-69800000D03*
X121760000Y-90650000D03*
%TO.N,/ESP32/SDA*%
X156200000Y-66200000D03*
%TO.N,/ESP32/SCL*%
X154400000Y-68600000D03*
%TO.N,+3.3V*%
X120000000Y-59600000D03*
X121000000Y-59600000D03*
%TO.N,/ESP32/IO35*%
X113200000Y-90600000D03*
X134000000Y-67200000D03*
%TD*%
%TA.AperFunction,Conductor*%
%TO.N,+3.3V*%
G36*
X157542539Y-58420185D02*
G01*
X157588294Y-58472989D01*
X157599500Y-58524500D01*
X157599500Y-108275500D01*
X157579815Y-108342539D01*
X157527011Y-108388294D01*
X157475500Y-108399500D01*
X150324000Y-108399500D01*
X150256961Y-108379815D01*
X150211206Y-108327011D01*
X150200000Y-108275500D01*
X150200000Y-105285258D01*
X152849500Y-105285258D01*
X152849500Y-105514741D01*
X152879452Y-105742238D01*
X152888711Y-105776797D01*
X152890515Y-105783530D01*
X152891484Y-105789958D01*
X152897221Y-105808557D01*
X152897821Y-105810796D01*
X152897825Y-105810810D01*
X152938843Y-105963890D01*
X152961266Y-106018024D01*
X152961267Y-106018025D01*
X152963486Y-106023383D01*
X152968687Y-106040243D01*
X152981429Y-106066702D01*
X152982764Y-106069925D01*
X152982764Y-106069927D01*
X153026655Y-106175887D01*
X153026660Y-106175896D01*
X153068669Y-106248657D01*
X153069624Y-106250311D01*
X153070988Y-106252674D01*
X153082331Y-106276227D01*
X153097054Y-106297822D01*
X153099374Y-106301840D01*
X153099374Y-106301842D01*
X153141390Y-106374613D01*
X153211209Y-106465604D01*
X153211210Y-106465604D01*
X153213328Y-106468365D01*
X153229877Y-106492637D01*
X153241877Y-106505570D01*
X153245403Y-106510165D01*
X153245404Y-106510168D01*
X153274891Y-106548595D01*
X153281081Y-106556661D01*
X153393132Y-106668712D01*
X153394780Y-106670360D01*
X153408029Y-106684639D01*
X153413114Y-106688694D01*
X153439764Y-106715344D01*
X153443338Y-106718918D01*
X153625382Y-106858607D01*
X153625385Y-106858608D01*
X153625388Y-106858611D01*
X153824112Y-106973344D01*
X153824114Y-106973344D01*
X153824118Y-106973347D01*
X154001477Y-107046811D01*
X154036113Y-107061158D01*
X154077401Y-107072221D01*
X154083455Y-107074597D01*
X154102443Y-107078930D01*
X154257762Y-107120548D01*
X154321613Y-107128954D01*
X154338810Y-107132880D01*
X154368101Y-107135074D01*
X154485266Y-107150500D01*
X154485267Y-107150500D01*
X154573926Y-107150500D01*
X154600000Y-107152454D01*
X154626074Y-107150500D01*
X154714733Y-107150500D01*
X154714734Y-107150500D01*
X154831898Y-107135074D01*
X154861190Y-107132880D01*
X154878387Y-107128954D01*
X154942238Y-107120548D01*
X155097566Y-107078928D01*
X155116545Y-107074597D01*
X155122592Y-107072222D01*
X155163880Y-107061160D01*
X155163884Y-107061159D01*
X155163884Y-107061158D01*
X155163887Y-107061158D01*
X155375888Y-106973344D01*
X155574612Y-106858611D01*
X155756661Y-106718919D01*
X155786889Y-106688690D01*
X155791971Y-106684639D01*
X155805206Y-106670373D01*
X155918919Y-106556661D01*
X155958126Y-106505565D01*
X155970123Y-106492637D01*
X155986661Y-106468377D01*
X156058611Y-106374612D01*
X156102950Y-106297814D01*
X156117669Y-106276227D01*
X156129006Y-106252683D01*
X156173344Y-106175888D01*
X156218573Y-106066693D01*
X156231313Y-106040243D01*
X156236510Y-106023391D01*
X156261158Y-105963887D01*
X156302778Y-105808554D01*
X156308516Y-105789958D01*
X156309485Y-105783524D01*
X156320548Y-105742238D01*
X156350500Y-105514734D01*
X156350500Y-105285266D01*
X156320548Y-105057762D01*
X156309485Y-105016474D01*
X156308516Y-105010042D01*
X156302776Y-104991438D01*
X156261158Y-104836113D01*
X156236511Y-104776610D01*
X156231313Y-104759757D01*
X156218569Y-104733295D01*
X156173344Y-104624112D01*
X156173341Y-104624108D01*
X156173338Y-104624100D01*
X156142853Y-104571300D01*
X156129008Y-104547319D01*
X156117669Y-104523773D01*
X156102949Y-104502185D01*
X156058611Y-104425388D01*
X156058603Y-104425378D01*
X155988792Y-104334399D01*
X155986666Y-104331628D01*
X155970123Y-104307363D01*
X155958119Y-104294426D01*
X155918919Y-104243339D01*
X155805219Y-104129639D01*
X155791971Y-104115361D01*
X155786885Y-104111305D01*
X155781965Y-104106385D01*
X155756661Y-104081081D01*
X155574617Y-103941392D01*
X155375890Y-103826657D01*
X155375876Y-103826650D01*
X155163887Y-103738842D01*
X155163883Y-103738841D01*
X155163879Y-103738840D01*
X155160704Y-103737989D01*
X155129323Y-103729580D01*
X155129323Y-103729579D01*
X155122587Y-103727774D01*
X155116545Y-103725403D01*
X155097571Y-103721072D01*
X155095334Y-103720473D01*
X155095321Y-103720470D01*
X155092936Y-103719831D01*
X154942238Y-103679452D01*
X154942232Y-103679451D01*
X154942231Y-103679451D01*
X154884143Y-103671803D01*
X154884143Y-103671802D01*
X154878378Y-103671043D01*
X154861190Y-103667120D01*
X154831900Y-103664925D01*
X154828443Y-103664470D01*
X154714743Y-103649501D01*
X154714740Y-103649500D01*
X154714734Y-103649500D01*
X154626062Y-103649500D01*
X154600000Y-103647547D01*
X154573938Y-103649500D01*
X154485264Y-103649500D01*
X154371555Y-103664468D01*
X154371556Y-103664469D01*
X154368080Y-103664926D01*
X154338810Y-103667120D01*
X154321627Y-103671041D01*
X154315868Y-103671800D01*
X154315860Y-103671802D01*
X154257767Y-103679451D01*
X154257753Y-103679454D01*
X154104682Y-103720467D01*
X154104683Y-103720468D01*
X154102420Y-103721074D01*
X154083455Y-103725403D01*
X154077406Y-103727776D01*
X154070681Y-103729579D01*
X154070679Y-103729578D01*
X154036116Y-103738840D01*
X153824118Y-103826653D01*
X153824109Y-103826657D01*
X153625387Y-103941389D01*
X153443334Y-104081084D01*
X153443331Y-104081087D01*
X153418028Y-104106389D01*
X153413099Y-104111317D01*
X153408029Y-104115361D01*
X153394818Y-104129598D01*
X153393150Y-104131267D01*
X153281086Y-104243332D01*
X153281081Y-104243338D01*
X153245405Y-104289830D01*
X153241866Y-104294441D01*
X153229877Y-104307363D01*
X153213342Y-104331614D01*
X153211209Y-104334395D01*
X153141395Y-104425378D01*
X153141388Y-104425389D01*
X153099376Y-104498156D01*
X153099375Y-104498155D01*
X153097041Y-104502196D01*
X153082331Y-104523773D01*
X153070998Y-104547306D01*
X153068672Y-104551335D01*
X153068668Y-104551344D01*
X153026657Y-104624110D01*
X153026653Y-104624118D01*
X152982762Y-104730076D01*
X152981418Y-104733320D01*
X152968687Y-104759757D01*
X152963489Y-104776605D01*
X152961268Y-104781970D01*
X152961267Y-104781972D01*
X152938844Y-104836105D01*
X152897821Y-104989202D01*
X152897820Y-104989201D01*
X152897207Y-104991485D01*
X152891484Y-105010042D01*
X152890516Y-105016462D01*
X152888712Y-105023197D01*
X152879456Y-105057743D01*
X152879452Y-105057763D01*
X152849500Y-105285258D01*
X150200000Y-105285258D01*
X150200000Y-98576530D01*
X153749500Y-98576530D01*
X153749500Y-98783469D01*
X153789868Y-98986412D01*
X153789870Y-98986420D01*
X153869058Y-99177596D01*
X153984024Y-99349657D01*
X154130342Y-99495975D01*
X154130345Y-99495977D01*
X154302402Y-99610941D01*
X154493580Y-99690130D01*
X154692287Y-99729655D01*
X154696530Y-99730499D01*
X154696534Y-99730500D01*
X154696535Y-99730500D01*
X154903466Y-99730500D01*
X154903467Y-99730499D01*
X155106420Y-99690130D01*
X155297598Y-99610941D01*
X155469655Y-99495977D01*
X155615977Y-99349655D01*
X155730941Y-99177598D01*
X155810130Y-98986420D01*
X155850500Y-98783465D01*
X155850500Y-98576535D01*
X155810130Y-98373580D01*
X155730941Y-98182402D01*
X155615977Y-98010345D01*
X155615975Y-98010342D01*
X155469657Y-97864024D01*
X155383626Y-97806541D01*
X155297598Y-97749059D01*
X155106420Y-97669870D01*
X155106412Y-97669868D01*
X154903469Y-97629500D01*
X154903465Y-97629500D01*
X154696535Y-97629500D01*
X154696530Y-97629500D01*
X154493587Y-97669868D01*
X154493579Y-97669870D01*
X154302403Y-97749058D01*
X154130342Y-97864024D01*
X153984024Y-98010342D01*
X153869058Y-98182403D01*
X153789870Y-98373579D01*
X153789868Y-98373587D01*
X153749500Y-98576530D01*
X150200000Y-98576530D01*
X150200000Y-97000000D01*
X112924000Y-97000000D01*
X112856961Y-96980315D01*
X112811206Y-96927511D01*
X112800000Y-96876000D01*
X112800000Y-96036530D01*
X153749500Y-96036530D01*
X153749500Y-96243469D01*
X153789868Y-96446412D01*
X153789870Y-96446420D01*
X153869058Y-96637596D01*
X153984024Y-96809657D01*
X154130342Y-96955975D01*
X154130345Y-96955977D01*
X154302402Y-97070941D01*
X154493580Y-97150130D01*
X154696530Y-97190499D01*
X154696534Y-97190500D01*
X154696535Y-97190500D01*
X154903466Y-97190500D01*
X154903467Y-97190499D01*
X155106420Y-97150130D01*
X155297598Y-97070941D01*
X155469655Y-96955977D01*
X155615977Y-96809655D01*
X155730941Y-96637598D01*
X155810130Y-96446420D01*
X155850500Y-96243465D01*
X155850500Y-96036535D01*
X155810130Y-95833580D01*
X155730941Y-95642402D01*
X155615977Y-95470345D01*
X155615975Y-95470342D01*
X155469657Y-95324024D01*
X155383626Y-95266541D01*
X155297598Y-95209059D01*
X155106420Y-95129870D01*
X155106412Y-95129868D01*
X154903469Y-95089500D01*
X154903465Y-95089500D01*
X154696535Y-95089500D01*
X154696530Y-95089500D01*
X154493587Y-95129868D01*
X154493579Y-95129870D01*
X154302403Y-95209058D01*
X154130342Y-95324024D01*
X153984024Y-95470342D01*
X153869058Y-95642403D01*
X153789870Y-95833579D01*
X153789868Y-95833587D01*
X153749500Y-96036530D01*
X112800000Y-96036530D01*
X112800000Y-91493753D01*
X139030000Y-91493753D01*
X139030000Y-91706246D01*
X139063242Y-91916127D01*
X139063242Y-91916130D01*
X139128904Y-92118217D01*
X139225375Y-92307550D01*
X139264728Y-92361716D01*
X139897037Y-91729408D01*
X139914075Y-91792993D01*
X139979901Y-91907007D01*
X140072993Y-92000099D01*
X140187007Y-92065925D01*
X140250590Y-92082962D01*
X139618282Y-92715269D01*
X139618282Y-92715270D01*
X139672449Y-92754624D01*
X139861782Y-92851095D01*
X140063870Y-92916757D01*
X140273754Y-92950000D01*
X140486246Y-92950000D01*
X140696127Y-92916757D01*
X140696130Y-92916757D01*
X140898217Y-92851095D01*
X141087554Y-92754622D01*
X141141716Y-92715270D01*
X141141717Y-92715270D01*
X140509408Y-92082962D01*
X140572993Y-92065925D01*
X140687007Y-92000099D01*
X140780099Y-91907007D01*
X140845925Y-91792993D01*
X140862962Y-91729408D01*
X141495270Y-92361717D01*
X141495270Y-92361716D01*
X141534622Y-92307554D01*
X141631095Y-92118217D01*
X141688343Y-91942026D01*
X141727780Y-91884351D01*
X141792139Y-91857152D01*
X141860985Y-91869066D01*
X141912461Y-91916310D01*
X141920835Y-91932891D01*
X141975939Y-92065925D01*
X141989059Y-92097598D01*
X142025471Y-92152093D01*
X142104024Y-92269657D01*
X142250342Y-92415975D01*
X142250345Y-92415977D01*
X142422402Y-92530941D01*
X142613580Y-92610130D01*
X142758052Y-92638867D01*
X142816530Y-92650499D01*
X142816534Y-92650500D01*
X142816535Y-92650500D01*
X143023466Y-92650500D01*
X143023467Y-92650499D01*
X143226420Y-92610130D01*
X143417598Y-92530941D01*
X143589655Y-92415977D01*
X143735977Y-92269655D01*
X143850941Y-92097598D01*
X143930130Y-91906420D01*
X143970500Y-91703465D01*
X143970500Y-91496535D01*
X143970499Y-91496530D01*
X144409500Y-91496530D01*
X144409500Y-91703469D01*
X144449868Y-91906412D01*
X144449870Y-91906420D01*
X144515939Y-92065925D01*
X144529059Y-92097598D01*
X144565471Y-92152093D01*
X144644024Y-92269657D01*
X144790342Y-92415975D01*
X144790345Y-92415977D01*
X144962402Y-92530941D01*
X145153580Y-92610130D01*
X145298052Y-92638867D01*
X145356530Y-92650499D01*
X145356534Y-92650500D01*
X145356535Y-92650500D01*
X145563466Y-92650500D01*
X145563467Y-92650499D01*
X145766420Y-92610130D01*
X145957598Y-92530941D01*
X146129655Y-92415977D01*
X146275977Y-92269655D01*
X146390941Y-92097598D01*
X146470130Y-91906420D01*
X146510500Y-91703465D01*
X146510500Y-91496535D01*
X146470130Y-91293580D01*
X146390941Y-91102402D01*
X146275977Y-90930345D01*
X146275975Y-90930342D01*
X146129657Y-90784024D01*
X146049173Y-90730247D01*
X146949500Y-90730247D01*
X146949500Y-92469752D01*
X146961131Y-92528229D01*
X146961132Y-92528230D01*
X147005447Y-92594552D01*
X147071769Y-92638867D01*
X147071770Y-92638868D01*
X147130247Y-92650499D01*
X147130250Y-92650500D01*
X147130252Y-92650500D01*
X148869750Y-92650500D01*
X148869751Y-92650499D01*
X148884568Y-92647552D01*
X148928229Y-92638868D01*
X148928229Y-92638867D01*
X148928231Y-92638867D01*
X148994552Y-92594552D01*
X149038867Y-92528231D01*
X149038867Y-92528229D01*
X149038868Y-92528229D01*
X149050499Y-92469752D01*
X149050500Y-92469750D01*
X149050500Y-90730249D01*
X149050499Y-90730247D01*
X149038868Y-90671770D01*
X149038867Y-90671769D01*
X148994552Y-90605447D01*
X148928230Y-90561132D01*
X148928229Y-90561131D01*
X148869752Y-90549500D01*
X148869748Y-90549500D01*
X147130252Y-90549500D01*
X147130247Y-90549500D01*
X147071770Y-90561131D01*
X147071769Y-90561132D01*
X147005447Y-90605447D01*
X146961132Y-90671769D01*
X146961131Y-90671770D01*
X146949500Y-90730247D01*
X146049173Y-90730247D01*
X145972561Y-90679057D01*
X145957598Y-90669059D01*
X145956777Y-90668719D01*
X145766420Y-90589870D01*
X145766412Y-90589868D01*
X145563469Y-90549500D01*
X145563465Y-90549500D01*
X145356535Y-90549500D01*
X145356530Y-90549500D01*
X145153587Y-90589868D01*
X145153579Y-90589870D01*
X144962403Y-90669058D01*
X144790342Y-90784024D01*
X144644024Y-90930342D01*
X144529058Y-91102403D01*
X144449870Y-91293579D01*
X144449868Y-91293587D01*
X144409500Y-91496530D01*
X143970499Y-91496530D01*
X143930130Y-91293580D01*
X143850941Y-91102402D01*
X143735977Y-90930345D01*
X143735975Y-90930342D01*
X143589657Y-90784024D01*
X143432561Y-90679057D01*
X143417598Y-90669059D01*
X143416777Y-90668719D01*
X143226420Y-90589870D01*
X143226412Y-90589868D01*
X143023469Y-90549500D01*
X143023465Y-90549500D01*
X142816535Y-90549500D01*
X142816530Y-90549500D01*
X142613587Y-90589868D01*
X142613579Y-90589870D01*
X142422403Y-90669058D01*
X142250342Y-90784024D01*
X142104024Y-90930342D01*
X141989057Y-91102403D01*
X141920835Y-91267108D01*
X141876994Y-91321511D01*
X141810700Y-91343576D01*
X141743000Y-91326297D01*
X141695390Y-91275159D01*
X141688343Y-91257973D01*
X141631095Y-91081782D01*
X141534624Y-90892449D01*
X141495270Y-90838282D01*
X141495269Y-90838282D01*
X140862962Y-91470590D01*
X140845925Y-91407007D01*
X140780099Y-91292993D01*
X140687007Y-91199901D01*
X140572993Y-91134075D01*
X140509409Y-91117037D01*
X141141716Y-90484728D01*
X141087550Y-90445375D01*
X140898217Y-90348904D01*
X140696129Y-90283242D01*
X140684017Y-90281324D01*
X140486246Y-90250000D01*
X140273754Y-90250000D01*
X140063872Y-90283242D01*
X140063869Y-90283242D01*
X139861782Y-90348904D01*
X139672439Y-90445380D01*
X139618282Y-90484727D01*
X139618282Y-90484728D01*
X140250591Y-91117037D01*
X140187007Y-91134075D01*
X140072993Y-91199901D01*
X139979901Y-91292993D01*
X139914075Y-91407007D01*
X139897037Y-91470591D01*
X139264728Y-90838282D01*
X139264727Y-90838282D01*
X139225380Y-90892439D01*
X139128904Y-91081782D01*
X139063242Y-91283869D01*
X139063242Y-91283872D01*
X139030000Y-91493753D01*
X112800000Y-91493753D01*
X112800000Y-91275478D01*
X112819685Y-91208439D01*
X112872489Y-91162684D01*
X112941647Y-91152740D01*
X112960264Y-91157848D01*
X112960365Y-91157473D01*
X112968214Y-91159576D01*
X112968216Y-91159577D01*
X113120943Y-91200500D01*
X113120945Y-91200500D01*
X113279055Y-91200500D01*
X113279057Y-91200500D01*
X113431784Y-91159577D01*
X113568716Y-91080520D01*
X113680520Y-90968716D01*
X113759577Y-90831784D01*
X113800500Y-90679057D01*
X113800500Y-90570943D01*
X117159500Y-90570943D01*
X117159500Y-90729057D01*
X117187026Y-90831783D01*
X117200423Y-90881783D01*
X117200426Y-90881790D01*
X117279475Y-91018709D01*
X117279479Y-91018714D01*
X117279480Y-91018716D01*
X117391284Y-91130520D01*
X117391286Y-91130521D01*
X117391290Y-91130524D01*
X117512492Y-91200499D01*
X117528216Y-91209577D01*
X117680943Y-91250500D01*
X117680945Y-91250500D01*
X117839055Y-91250500D01*
X117839057Y-91250500D01*
X117991784Y-91209577D01*
X118128716Y-91130520D01*
X118240520Y-91018716D01*
X118319577Y-90881784D01*
X118360500Y-90729057D01*
X118360500Y-90570943D01*
X121159500Y-90570943D01*
X121159500Y-90729057D01*
X121187026Y-90831783D01*
X121200423Y-90881783D01*
X121200426Y-90881790D01*
X121279475Y-91018709D01*
X121279479Y-91018714D01*
X121279480Y-91018716D01*
X121391284Y-91130520D01*
X121391286Y-91130521D01*
X121391290Y-91130524D01*
X121512492Y-91200499D01*
X121528216Y-91209577D01*
X121680943Y-91250500D01*
X121680945Y-91250500D01*
X121839055Y-91250500D01*
X121839057Y-91250500D01*
X121991784Y-91209577D01*
X122128716Y-91130520D01*
X122240520Y-91018716D01*
X122319577Y-90881784D01*
X122349277Y-90770943D01*
X125159500Y-90770943D01*
X125159500Y-90929057D01*
X125200423Y-91081782D01*
X125200423Y-91081783D01*
X125200426Y-91081790D01*
X125279475Y-91218709D01*
X125279479Y-91218714D01*
X125279480Y-91218716D01*
X125391284Y-91330520D01*
X125391286Y-91330521D01*
X125391290Y-91330524D01*
X125528209Y-91409573D01*
X125528216Y-91409577D01*
X125680943Y-91450500D01*
X125680945Y-91450500D01*
X125839055Y-91450500D01*
X125839057Y-91450500D01*
X125991784Y-91409577D01*
X126128716Y-91330520D01*
X126240520Y-91218716D01*
X126319577Y-91081784D01*
X126360500Y-90929057D01*
X126360500Y-90770943D01*
X129359500Y-90770943D01*
X129359500Y-90929057D01*
X129400423Y-91081782D01*
X129400423Y-91081783D01*
X129400426Y-91081790D01*
X129479475Y-91218709D01*
X129479479Y-91218714D01*
X129479480Y-91218716D01*
X129591284Y-91330520D01*
X129591286Y-91330521D01*
X129591290Y-91330524D01*
X129728209Y-91409573D01*
X129728216Y-91409577D01*
X129880943Y-91450500D01*
X129880945Y-91450500D01*
X130039055Y-91450500D01*
X130039057Y-91450500D01*
X130191784Y-91409577D01*
X130240427Y-91381492D01*
X130240430Y-91381492D01*
X130328709Y-91330524D01*
X130328708Y-91330524D01*
X130328716Y-91330520D01*
X130440520Y-91218716D01*
X130519577Y-91081784D01*
X130560500Y-90929057D01*
X130560500Y-90770943D01*
X130519577Y-90618216D01*
X130512205Y-90605448D01*
X130492284Y-90570943D01*
X133559500Y-90570943D01*
X133559500Y-90729057D01*
X133587026Y-90831783D01*
X133600423Y-90881783D01*
X133600426Y-90881790D01*
X133679475Y-91018709D01*
X133679479Y-91018714D01*
X133679480Y-91018716D01*
X133791284Y-91130520D01*
X133791286Y-91130521D01*
X133791290Y-91130524D01*
X133912492Y-91200499D01*
X133928216Y-91209577D01*
X134080943Y-91250500D01*
X134080945Y-91250500D01*
X134239055Y-91250500D01*
X134239057Y-91250500D01*
X134391784Y-91209577D01*
X134528716Y-91130520D01*
X134640520Y-91018716D01*
X134719577Y-90881784D01*
X134760500Y-90729057D01*
X134760500Y-90570943D01*
X134719577Y-90418216D01*
X134694403Y-90374613D01*
X134640524Y-90281290D01*
X134640518Y-90281282D01*
X134528717Y-90169481D01*
X134528709Y-90169475D01*
X134391790Y-90090426D01*
X134391786Y-90090424D01*
X134391784Y-90090423D01*
X134239057Y-90049500D01*
X134080943Y-90049500D01*
X133928216Y-90090423D01*
X133928209Y-90090426D01*
X133791290Y-90169475D01*
X133791282Y-90169481D01*
X133679481Y-90281282D01*
X133679475Y-90281290D01*
X133600426Y-90418209D01*
X133600423Y-90418216D01*
X133559500Y-90570943D01*
X130492284Y-90570943D01*
X130440522Y-90481287D01*
X130440518Y-90481282D01*
X130328717Y-90369481D01*
X130328709Y-90369475D01*
X130191790Y-90290426D01*
X130191786Y-90290424D01*
X130191784Y-90290423D01*
X130039057Y-90249500D01*
X129880943Y-90249500D01*
X129728216Y-90290423D01*
X129728209Y-90290426D01*
X129591290Y-90369475D01*
X129591282Y-90369481D01*
X129479481Y-90481282D01*
X129479475Y-90481290D01*
X129400426Y-90618209D01*
X129400426Y-90618210D01*
X129400423Y-90618216D01*
X129359500Y-90770943D01*
X126360500Y-90770943D01*
X126319577Y-90618216D01*
X126319573Y-90618209D01*
X126240524Y-90481290D01*
X126240518Y-90481282D01*
X126128717Y-90369481D01*
X126128709Y-90369475D01*
X125991790Y-90290426D01*
X125991786Y-90290424D01*
X125991784Y-90290423D01*
X125839057Y-90249500D01*
X125680943Y-90249500D01*
X125528216Y-90290423D01*
X125528209Y-90290426D01*
X125391290Y-90369475D01*
X125391282Y-90369481D01*
X125279481Y-90481282D01*
X125279475Y-90481290D01*
X125200426Y-90618209D01*
X125200426Y-90618210D01*
X125200423Y-90618216D01*
X125159500Y-90770943D01*
X122349277Y-90770943D01*
X122360500Y-90729057D01*
X122360500Y-90570943D01*
X122319577Y-90418216D01*
X122294403Y-90374613D01*
X122240524Y-90281290D01*
X122240518Y-90281282D01*
X122128717Y-90169481D01*
X122128709Y-90169475D01*
X121991790Y-90090426D01*
X121991786Y-90090424D01*
X121991784Y-90090423D01*
X121839057Y-90049500D01*
X121680943Y-90049500D01*
X121528216Y-90090423D01*
X121528209Y-90090426D01*
X121391290Y-90169475D01*
X121391282Y-90169481D01*
X121279481Y-90281282D01*
X121279475Y-90281290D01*
X121200426Y-90418209D01*
X121200423Y-90418216D01*
X121159500Y-90570943D01*
X118360500Y-90570943D01*
X118319577Y-90418216D01*
X118294403Y-90374613D01*
X118240524Y-90281290D01*
X118240518Y-90281282D01*
X118128717Y-90169481D01*
X118128709Y-90169475D01*
X117991790Y-90090426D01*
X117991786Y-90090424D01*
X117991784Y-90090423D01*
X117839057Y-90049500D01*
X117680943Y-90049500D01*
X117528216Y-90090423D01*
X117528209Y-90090426D01*
X117391290Y-90169475D01*
X117391282Y-90169481D01*
X117279481Y-90281282D01*
X117279475Y-90281290D01*
X117200426Y-90418209D01*
X117200423Y-90418216D01*
X117159500Y-90570943D01*
X113800500Y-90570943D01*
X113800500Y-90520943D01*
X113759577Y-90368216D01*
X113748427Y-90348904D01*
X113680524Y-90231290D01*
X113680518Y-90231282D01*
X113568717Y-90119481D01*
X113568709Y-90119475D01*
X113431790Y-90040426D01*
X113431786Y-90040424D01*
X113431784Y-90040423D01*
X113279057Y-89999500D01*
X113120943Y-89999500D01*
X112968216Y-90040423D01*
X112968214Y-90040423D01*
X112960365Y-90042527D01*
X112959778Y-90040339D01*
X112901971Y-90046548D01*
X112839495Y-90015267D01*
X112803849Y-89955175D01*
X112800000Y-89924521D01*
X112800000Y-89285258D01*
X134849500Y-89285258D01*
X134849500Y-89514741D01*
X134879452Y-89742238D01*
X134888711Y-89776797D01*
X134890515Y-89783530D01*
X134891484Y-89789958D01*
X134897221Y-89808557D01*
X134897821Y-89810796D01*
X134897825Y-89810810D01*
X134938843Y-89963890D01*
X134961266Y-90018024D01*
X134961267Y-90018025D01*
X134963486Y-90023383D01*
X134968687Y-90040243D01*
X134981429Y-90066702D01*
X134982764Y-90069925D01*
X134982764Y-90069927D01*
X135026655Y-90175887D01*
X135026660Y-90175896D01*
X135058642Y-90231290D01*
X135069156Y-90249500D01*
X135070988Y-90252674D01*
X135082331Y-90276227D01*
X135097054Y-90297822D01*
X135099374Y-90301840D01*
X135099374Y-90301842D01*
X135131377Y-90357270D01*
X135137696Y-90368216D01*
X135141390Y-90374613D01*
X135211209Y-90465604D01*
X135211210Y-90465604D01*
X135213328Y-90468365D01*
X135229877Y-90492637D01*
X135241877Y-90505570D01*
X135245403Y-90510165D01*
X135245404Y-90510168D01*
X135274891Y-90548595D01*
X135281081Y-90556661D01*
X135393132Y-90668712D01*
X135394780Y-90670360D01*
X135408029Y-90684639D01*
X135413114Y-90688694D01*
X135443339Y-90718919D01*
X135458718Y-90730720D01*
X135625382Y-90858607D01*
X135625385Y-90858608D01*
X135625388Y-90858611D01*
X135824112Y-90973344D01*
X135824114Y-90973344D01*
X135824118Y-90973347D01*
X136001477Y-91046811D01*
X136036113Y-91061158D01*
X136077401Y-91072221D01*
X136083455Y-91074597D01*
X136102443Y-91078930D01*
X136257762Y-91120548D01*
X136321613Y-91128954D01*
X136338810Y-91132880D01*
X136368101Y-91135074D01*
X136485266Y-91150500D01*
X136485267Y-91150500D01*
X136573926Y-91150500D01*
X136600000Y-91152454D01*
X136626074Y-91150500D01*
X136714733Y-91150500D01*
X136714734Y-91150500D01*
X136831898Y-91135074D01*
X136861190Y-91132880D01*
X136878387Y-91128954D01*
X136942238Y-91120548D01*
X137097566Y-91078928D01*
X137116545Y-91074597D01*
X137122592Y-91072222D01*
X137163880Y-91061160D01*
X137163884Y-91061159D01*
X137163884Y-91061158D01*
X137163887Y-91061158D01*
X137375888Y-90973344D01*
X137574612Y-90858611D01*
X137756661Y-90718919D01*
X137786889Y-90688690D01*
X137791971Y-90684639D01*
X137805206Y-90670373D01*
X137918919Y-90556661D01*
X137958126Y-90505565D01*
X137970123Y-90492637D01*
X137986661Y-90468377D01*
X138058611Y-90374612D01*
X138102950Y-90297814D01*
X138117669Y-90276227D01*
X138129006Y-90252683D01*
X138173344Y-90175888D01*
X138179032Y-90162155D01*
X153450000Y-90162155D01*
X153450000Y-90810000D01*
X154366988Y-90810000D01*
X154334075Y-90867007D01*
X154300000Y-90994174D01*
X154300000Y-91125826D01*
X154334075Y-91252993D01*
X154366988Y-91310000D01*
X153450000Y-91310000D01*
X153450000Y-91957844D01*
X153456401Y-92017372D01*
X153456403Y-92017379D01*
X153506645Y-92152086D01*
X153506649Y-92152093D01*
X153592809Y-92267187D01*
X153592812Y-92267190D01*
X153707906Y-92353350D01*
X153707913Y-92353354D01*
X153842620Y-92403596D01*
X153842627Y-92403598D01*
X153902155Y-92409999D01*
X153902172Y-92410000D01*
X154304435Y-92410000D01*
X154371474Y-92429685D01*
X154417229Y-92482489D01*
X154427173Y-92551647D01*
X154398148Y-92615203D01*
X154351888Y-92648561D01*
X154302403Y-92669058D01*
X154130342Y-92784024D01*
X153984024Y-92930342D01*
X153869058Y-93102403D01*
X153789870Y-93293579D01*
X153789868Y-93293587D01*
X153749500Y-93496530D01*
X153749500Y-93703469D01*
X153789868Y-93906412D01*
X153789870Y-93906420D01*
X153869058Y-94097596D01*
X153984024Y-94269657D01*
X154130342Y-94415975D01*
X154130345Y-94415977D01*
X154302402Y-94530941D01*
X154493580Y-94610130D01*
X154696530Y-94650499D01*
X154696534Y-94650500D01*
X154696535Y-94650500D01*
X154903466Y-94650500D01*
X154903467Y-94650499D01*
X155106420Y-94610130D01*
X155297598Y-94530941D01*
X155469655Y-94415977D01*
X155615977Y-94269655D01*
X155730941Y-94097598D01*
X155810130Y-93906420D01*
X155850500Y-93703465D01*
X155850500Y-93496535D01*
X155810130Y-93293580D01*
X155730941Y-93102402D01*
X155615977Y-92930345D01*
X155615975Y-92930342D01*
X155469657Y-92784024D01*
X155366757Y-92715269D01*
X155297598Y-92669059D01*
X155252790Y-92650499D01*
X155248112Y-92648561D01*
X155193709Y-92604720D01*
X155171644Y-92538426D01*
X155188923Y-92470726D01*
X155240061Y-92423116D01*
X155295565Y-92410000D01*
X155697828Y-92410000D01*
X155697844Y-92409999D01*
X155757372Y-92403598D01*
X155757379Y-92403596D01*
X155892086Y-92353354D01*
X155892093Y-92353350D01*
X156007187Y-92267190D01*
X156007190Y-92267187D01*
X156093350Y-92152093D01*
X156093354Y-92152086D01*
X156143596Y-92017379D01*
X156143598Y-92017372D01*
X156149999Y-91957844D01*
X156150000Y-91957827D01*
X156150000Y-91310000D01*
X155233012Y-91310000D01*
X155265925Y-91252993D01*
X155300000Y-91125826D01*
X155300000Y-90994174D01*
X155265925Y-90867007D01*
X155233012Y-90810000D01*
X156150000Y-90810000D01*
X156150000Y-90162172D01*
X156149999Y-90162155D01*
X156143598Y-90102627D01*
X156143596Y-90102620D01*
X156093354Y-89967913D01*
X156093350Y-89967906D01*
X156007190Y-89852812D01*
X156007187Y-89852809D01*
X155892093Y-89766649D01*
X155892086Y-89766645D01*
X155757379Y-89716403D01*
X155757372Y-89716401D01*
X155697844Y-89710000D01*
X155050000Y-89710000D01*
X155050000Y-90626988D01*
X154992993Y-90594075D01*
X154865826Y-90560000D01*
X154734174Y-90560000D01*
X154607007Y-90594075D01*
X154550000Y-90626988D01*
X154550000Y-89710000D01*
X153902155Y-89710000D01*
X153842627Y-89716401D01*
X153842620Y-89716403D01*
X153707913Y-89766645D01*
X153707906Y-89766649D01*
X153592812Y-89852809D01*
X153592809Y-89852812D01*
X153506649Y-89967906D01*
X153506645Y-89967913D01*
X153456403Y-90102620D01*
X153456401Y-90102627D01*
X153450000Y-90162155D01*
X138179032Y-90162155D01*
X138218573Y-90066693D01*
X138231313Y-90040243D01*
X138236510Y-90023391D01*
X138261158Y-89963887D01*
X138302778Y-89808554D01*
X138308516Y-89789958D01*
X138309485Y-89783524D01*
X138320548Y-89742238D01*
X138350500Y-89514734D01*
X138350500Y-89285266D01*
X138320548Y-89057762D01*
X138309485Y-89016474D01*
X138308516Y-89010042D01*
X138302776Y-88991438D01*
X138261158Y-88836113D01*
X138236511Y-88776610D01*
X138231313Y-88759757D01*
X138218569Y-88733295D01*
X138173344Y-88624112D01*
X138173341Y-88624108D01*
X138173338Y-88624100D01*
X138142853Y-88571300D01*
X138129008Y-88547319D01*
X138117669Y-88523773D01*
X138102949Y-88502185D01*
X138058611Y-88425388D01*
X138058603Y-88425378D01*
X137988792Y-88334399D01*
X137986666Y-88331628D01*
X137970123Y-88307363D01*
X137958119Y-88294426D01*
X137918919Y-88243339D01*
X137805219Y-88129639D01*
X137791971Y-88115361D01*
X137786885Y-88111305D01*
X137781965Y-88106385D01*
X137756661Y-88081081D01*
X137574617Y-87941392D01*
X137375890Y-87826657D01*
X137375876Y-87826650D01*
X137163887Y-87738842D01*
X137163883Y-87738841D01*
X137163879Y-87738840D01*
X137160704Y-87737989D01*
X137129323Y-87729580D01*
X137129323Y-87729579D01*
X137122587Y-87727774D01*
X137116545Y-87725403D01*
X137097571Y-87721072D01*
X137095334Y-87720473D01*
X137095321Y-87720470D01*
X136942245Y-87679454D01*
X136942238Y-87679452D01*
X136942232Y-87679451D01*
X136942231Y-87679451D01*
X136884143Y-87671803D01*
X136884143Y-87671802D01*
X136878378Y-87671043D01*
X136861190Y-87667120D01*
X136831900Y-87664925D01*
X136828443Y-87664470D01*
X136714743Y-87649501D01*
X136714740Y-87649500D01*
X136714734Y-87649500D01*
X136626062Y-87649500D01*
X136600000Y-87647547D01*
X136573938Y-87649500D01*
X136485264Y-87649500D01*
X136371555Y-87664468D01*
X136371556Y-87664469D01*
X136368080Y-87664926D01*
X136338810Y-87667120D01*
X136321627Y-87671041D01*
X136315868Y-87671800D01*
X136315860Y-87671802D01*
X136257767Y-87679451D01*
X136257753Y-87679454D01*
X136104682Y-87720467D01*
X136104683Y-87720468D01*
X136102420Y-87721074D01*
X136083455Y-87725403D01*
X136077406Y-87727776D01*
X136070681Y-87729579D01*
X136070679Y-87729578D01*
X136036116Y-87738840D01*
X135824118Y-87826653D01*
X135824109Y-87826657D01*
X135625387Y-87941389D01*
X135443334Y-88081084D01*
X135443331Y-88081087D01*
X135418028Y-88106389D01*
X135413099Y-88111317D01*
X135408029Y-88115361D01*
X135394818Y-88129598D01*
X135393150Y-88131267D01*
X135281086Y-88243332D01*
X135281081Y-88243338D01*
X135245405Y-88289830D01*
X135241866Y-88294441D01*
X135229877Y-88307363D01*
X135213342Y-88331614D01*
X135211209Y-88334395D01*
X135141395Y-88425378D01*
X135141388Y-88425389D01*
X135099376Y-88498156D01*
X135099375Y-88498155D01*
X135097041Y-88502196D01*
X135082331Y-88523773D01*
X135070998Y-88547306D01*
X135068672Y-88551335D01*
X135068668Y-88551344D01*
X135026657Y-88624110D01*
X135026653Y-88624118D01*
X134982762Y-88730076D01*
X134981418Y-88733320D01*
X134968687Y-88759757D01*
X134963489Y-88776605D01*
X134961268Y-88781970D01*
X134961267Y-88781972D01*
X134938844Y-88836105D01*
X134897821Y-88989202D01*
X134897820Y-88989201D01*
X134897207Y-88991485D01*
X134891484Y-89010042D01*
X134890516Y-89016462D01*
X134888712Y-89023197D01*
X134879456Y-89057743D01*
X134879452Y-89057763D01*
X134849500Y-89285258D01*
X112800000Y-89285258D01*
X112800000Y-85720943D01*
X128599500Y-85720943D01*
X128599500Y-85879057D01*
X128623622Y-85969079D01*
X128640423Y-86031783D01*
X128640426Y-86031790D01*
X128719475Y-86168709D01*
X128719479Y-86168714D01*
X128719480Y-86168716D01*
X128831284Y-86280520D01*
X128831286Y-86280521D01*
X128831290Y-86280524D01*
X128968209Y-86359573D01*
X128968216Y-86359577D01*
X129120943Y-86400500D01*
X129120945Y-86400500D01*
X129279055Y-86400500D01*
X129279057Y-86400500D01*
X129431784Y-86359577D01*
X129568716Y-86280520D01*
X129680520Y-86168716D01*
X129759577Y-86031784D01*
X129800500Y-85879057D01*
X129800500Y-85720943D01*
X129759577Y-85568216D01*
X129749135Y-85550129D01*
X129680524Y-85431290D01*
X129680518Y-85431282D01*
X129568717Y-85319481D01*
X129568709Y-85319475D01*
X129431790Y-85240426D01*
X129431786Y-85240424D01*
X129431784Y-85240423D01*
X129279057Y-85199500D01*
X129120943Y-85199500D01*
X128968216Y-85240423D01*
X128968209Y-85240426D01*
X128831290Y-85319475D01*
X128831282Y-85319481D01*
X128719481Y-85431282D01*
X128719475Y-85431290D01*
X128640426Y-85568209D01*
X128640423Y-85568216D01*
X128599500Y-85720943D01*
X112800000Y-85720943D01*
X112800000Y-83920943D01*
X121799500Y-83920943D01*
X121799500Y-84079057D01*
X121817516Y-84146291D01*
X121840423Y-84231783D01*
X121840426Y-84231790D01*
X121919475Y-84368709D01*
X121919479Y-84368714D01*
X121919480Y-84368716D01*
X122031284Y-84480520D01*
X122031286Y-84480521D01*
X122031290Y-84480524D01*
X122134307Y-84540000D01*
X122168216Y-84559577D01*
X122320943Y-84600500D01*
X122320945Y-84600500D01*
X122479055Y-84600500D01*
X122479057Y-84600500D01*
X122631784Y-84559577D01*
X122768716Y-84480520D01*
X122880520Y-84368716D01*
X122959577Y-84231784D01*
X123000500Y-84079057D01*
X123000500Y-83920943D01*
X122959577Y-83768216D01*
X122886796Y-83642155D01*
X134710000Y-83642155D01*
X134710000Y-84290000D01*
X135626988Y-84290000D01*
X135594075Y-84347007D01*
X135560000Y-84474174D01*
X135560000Y-84605826D01*
X135594075Y-84732993D01*
X135626988Y-84790000D01*
X134710000Y-84790000D01*
X134710000Y-85437844D01*
X134716401Y-85497372D01*
X134716403Y-85497379D01*
X134766645Y-85632086D01*
X134766649Y-85632093D01*
X134852809Y-85747187D01*
X134852812Y-85747190D01*
X134967906Y-85833350D01*
X134967913Y-85833354D01*
X135102620Y-85883596D01*
X135102627Y-85883598D01*
X135162155Y-85889999D01*
X135162172Y-85890000D01*
X135810000Y-85890000D01*
X135810000Y-84973012D01*
X135867007Y-85005925D01*
X135994174Y-85040000D01*
X136125826Y-85040000D01*
X136252993Y-85005925D01*
X136310000Y-84973012D01*
X136310000Y-85890000D01*
X136957828Y-85890000D01*
X136957844Y-85889999D01*
X137017372Y-85883598D01*
X137017379Y-85883596D01*
X137152086Y-85833354D01*
X137152093Y-85833350D01*
X137267187Y-85747190D01*
X137267190Y-85747187D01*
X137353350Y-85632093D01*
X137353354Y-85632086D01*
X137403596Y-85497379D01*
X137403598Y-85497372D01*
X137409999Y-85437844D01*
X137410000Y-85437827D01*
X137410000Y-85035564D01*
X137429685Y-84968525D01*
X137482489Y-84922770D01*
X137551647Y-84912826D01*
X137615203Y-84941851D01*
X137648561Y-84988112D01*
X137660951Y-85018025D01*
X137669059Y-85037598D01*
X137745701Y-85152302D01*
X137784024Y-85209657D01*
X137930342Y-85355975D01*
X137930345Y-85355977D01*
X138102402Y-85470941D01*
X138293580Y-85550130D01*
X138496530Y-85590499D01*
X138496534Y-85590500D01*
X138496535Y-85590500D01*
X138703466Y-85590500D01*
X138703467Y-85590499D01*
X138906420Y-85550130D01*
X139097598Y-85470941D01*
X139269655Y-85355977D01*
X139415977Y-85209655D01*
X139530941Y-85037598D01*
X139610130Y-84846420D01*
X139650500Y-84643465D01*
X139650500Y-84436535D01*
X139650499Y-84436530D01*
X140089500Y-84436530D01*
X140089500Y-84643469D01*
X140129868Y-84846412D01*
X140129870Y-84846420D01*
X140200951Y-85018025D01*
X140209059Y-85037598D01*
X140266541Y-85123626D01*
X140324024Y-85209657D01*
X140470342Y-85355975D01*
X140470345Y-85355977D01*
X140642402Y-85470941D01*
X140833580Y-85550130D01*
X141036530Y-85590499D01*
X141036534Y-85590500D01*
X141036535Y-85590500D01*
X141243466Y-85590500D01*
X141243467Y-85590499D01*
X141446420Y-85550130D01*
X141637598Y-85470941D01*
X141809655Y-85355977D01*
X141955977Y-85209655D01*
X142070941Y-85037598D01*
X142150130Y-84846420D01*
X142190500Y-84643465D01*
X142190500Y-84436535D01*
X142190499Y-84436530D01*
X142629500Y-84436530D01*
X142629500Y-84643469D01*
X142669868Y-84846412D01*
X142669870Y-84846420D01*
X142740951Y-85018025D01*
X142749059Y-85037598D01*
X142806541Y-85123626D01*
X142864024Y-85209657D01*
X143010342Y-85355975D01*
X143010345Y-85355977D01*
X143182402Y-85470941D01*
X143373580Y-85550130D01*
X143576530Y-85590499D01*
X143576534Y-85590500D01*
X143576535Y-85590500D01*
X143783466Y-85590500D01*
X143783467Y-85590499D01*
X143986420Y-85550130D01*
X144177598Y-85470941D01*
X144349655Y-85355977D01*
X144495977Y-85209655D01*
X144610941Y-85037598D01*
X144690130Y-84846420D01*
X144730500Y-84643465D01*
X144730500Y-84436535D01*
X144730499Y-84436530D01*
X145169500Y-84436530D01*
X145169500Y-84643469D01*
X145209868Y-84846412D01*
X145209870Y-84846420D01*
X145280951Y-85018025D01*
X145289059Y-85037598D01*
X145346541Y-85123626D01*
X145404024Y-85209657D01*
X145550342Y-85355975D01*
X145550345Y-85355977D01*
X145722402Y-85470941D01*
X145913580Y-85550130D01*
X146116530Y-85590499D01*
X146116534Y-85590500D01*
X146116535Y-85590500D01*
X146323466Y-85590500D01*
X146323467Y-85590499D01*
X146526420Y-85550130D01*
X146717598Y-85470941D01*
X146889655Y-85355977D01*
X147035977Y-85209655D01*
X147150941Y-85037598D01*
X147230130Y-84846420D01*
X147270500Y-84643465D01*
X147270500Y-84436535D01*
X147266018Y-84414000D01*
X147244416Y-84305398D01*
X147240410Y-84285258D01*
X152849500Y-84285258D01*
X152849500Y-84514741D01*
X152879452Y-84742238D01*
X152888711Y-84776797D01*
X152890515Y-84783530D01*
X152891484Y-84789958D01*
X152897221Y-84808557D01*
X152897821Y-84810796D01*
X152897825Y-84810810D01*
X152938843Y-84963890D01*
X152961266Y-85018024D01*
X152961267Y-85018025D01*
X152963486Y-85023383D01*
X152968687Y-85040243D01*
X152981429Y-85066702D01*
X152982764Y-85069925D01*
X152982764Y-85069927D01*
X153026655Y-85175887D01*
X153026660Y-85175896D01*
X153040288Y-85199500D01*
X153069624Y-85250311D01*
X153070988Y-85252674D01*
X153082331Y-85276227D01*
X153097054Y-85297822D01*
X153099374Y-85301840D01*
X153099374Y-85301842D01*
X153141390Y-85374613D01*
X153211209Y-85465604D01*
X153211210Y-85465604D01*
X153213328Y-85468365D01*
X153229877Y-85492637D01*
X153241877Y-85505570D01*
X153245403Y-85510165D01*
X153245404Y-85510168D01*
X153274891Y-85548595D01*
X153281081Y-85556661D01*
X153393132Y-85668712D01*
X153394780Y-85670360D01*
X153408029Y-85684639D01*
X153413114Y-85688694D01*
X153443339Y-85718919D01*
X153480178Y-85747187D01*
X153625382Y-85858607D01*
X153625385Y-85858608D01*
X153625388Y-85858611D01*
X153824112Y-85973344D01*
X153824114Y-85973344D01*
X153824118Y-85973347D01*
X154001477Y-86046811D01*
X154036113Y-86061158D01*
X154077401Y-86072221D01*
X154083455Y-86074597D01*
X154102443Y-86078930D01*
X154257762Y-86120548D01*
X154321613Y-86128954D01*
X154338810Y-86132880D01*
X154368101Y-86135074D01*
X154485266Y-86150500D01*
X154485267Y-86150500D01*
X154573926Y-86150500D01*
X154600000Y-86152454D01*
X154626074Y-86150500D01*
X154714733Y-86150500D01*
X154714734Y-86150500D01*
X154831898Y-86135074D01*
X154861190Y-86132880D01*
X154878387Y-86128954D01*
X154942238Y-86120548D01*
X155097566Y-86078928D01*
X155116545Y-86074597D01*
X155122592Y-86072222D01*
X155163880Y-86061160D01*
X155163884Y-86061159D01*
X155163884Y-86061158D01*
X155163887Y-86061158D01*
X155375888Y-85973344D01*
X155574612Y-85858611D01*
X155756661Y-85718919D01*
X155786889Y-85688690D01*
X155791971Y-85684639D01*
X155805206Y-85670373D01*
X155918919Y-85556661D01*
X155958126Y-85505565D01*
X155970123Y-85492637D01*
X155986661Y-85468377D01*
X156058611Y-85374612D01*
X156102950Y-85297814D01*
X156117669Y-85276227D01*
X156129006Y-85252683D01*
X156173344Y-85175888D01*
X156218573Y-85066693D01*
X156231313Y-85040243D01*
X156236510Y-85023391D01*
X156261158Y-84963887D01*
X156302778Y-84808554D01*
X156308516Y-84789958D01*
X156309485Y-84783524D01*
X156320548Y-84742238D01*
X156350500Y-84514734D01*
X156350500Y-84285266D01*
X156320548Y-84057762D01*
X156309485Y-84016474D01*
X156308516Y-84010042D01*
X156302776Y-83991438D01*
X156261158Y-83836113D01*
X156236511Y-83776610D01*
X156231313Y-83759757D01*
X156218569Y-83733295D01*
X156173344Y-83624112D01*
X156173341Y-83624108D01*
X156173338Y-83624100D01*
X156142853Y-83571300D01*
X156129008Y-83547319D01*
X156117669Y-83523773D01*
X156102949Y-83502185D01*
X156058611Y-83425388D01*
X156058603Y-83425378D01*
X155988792Y-83334399D01*
X155986666Y-83331628D01*
X155970123Y-83307363D01*
X155958119Y-83294426D01*
X155918919Y-83243339D01*
X155805219Y-83129639D01*
X155791971Y-83115361D01*
X155786885Y-83111305D01*
X155781965Y-83106385D01*
X155756661Y-83081081D01*
X155731239Y-83061574D01*
X155574617Y-82941392D01*
X155375890Y-82826657D01*
X155375876Y-82826650D01*
X155163887Y-82738842D01*
X155163883Y-82738841D01*
X155163879Y-82738840D01*
X155160704Y-82737989D01*
X155129323Y-82729580D01*
X155129323Y-82729579D01*
X155122587Y-82727774D01*
X155116545Y-82725403D01*
X155097571Y-82721072D01*
X155095334Y-82720473D01*
X155095321Y-82720470D01*
X154942245Y-82679454D01*
X154942238Y-82679452D01*
X154942232Y-82679451D01*
X154942231Y-82679451D01*
X154884143Y-82671803D01*
X154884143Y-82671802D01*
X154878378Y-82671043D01*
X154861190Y-82667120D01*
X154831900Y-82664925D01*
X154828443Y-82664470D01*
X154714743Y-82649501D01*
X154714740Y-82649500D01*
X154714734Y-82649500D01*
X154626062Y-82649500D01*
X154600000Y-82647547D01*
X154573938Y-82649500D01*
X154485264Y-82649500D01*
X154371555Y-82664468D01*
X154371556Y-82664469D01*
X154368080Y-82664926D01*
X154338810Y-82667120D01*
X154321627Y-82671041D01*
X154315868Y-82671800D01*
X154315860Y-82671802D01*
X154257767Y-82679451D01*
X154257753Y-82679454D01*
X154104682Y-82720467D01*
X154104683Y-82720468D01*
X154102420Y-82721074D01*
X154083455Y-82725403D01*
X154077406Y-82727776D01*
X154070681Y-82729579D01*
X154070679Y-82729578D01*
X154036116Y-82738840D01*
X153824118Y-82826653D01*
X153824109Y-82826657D01*
X153625387Y-82941389D01*
X153443334Y-83081084D01*
X153443331Y-83081087D01*
X153418028Y-83106389D01*
X153413099Y-83111317D01*
X153408029Y-83115361D01*
X153394818Y-83129598D01*
X153393150Y-83131267D01*
X153281086Y-83243332D01*
X153281081Y-83243338D01*
X153245405Y-83289830D01*
X153241866Y-83294441D01*
X153229877Y-83307363D01*
X153213342Y-83331614D01*
X153211209Y-83334395D01*
X153141395Y-83425378D01*
X153141388Y-83425389D01*
X153099376Y-83498156D01*
X153099375Y-83498155D01*
X153097041Y-83502196D01*
X153082331Y-83523773D01*
X153070998Y-83547306D01*
X153068672Y-83551335D01*
X153068668Y-83551344D01*
X153026657Y-83624110D01*
X153026653Y-83624118D01*
X152982762Y-83730076D01*
X152981418Y-83733320D01*
X152968687Y-83759757D01*
X152963489Y-83776605D01*
X152961268Y-83781970D01*
X152961267Y-83781972D01*
X152938844Y-83836105D01*
X152897821Y-83989202D01*
X152897820Y-83989201D01*
X152897207Y-83991485D01*
X152891484Y-84010042D01*
X152890516Y-84016462D01*
X152888712Y-84023197D01*
X152879456Y-84057743D01*
X152879452Y-84057763D01*
X152849500Y-84285258D01*
X147240410Y-84285258D01*
X147230131Y-84233587D01*
X147230130Y-84233580D01*
X147150941Y-84042402D01*
X147035977Y-83870345D01*
X147035975Y-83870342D01*
X146889657Y-83724024D01*
X146743275Y-83626216D01*
X146717598Y-83609059D01*
X146526420Y-83529870D01*
X146526412Y-83529868D01*
X146323469Y-83489500D01*
X146323465Y-83489500D01*
X146116535Y-83489500D01*
X146116530Y-83489500D01*
X145913587Y-83529868D01*
X145913579Y-83529870D01*
X145722403Y-83609058D01*
X145550342Y-83724024D01*
X145404024Y-83870342D01*
X145289058Y-84042403D01*
X145209870Y-84233579D01*
X145209868Y-84233587D01*
X145169500Y-84436530D01*
X144730499Y-84436530D01*
X144690130Y-84233580D01*
X144610941Y-84042402D01*
X144495977Y-83870345D01*
X144495975Y-83870342D01*
X144349657Y-83724024D01*
X144203275Y-83626216D01*
X144177598Y-83609059D01*
X143986420Y-83529870D01*
X143986412Y-83529868D01*
X143783469Y-83489500D01*
X143783465Y-83489500D01*
X143576535Y-83489500D01*
X143576530Y-83489500D01*
X143373587Y-83529868D01*
X143373579Y-83529870D01*
X143182403Y-83609058D01*
X143010342Y-83724024D01*
X142864024Y-83870342D01*
X142749058Y-84042403D01*
X142669870Y-84233579D01*
X142669868Y-84233587D01*
X142629500Y-84436530D01*
X142190499Y-84436530D01*
X142150130Y-84233580D01*
X142070941Y-84042402D01*
X141955977Y-83870345D01*
X141955975Y-83870342D01*
X141809657Y-83724024D01*
X141663275Y-83626216D01*
X141637598Y-83609059D01*
X141446420Y-83529870D01*
X141446412Y-83529868D01*
X141243469Y-83489500D01*
X141243465Y-83489500D01*
X141036535Y-83489500D01*
X141036530Y-83489500D01*
X140833587Y-83529868D01*
X140833579Y-83529870D01*
X140642403Y-83609058D01*
X140470342Y-83724024D01*
X140324024Y-83870342D01*
X140209058Y-84042403D01*
X140129870Y-84233579D01*
X140129868Y-84233587D01*
X140089500Y-84436530D01*
X139650499Y-84436530D01*
X139610130Y-84233580D01*
X139530941Y-84042402D01*
X139415977Y-83870345D01*
X139415975Y-83870342D01*
X139269657Y-83724024D01*
X139123275Y-83626216D01*
X139097598Y-83609059D01*
X138906420Y-83529870D01*
X138906412Y-83529868D01*
X138703469Y-83489500D01*
X138703465Y-83489500D01*
X138496535Y-83489500D01*
X138496530Y-83489500D01*
X138293587Y-83529868D01*
X138293579Y-83529870D01*
X138102403Y-83609058D01*
X137930342Y-83724024D01*
X137784024Y-83870342D01*
X137669058Y-84042403D01*
X137648561Y-84091888D01*
X137604720Y-84146291D01*
X137538426Y-84168356D01*
X137470726Y-84151077D01*
X137423116Y-84099939D01*
X137410000Y-84044435D01*
X137410000Y-83642172D01*
X137409999Y-83642155D01*
X137403598Y-83582627D01*
X137403596Y-83582620D01*
X137353354Y-83447913D01*
X137353350Y-83447906D01*
X137267190Y-83332812D01*
X137267187Y-83332809D01*
X137152093Y-83246649D01*
X137152086Y-83246645D01*
X137017379Y-83196403D01*
X137017372Y-83196401D01*
X136957844Y-83190000D01*
X136555565Y-83190000D01*
X136488526Y-83170315D01*
X136442771Y-83117511D01*
X136432827Y-83048353D01*
X136461852Y-82984797D01*
X136508112Y-82951439D01*
X136522826Y-82945344D01*
X136557598Y-82930941D01*
X136729655Y-82815977D01*
X136875977Y-82669655D01*
X136990941Y-82497598D01*
X137070130Y-82306420D01*
X137110500Y-82103465D01*
X137110500Y-81896535D01*
X137110499Y-81896530D01*
X137549500Y-81896530D01*
X137549500Y-82103469D01*
X137589868Y-82306412D01*
X137589870Y-82306420D01*
X137669058Y-82497596D01*
X137784024Y-82669657D01*
X137930342Y-82815975D01*
X137930345Y-82815977D01*
X138102402Y-82930941D01*
X138293580Y-83010130D01*
X138485741Y-83048353D01*
X138496530Y-83050499D01*
X138496534Y-83050500D01*
X138496535Y-83050500D01*
X138703466Y-83050500D01*
X138703467Y-83050499D01*
X138906420Y-83010130D01*
X139097598Y-82930941D01*
X139269655Y-82815977D01*
X139415977Y-82669655D01*
X139530941Y-82497598D01*
X139610130Y-82306420D01*
X139650500Y-82103465D01*
X139650500Y-81896535D01*
X139650499Y-81896530D01*
X140089500Y-81896530D01*
X140089500Y-82103469D01*
X140129868Y-82306412D01*
X140129870Y-82306420D01*
X140209058Y-82497596D01*
X140324024Y-82669657D01*
X140470342Y-82815975D01*
X140470345Y-82815977D01*
X140642402Y-82930941D01*
X140833580Y-83010130D01*
X141025741Y-83048353D01*
X141036530Y-83050499D01*
X141036534Y-83050500D01*
X141036535Y-83050500D01*
X141243466Y-83050500D01*
X141243467Y-83050499D01*
X141446420Y-83010130D01*
X141637598Y-82930941D01*
X141809655Y-82815977D01*
X141955977Y-82669655D01*
X142070941Y-82497598D01*
X142150130Y-82306420D01*
X142190500Y-82103465D01*
X142190500Y-81896535D01*
X142190499Y-81896530D01*
X142629500Y-81896530D01*
X142629500Y-82103469D01*
X142669868Y-82306412D01*
X142669870Y-82306420D01*
X142749058Y-82497596D01*
X142864024Y-82669657D01*
X143010342Y-82815975D01*
X143010345Y-82815977D01*
X143182402Y-82930941D01*
X143373580Y-83010130D01*
X143565741Y-83048353D01*
X143576530Y-83050499D01*
X143576534Y-83050500D01*
X143576535Y-83050500D01*
X143783466Y-83050500D01*
X143783467Y-83050499D01*
X143986420Y-83010130D01*
X144177598Y-82930941D01*
X144349655Y-82815977D01*
X144495977Y-82669655D01*
X144610941Y-82497598D01*
X144690130Y-82306420D01*
X144730500Y-82103465D01*
X144730500Y-81896535D01*
X144730499Y-81896530D01*
X145169500Y-81896530D01*
X145169500Y-82103469D01*
X145209868Y-82306412D01*
X145209870Y-82306420D01*
X145289058Y-82497596D01*
X145404024Y-82669657D01*
X145550342Y-82815975D01*
X145550345Y-82815977D01*
X145722402Y-82930941D01*
X145913580Y-83010130D01*
X146105741Y-83048353D01*
X146116530Y-83050499D01*
X146116534Y-83050500D01*
X146116535Y-83050500D01*
X146323466Y-83050500D01*
X146323467Y-83050499D01*
X146526420Y-83010130D01*
X146717598Y-82930941D01*
X146889655Y-82815977D01*
X147035977Y-82669655D01*
X147150941Y-82497598D01*
X147230130Y-82306420D01*
X147270500Y-82103465D01*
X147270500Y-81896535D01*
X147230130Y-81693580D01*
X147150941Y-81502402D01*
X147035977Y-81330345D01*
X147035975Y-81330342D01*
X146889657Y-81184024D01*
X146803626Y-81126541D01*
X146717598Y-81069059D01*
X146526420Y-80989870D01*
X146526412Y-80989868D01*
X146323469Y-80949500D01*
X146323465Y-80949500D01*
X146116535Y-80949500D01*
X146116530Y-80949500D01*
X145913587Y-80989868D01*
X145913579Y-80989870D01*
X145722403Y-81069058D01*
X145550342Y-81184024D01*
X145404024Y-81330342D01*
X145289058Y-81502403D01*
X145209870Y-81693579D01*
X145209868Y-81693587D01*
X145169500Y-81896530D01*
X144730499Y-81896530D01*
X144690130Y-81693580D01*
X144610941Y-81502402D01*
X144495977Y-81330345D01*
X144495975Y-81330342D01*
X144349657Y-81184024D01*
X144263626Y-81126541D01*
X144177598Y-81069059D01*
X143986420Y-80989870D01*
X143986412Y-80989868D01*
X143783469Y-80949500D01*
X143783465Y-80949500D01*
X143576535Y-80949500D01*
X143576530Y-80949500D01*
X143373587Y-80989868D01*
X143373579Y-80989870D01*
X143182403Y-81069058D01*
X143010342Y-81184024D01*
X142864024Y-81330342D01*
X142749058Y-81502403D01*
X142669870Y-81693579D01*
X142669868Y-81693587D01*
X142629500Y-81896530D01*
X142190499Y-81896530D01*
X142150130Y-81693580D01*
X142070941Y-81502402D01*
X141955977Y-81330345D01*
X141955975Y-81330342D01*
X141809657Y-81184024D01*
X141723626Y-81126541D01*
X141637598Y-81069059D01*
X141446420Y-80989870D01*
X141446412Y-80989868D01*
X141243469Y-80949500D01*
X141243465Y-80949500D01*
X141036535Y-80949500D01*
X141036530Y-80949500D01*
X140833587Y-80989868D01*
X140833579Y-80989870D01*
X140642403Y-81069058D01*
X140470342Y-81184024D01*
X140324024Y-81330342D01*
X140209058Y-81502403D01*
X140129870Y-81693579D01*
X140129868Y-81693587D01*
X140089500Y-81896530D01*
X139650499Y-81896530D01*
X139610130Y-81693580D01*
X139530941Y-81502402D01*
X139415977Y-81330345D01*
X139415975Y-81330342D01*
X139269657Y-81184024D01*
X139183626Y-81126541D01*
X139097598Y-81069059D01*
X138906420Y-80989870D01*
X138906412Y-80989868D01*
X138703469Y-80949500D01*
X138703465Y-80949500D01*
X138496535Y-80949500D01*
X138496530Y-80949500D01*
X138293587Y-80989868D01*
X138293579Y-80989870D01*
X138102403Y-81069058D01*
X137930342Y-81184024D01*
X137784024Y-81330342D01*
X137669058Y-81502403D01*
X137589870Y-81693579D01*
X137589868Y-81693587D01*
X137549500Y-81896530D01*
X137110499Y-81896530D01*
X137070130Y-81693580D01*
X136990941Y-81502402D01*
X136875977Y-81330345D01*
X136875975Y-81330342D01*
X136729657Y-81184024D01*
X136643626Y-81126541D01*
X136557598Y-81069059D01*
X136366420Y-80989870D01*
X136366412Y-80989868D01*
X136163469Y-80949500D01*
X136163465Y-80949500D01*
X135956535Y-80949500D01*
X135956530Y-80949500D01*
X135753587Y-80989868D01*
X135753579Y-80989870D01*
X135562403Y-81069058D01*
X135390342Y-81184024D01*
X135244024Y-81330342D01*
X135129058Y-81502403D01*
X135049870Y-81693579D01*
X135049868Y-81693587D01*
X135009500Y-81896530D01*
X135009500Y-82103469D01*
X135049868Y-82306412D01*
X135049870Y-82306420D01*
X135129058Y-82497596D01*
X135244024Y-82669657D01*
X135390342Y-82815975D01*
X135390345Y-82815977D01*
X135562402Y-82930941D01*
X135587626Y-82941389D01*
X135611888Y-82951439D01*
X135666291Y-82995280D01*
X135688356Y-83061574D01*
X135671077Y-83129274D01*
X135619939Y-83176884D01*
X135564435Y-83190000D01*
X135162155Y-83190000D01*
X135102627Y-83196401D01*
X135102620Y-83196403D01*
X134967913Y-83246645D01*
X134967906Y-83246649D01*
X134852812Y-83332809D01*
X134852809Y-83332812D01*
X134766649Y-83447906D01*
X134766645Y-83447913D01*
X134716403Y-83582620D01*
X134716401Y-83582627D01*
X134710000Y-83642155D01*
X122886796Y-83642155D01*
X122880520Y-83631284D01*
X122768716Y-83519480D01*
X122768714Y-83519479D01*
X122768709Y-83519475D01*
X122631790Y-83440426D01*
X122631786Y-83440424D01*
X122631784Y-83440423D01*
X122479057Y-83399500D01*
X122320943Y-83399500D01*
X122168216Y-83440423D01*
X122168209Y-83440426D01*
X122031290Y-83519475D01*
X122031282Y-83519481D01*
X121919481Y-83631282D01*
X121919475Y-83631290D01*
X121840426Y-83768209D01*
X121840423Y-83768216D01*
X121799500Y-83920943D01*
X112800000Y-83920943D01*
X112800000Y-80320943D01*
X128999500Y-80320943D01*
X128999500Y-80479056D01*
X129040423Y-80631783D01*
X129040426Y-80631790D01*
X129119475Y-80768709D01*
X129119479Y-80768714D01*
X129119480Y-80768716D01*
X129231284Y-80880520D01*
X129231286Y-80880521D01*
X129231290Y-80880524D01*
X129350762Y-80949500D01*
X129368216Y-80959577D01*
X129520943Y-81000500D01*
X129520945Y-81000500D01*
X129679055Y-81000500D01*
X129679057Y-81000500D01*
X129831784Y-80959577D01*
X129968716Y-80880520D01*
X130080520Y-80768716D01*
X130159577Y-80631784D01*
X130200500Y-80479057D01*
X130200500Y-80320943D01*
X130159577Y-80168216D01*
X130159573Y-80168209D01*
X130080524Y-80031290D01*
X130080518Y-80031282D01*
X129968717Y-79919481D01*
X129968709Y-79919475D01*
X129831790Y-79840426D01*
X129831786Y-79840424D01*
X129831784Y-79840423D01*
X129679057Y-79799500D01*
X129520943Y-79799500D01*
X129368216Y-79840423D01*
X129368209Y-79840426D01*
X129231290Y-79919475D01*
X129231282Y-79919481D01*
X129119481Y-80031282D01*
X129119475Y-80031290D01*
X129040426Y-80168209D01*
X129040423Y-80168216D01*
X128999500Y-80320943D01*
X112800000Y-80320943D01*
X112800000Y-79120943D01*
X134799500Y-79120943D01*
X134799500Y-79279057D01*
X134832041Y-79400500D01*
X134840423Y-79431783D01*
X134840426Y-79431790D01*
X134919475Y-79568709D01*
X134919479Y-79568714D01*
X134919480Y-79568716D01*
X135031284Y-79680520D01*
X135031286Y-79680521D01*
X135031290Y-79680524D01*
X135168209Y-79759573D01*
X135168216Y-79759577D01*
X135320943Y-79800500D01*
X135320945Y-79800500D01*
X135479055Y-79800500D01*
X135479057Y-79800500D01*
X135631784Y-79759577D01*
X135768716Y-79680520D01*
X135880520Y-79568716D01*
X135959577Y-79431784D01*
X136000500Y-79279057D01*
X136000500Y-79120943D01*
X135959577Y-78968216D01*
X135908101Y-78879056D01*
X135880524Y-78831290D01*
X135880518Y-78831282D01*
X135770179Y-78720943D01*
X137999500Y-78720943D01*
X137999500Y-78879056D01*
X138040423Y-79031783D01*
X138040426Y-79031790D01*
X138119475Y-79168709D01*
X138119479Y-79168714D01*
X138119480Y-79168716D01*
X138231284Y-79280520D01*
X138231286Y-79280521D01*
X138231290Y-79280524D01*
X138368209Y-79359573D01*
X138368216Y-79359577D01*
X138520943Y-79400500D01*
X138520945Y-79400500D01*
X138679055Y-79400500D01*
X138679057Y-79400500D01*
X138831784Y-79359577D01*
X138968716Y-79280520D01*
X139080520Y-79168716D01*
X139159577Y-79031784D01*
X139200500Y-78879057D01*
X139200500Y-78720943D01*
X139159577Y-78568216D01*
X139159573Y-78568209D01*
X139080524Y-78431290D01*
X139080518Y-78431282D01*
X138968717Y-78319481D01*
X138968709Y-78319475D01*
X138831790Y-78240426D01*
X138831786Y-78240424D01*
X138831784Y-78240423D01*
X138679057Y-78199500D01*
X138520943Y-78199500D01*
X138368216Y-78240423D01*
X138368209Y-78240426D01*
X138231290Y-78319475D01*
X138231282Y-78319481D01*
X138119481Y-78431282D01*
X138119475Y-78431290D01*
X138040426Y-78568209D01*
X138040423Y-78568216D01*
X137999500Y-78720943D01*
X135770179Y-78720943D01*
X135768717Y-78719481D01*
X135768709Y-78719475D01*
X135631790Y-78640426D01*
X135631786Y-78640424D01*
X135631784Y-78640423D01*
X135479057Y-78599500D01*
X135320943Y-78599500D01*
X135168216Y-78640423D01*
X135168209Y-78640426D01*
X135031290Y-78719475D01*
X135031282Y-78719481D01*
X134919481Y-78831282D01*
X134919475Y-78831290D01*
X134840426Y-78968209D01*
X134840423Y-78968216D01*
X134799500Y-79120943D01*
X112800000Y-79120943D01*
X112800000Y-77520943D01*
X152399500Y-77520943D01*
X152399500Y-77679056D01*
X152440423Y-77831783D01*
X152440426Y-77831790D01*
X152519475Y-77968709D01*
X152519479Y-77968714D01*
X152519480Y-77968716D01*
X152631284Y-78080520D01*
X152631286Y-78080521D01*
X152631290Y-78080524D01*
X152768209Y-78159573D01*
X152768216Y-78159577D01*
X152920943Y-78200500D01*
X152920945Y-78200500D01*
X153079055Y-78200500D01*
X153079057Y-78200500D01*
X153231784Y-78159577D01*
X153368716Y-78080520D01*
X153480520Y-77968716D01*
X153559577Y-77831784D01*
X153600500Y-77679057D01*
X153600500Y-77520943D01*
X153559577Y-77368216D01*
X153559573Y-77368209D01*
X153480524Y-77231290D01*
X153480518Y-77231282D01*
X153368717Y-77119481D01*
X153368709Y-77119475D01*
X153231790Y-77040426D01*
X153231786Y-77040424D01*
X153231784Y-77040423D01*
X153079057Y-76999500D01*
X152920943Y-76999500D01*
X152768216Y-77040423D01*
X152768209Y-77040426D01*
X152631290Y-77119475D01*
X152631282Y-77119481D01*
X152519481Y-77231282D01*
X152519475Y-77231290D01*
X152440426Y-77368209D01*
X152440423Y-77368216D01*
X152399500Y-77520943D01*
X112800000Y-77520943D01*
X112800000Y-73302155D01*
X113100000Y-73302155D01*
X113100000Y-73950000D01*
X114016988Y-73950000D01*
X113984075Y-74007007D01*
X113950000Y-74134174D01*
X113950000Y-74265826D01*
X113984075Y-74392993D01*
X114016988Y-74450000D01*
X113100000Y-74450000D01*
X113100000Y-75097844D01*
X113106401Y-75157372D01*
X113106403Y-75157379D01*
X113156645Y-75292086D01*
X113156649Y-75292093D01*
X113242809Y-75407187D01*
X113242812Y-75407190D01*
X113357906Y-75493350D01*
X113357913Y-75493354D01*
X113492620Y-75543596D01*
X113492627Y-75543598D01*
X113552155Y-75549999D01*
X113552172Y-75550000D01*
X114200000Y-75550000D01*
X114200000Y-74633012D01*
X114257007Y-74665925D01*
X114384174Y-74700000D01*
X114515826Y-74700000D01*
X114642993Y-74665925D01*
X114700000Y-74633012D01*
X114700000Y-75550000D01*
X115347828Y-75550000D01*
X115347844Y-75549999D01*
X115407372Y-75543598D01*
X115407379Y-75543596D01*
X115542086Y-75493354D01*
X115542093Y-75493350D01*
X115657187Y-75407190D01*
X115657190Y-75407187D01*
X115743350Y-75292093D01*
X115743354Y-75292086D01*
X115793596Y-75157379D01*
X115793598Y-75157372D01*
X115799999Y-75097844D01*
X115800000Y-75097827D01*
X115800000Y-74695564D01*
X115819685Y-74628525D01*
X115872489Y-74582770D01*
X115941647Y-74572826D01*
X116005203Y-74601851D01*
X116038561Y-74648112D01*
X116045939Y-74665925D01*
X116059059Y-74697598D01*
X116106244Y-74768216D01*
X116174024Y-74869657D01*
X116320342Y-75015975D01*
X116320345Y-75015977D01*
X116492402Y-75130941D01*
X116683580Y-75210130D01*
X116886530Y-75250499D01*
X116886534Y-75250500D01*
X116886535Y-75250500D01*
X117093466Y-75250500D01*
X117093467Y-75250499D01*
X117296420Y-75210130D01*
X117487598Y-75130941D01*
X117659655Y-75015977D01*
X117805977Y-74869655D01*
X117920941Y-74697598D01*
X118000130Y-74506420D01*
X118040500Y-74303465D01*
X118040500Y-74096535D01*
X118040499Y-74096530D01*
X118479500Y-74096530D01*
X118479500Y-74303469D01*
X118519868Y-74506412D01*
X118519870Y-74506420D01*
X118599058Y-74697596D01*
X118714024Y-74869657D01*
X118860342Y-75015975D01*
X118860345Y-75015977D01*
X119032402Y-75130941D01*
X119223580Y-75210130D01*
X119426530Y-75250499D01*
X119426534Y-75250500D01*
X119426535Y-75250500D01*
X119633466Y-75250500D01*
X119633467Y-75250499D01*
X119836420Y-75210130D01*
X120027598Y-75130941D01*
X120199655Y-75015977D01*
X120345977Y-74869655D01*
X120460941Y-74697598D01*
X120540130Y-74506420D01*
X120580500Y-74303465D01*
X120580500Y-74096535D01*
X120580499Y-74096530D01*
X121019500Y-74096530D01*
X121019500Y-74303469D01*
X121059868Y-74506412D01*
X121059870Y-74506420D01*
X121139058Y-74697596D01*
X121254024Y-74869657D01*
X121400342Y-75015975D01*
X121400345Y-75015977D01*
X121572402Y-75130941D01*
X121763580Y-75210130D01*
X121966530Y-75250499D01*
X121966534Y-75250500D01*
X121966535Y-75250500D01*
X122173466Y-75250500D01*
X122173467Y-75250499D01*
X122376420Y-75210130D01*
X122567598Y-75130941D01*
X122739655Y-75015977D01*
X122885977Y-74869655D01*
X123000941Y-74697598D01*
X123080130Y-74506420D01*
X123120500Y-74303465D01*
X123120500Y-74096535D01*
X123120499Y-74096530D01*
X123559500Y-74096530D01*
X123559500Y-74303469D01*
X123599868Y-74506412D01*
X123599870Y-74506420D01*
X123679058Y-74697596D01*
X123794024Y-74869657D01*
X123940342Y-75015975D01*
X123940345Y-75015977D01*
X124112402Y-75130941D01*
X124303580Y-75210130D01*
X124506530Y-75250499D01*
X124506534Y-75250500D01*
X124506535Y-75250500D01*
X124713466Y-75250500D01*
X124713467Y-75250499D01*
X124916420Y-75210130D01*
X125107598Y-75130941D01*
X125279655Y-75015977D01*
X125425977Y-74869655D01*
X125540941Y-74697598D01*
X125620130Y-74506420D01*
X125660500Y-74303465D01*
X125660500Y-74096535D01*
X125660499Y-74096530D01*
X126099500Y-74096530D01*
X126099500Y-74303469D01*
X126139868Y-74506412D01*
X126139870Y-74506420D01*
X126219058Y-74697596D01*
X126334024Y-74869657D01*
X126480342Y-75015975D01*
X126480345Y-75015977D01*
X126652402Y-75130941D01*
X126843580Y-75210130D01*
X127046530Y-75250499D01*
X127046534Y-75250500D01*
X127046535Y-75250500D01*
X127253466Y-75250500D01*
X127253467Y-75250499D01*
X127456420Y-75210130D01*
X127647598Y-75130941D01*
X127819655Y-75015977D01*
X127914689Y-74920943D01*
X153799500Y-74920943D01*
X153799500Y-75079057D01*
X153820487Y-75157379D01*
X153840423Y-75231783D01*
X153840426Y-75231790D01*
X153919475Y-75368709D01*
X153919479Y-75368714D01*
X153919480Y-75368716D01*
X154031284Y-75480520D01*
X154031286Y-75480521D01*
X154031290Y-75480524D01*
X154053506Y-75493350D01*
X154168216Y-75559577D01*
X154320943Y-75600500D01*
X154320945Y-75600500D01*
X154479055Y-75600500D01*
X154479057Y-75600500D01*
X154631784Y-75559577D01*
X154768716Y-75480520D01*
X154880520Y-75368716D01*
X154959577Y-75231784D01*
X155000500Y-75079057D01*
X155000500Y-74920943D01*
X154959577Y-74768216D01*
X154890236Y-74648112D01*
X154880524Y-74631290D01*
X154880518Y-74631282D01*
X154768717Y-74519481D01*
X154768709Y-74519475D01*
X154631790Y-74440426D01*
X154631786Y-74440424D01*
X154631784Y-74440423D01*
X154479057Y-74399500D01*
X154320943Y-74399500D01*
X154168216Y-74440423D01*
X154168209Y-74440426D01*
X154031290Y-74519475D01*
X154031282Y-74519481D01*
X153919481Y-74631282D01*
X153919475Y-74631290D01*
X153840426Y-74768209D01*
X153840423Y-74768216D01*
X153799500Y-74920943D01*
X127914689Y-74920943D01*
X127965977Y-74869655D01*
X128080941Y-74697598D01*
X128160130Y-74506420D01*
X128200500Y-74303465D01*
X128200500Y-74096535D01*
X128160130Y-73893580D01*
X128080941Y-73702402D01*
X127965977Y-73530345D01*
X127965975Y-73530342D01*
X127819657Y-73384024D01*
X127697130Y-73302155D01*
X127647598Y-73269059D01*
X127456420Y-73189870D01*
X127456412Y-73189868D01*
X127253469Y-73149500D01*
X127253465Y-73149500D01*
X127046535Y-73149500D01*
X127046530Y-73149500D01*
X126843587Y-73189868D01*
X126843579Y-73189870D01*
X126652403Y-73269058D01*
X126480342Y-73384024D01*
X126334024Y-73530342D01*
X126219058Y-73702403D01*
X126139870Y-73893579D01*
X126139868Y-73893587D01*
X126099500Y-74096530D01*
X125660499Y-74096530D01*
X125620130Y-73893580D01*
X125540941Y-73702402D01*
X125425977Y-73530345D01*
X125425975Y-73530342D01*
X125279657Y-73384024D01*
X125157130Y-73302155D01*
X125107598Y-73269059D01*
X124916420Y-73189870D01*
X124916412Y-73189868D01*
X124713469Y-73149500D01*
X124713465Y-73149500D01*
X124506535Y-73149500D01*
X124506530Y-73149500D01*
X124303587Y-73189868D01*
X124303579Y-73189870D01*
X124112403Y-73269058D01*
X123940342Y-73384024D01*
X123794024Y-73530342D01*
X123679058Y-73702403D01*
X123599870Y-73893579D01*
X123599868Y-73893587D01*
X123559500Y-74096530D01*
X123120499Y-74096530D01*
X123080130Y-73893580D01*
X123000941Y-73702402D01*
X122885977Y-73530345D01*
X122885975Y-73530342D01*
X122739657Y-73384024D01*
X122617130Y-73302155D01*
X122567598Y-73269059D01*
X122376420Y-73189870D01*
X122376412Y-73189868D01*
X122173469Y-73149500D01*
X122173465Y-73149500D01*
X121966535Y-73149500D01*
X121966530Y-73149500D01*
X121763587Y-73189868D01*
X121763579Y-73189870D01*
X121572403Y-73269058D01*
X121400342Y-73384024D01*
X121254024Y-73530342D01*
X121139058Y-73702403D01*
X121059870Y-73893579D01*
X121059868Y-73893587D01*
X121019500Y-74096530D01*
X120580499Y-74096530D01*
X120540130Y-73893580D01*
X120460941Y-73702402D01*
X120345977Y-73530345D01*
X120345975Y-73530342D01*
X120199657Y-73384024D01*
X120077130Y-73302155D01*
X120027598Y-73269059D01*
X119836420Y-73189870D01*
X119836412Y-73189868D01*
X119633469Y-73149500D01*
X119633465Y-73149500D01*
X119426535Y-73149500D01*
X119426530Y-73149500D01*
X119223587Y-73189868D01*
X119223579Y-73189870D01*
X119032403Y-73269058D01*
X118860342Y-73384024D01*
X118714024Y-73530342D01*
X118599058Y-73702403D01*
X118519870Y-73893579D01*
X118519868Y-73893587D01*
X118479500Y-74096530D01*
X118040499Y-74096530D01*
X118000130Y-73893580D01*
X117920941Y-73702402D01*
X117805977Y-73530345D01*
X117805975Y-73530342D01*
X117659657Y-73384024D01*
X117537130Y-73302155D01*
X117487598Y-73269059D01*
X117296420Y-73189870D01*
X117296412Y-73189868D01*
X117093469Y-73149500D01*
X117093465Y-73149500D01*
X116886535Y-73149500D01*
X116886530Y-73149500D01*
X116683587Y-73189868D01*
X116683579Y-73189870D01*
X116492403Y-73269058D01*
X116320342Y-73384024D01*
X116174024Y-73530342D01*
X116059058Y-73702403D01*
X116038561Y-73751888D01*
X115994720Y-73806291D01*
X115928426Y-73828356D01*
X115860726Y-73811077D01*
X115813116Y-73759939D01*
X115800000Y-73704435D01*
X115800000Y-73302172D01*
X115799999Y-73302155D01*
X115793598Y-73242627D01*
X115793596Y-73242620D01*
X115743354Y-73107913D01*
X115743350Y-73107906D01*
X115657190Y-72992812D01*
X115657187Y-72992809D01*
X115542093Y-72906649D01*
X115542086Y-72906645D01*
X115407379Y-72856403D01*
X115407372Y-72856401D01*
X115347844Y-72850000D01*
X114700000Y-72850000D01*
X114700000Y-73766988D01*
X114642993Y-73734075D01*
X114515826Y-73700000D01*
X114384174Y-73700000D01*
X114257007Y-73734075D01*
X114200000Y-73766988D01*
X114200000Y-72850000D01*
X113552155Y-72850000D01*
X113492627Y-72856401D01*
X113492620Y-72856403D01*
X113357913Y-72906645D01*
X113357906Y-72906649D01*
X113242812Y-72992809D01*
X113242809Y-72992812D01*
X113156649Y-73107906D01*
X113156645Y-73107913D01*
X113106403Y-73242620D01*
X113106401Y-73242627D01*
X113100000Y-73302155D01*
X112800000Y-73302155D01*
X112800000Y-67320943D01*
X130399500Y-67320943D01*
X130399500Y-67479057D01*
X130423525Y-67568717D01*
X130440423Y-67631783D01*
X130440426Y-67631790D01*
X130519475Y-67768709D01*
X130519479Y-67768714D01*
X130519480Y-67768716D01*
X130631284Y-67880520D01*
X130631286Y-67880521D01*
X130631290Y-67880524D01*
X130700641Y-67920563D01*
X130768216Y-67959577D01*
X130920943Y-68000500D01*
X130920945Y-68000500D01*
X131079055Y-68000500D01*
X131079057Y-68000500D01*
X131231784Y-67959577D01*
X131368716Y-67880520D01*
X131480520Y-67768716D01*
X131559577Y-67631784D01*
X131600500Y-67479057D01*
X131600500Y-67320943D01*
X131559577Y-67168216D01*
X131547288Y-67146931D01*
X131532284Y-67120943D01*
X133399500Y-67120943D01*
X133399500Y-67279057D01*
X133440421Y-67431774D01*
X133440423Y-67431783D01*
X133440426Y-67431790D01*
X133519475Y-67568709D01*
X133519479Y-67568714D01*
X133519480Y-67568716D01*
X133631284Y-67680520D01*
X133631286Y-67680521D01*
X133631290Y-67680524D01*
X133736341Y-67741174D01*
X133768216Y-67759577D01*
X133845278Y-67780225D01*
X133904937Y-67816590D01*
X133935466Y-67879437D01*
X133927171Y-67948813D01*
X133882686Y-68002691D01*
X133845279Y-68019774D01*
X133812615Y-68028526D01*
X133768214Y-68040423D01*
X133768209Y-68040426D01*
X133631290Y-68119475D01*
X133631282Y-68119481D01*
X133519481Y-68231282D01*
X133519475Y-68231290D01*
X133440426Y-68368209D01*
X133440423Y-68368216D01*
X133399500Y-68520943D01*
X133399500Y-68679057D01*
X133430806Y-68795890D01*
X133440423Y-68831783D01*
X133440426Y-68831790D01*
X133519475Y-68968709D01*
X133519479Y-68968714D01*
X133519480Y-68968716D01*
X133631284Y-69080520D01*
X133631285Y-69080521D01*
X133631287Y-69080522D01*
X133652229Y-69092613D01*
X133700445Y-69143180D01*
X133713668Y-69211787D01*
X133687700Y-69276652D01*
X133652229Y-69307387D01*
X133631287Y-69319477D01*
X133631282Y-69319481D01*
X133519481Y-69431282D01*
X133519475Y-69431290D01*
X133440426Y-69568209D01*
X133440423Y-69568216D01*
X133399500Y-69720943D01*
X133399500Y-69879056D01*
X133440423Y-70031783D01*
X133440426Y-70031790D01*
X133519475Y-70168709D01*
X133519479Y-70168714D01*
X133519480Y-70168716D01*
X133631284Y-70280520D01*
X133631285Y-70280521D01*
X133631287Y-70280522D01*
X133652229Y-70292613D01*
X133700445Y-70343180D01*
X133713668Y-70411787D01*
X133687700Y-70476652D01*
X133652229Y-70507387D01*
X133631287Y-70519477D01*
X133631282Y-70519481D01*
X133519481Y-70631282D01*
X133519475Y-70631290D01*
X133440426Y-70768209D01*
X133440423Y-70768216D01*
X133399500Y-70920943D01*
X133399500Y-71079057D01*
X133410724Y-71120943D01*
X133440423Y-71231783D01*
X133440426Y-71231790D01*
X133519475Y-71368709D01*
X133519479Y-71368714D01*
X133519480Y-71368716D01*
X133631284Y-71480520D01*
X133631286Y-71480521D01*
X133631290Y-71480524D01*
X133768209Y-71559573D01*
X133768216Y-71559577D01*
X133845278Y-71580225D01*
X133904937Y-71616590D01*
X133935466Y-71679437D01*
X133927171Y-71748813D01*
X133882686Y-71802691D01*
X133845279Y-71819774D01*
X133812615Y-71828526D01*
X133768214Y-71840423D01*
X133768209Y-71840426D01*
X133631290Y-71919475D01*
X133631282Y-71919481D01*
X133519481Y-72031282D01*
X133519475Y-72031290D01*
X133440426Y-72168209D01*
X133440423Y-72168216D01*
X133399500Y-72320943D01*
X133399500Y-72479056D01*
X133440423Y-72631783D01*
X133440426Y-72631790D01*
X133519475Y-72768709D01*
X133519479Y-72768714D01*
X133519480Y-72768716D01*
X133631284Y-72880520D01*
X133631285Y-72880521D01*
X133631287Y-72880522D01*
X133652229Y-72892613D01*
X133700445Y-72943180D01*
X133713668Y-73011787D01*
X133687700Y-73076652D01*
X133652229Y-73107387D01*
X133631287Y-73119477D01*
X133631282Y-73119481D01*
X133519481Y-73231282D01*
X133519475Y-73231290D01*
X133440426Y-73368209D01*
X133440423Y-73368216D01*
X133399500Y-73520943D01*
X133399500Y-73679057D01*
X133439505Y-73828356D01*
X133440423Y-73831783D01*
X133440426Y-73831790D01*
X133519475Y-73968709D01*
X133519479Y-73968714D01*
X133519480Y-73968716D01*
X133631284Y-74080520D01*
X133631286Y-74080521D01*
X133631290Y-74080524D01*
X133724216Y-74134174D01*
X133768216Y-74159577D01*
X133920943Y-74200500D01*
X133920945Y-74200500D01*
X134079055Y-74200500D01*
X134079057Y-74200500D01*
X134231784Y-74159577D01*
X134368716Y-74080520D01*
X134480520Y-73968716D01*
X134559577Y-73831784D01*
X134600500Y-73679057D01*
X134600500Y-73520943D01*
X134559577Y-73368216D01*
X134521437Y-73302155D01*
X134480524Y-73231290D01*
X134480518Y-73231282D01*
X134368717Y-73119481D01*
X134368712Y-73119477D01*
X134347772Y-73107388D01*
X134299555Y-73056822D01*
X134286331Y-72988215D01*
X134312298Y-72923350D01*
X134347772Y-72892612D01*
X134352374Y-72889954D01*
X134368716Y-72880520D01*
X134480520Y-72768716D01*
X134559577Y-72631784D01*
X134600500Y-72479057D01*
X134600500Y-72320943D01*
X134559577Y-72168216D01*
X134559573Y-72168209D01*
X134480524Y-72031290D01*
X134480518Y-72031282D01*
X134368717Y-71919481D01*
X134368709Y-71919475D01*
X134231790Y-71840426D01*
X134231786Y-71840424D01*
X134231784Y-71840423D01*
X134154721Y-71819774D01*
X134095062Y-71783410D01*
X134064533Y-71720563D01*
X134072828Y-71651188D01*
X134117313Y-71597310D01*
X134154720Y-71580225D01*
X134231784Y-71559577D01*
X134368716Y-71480520D01*
X134480520Y-71368716D01*
X134559577Y-71231784D01*
X134589277Y-71120943D01*
X153799500Y-71120943D01*
X153799500Y-71279057D01*
X153823525Y-71368717D01*
X153840423Y-71431783D01*
X153840426Y-71431790D01*
X153919475Y-71568709D01*
X153919479Y-71568714D01*
X153919480Y-71568716D01*
X154031284Y-71680520D01*
X154031286Y-71680521D01*
X154031290Y-71680524D01*
X154100641Y-71720563D01*
X154168216Y-71759577D01*
X154320943Y-71800500D01*
X154320945Y-71800500D01*
X154479055Y-71800500D01*
X154479057Y-71800500D01*
X154631784Y-71759577D01*
X154768716Y-71680520D01*
X154880520Y-71568716D01*
X154959577Y-71431784D01*
X155000500Y-71279057D01*
X155000500Y-71120943D01*
X154959577Y-70968216D01*
X154959573Y-70968209D01*
X154880524Y-70831290D01*
X154880518Y-70831282D01*
X154768717Y-70719481D01*
X154768709Y-70719475D01*
X154631790Y-70640426D01*
X154631786Y-70640424D01*
X154631784Y-70640423D01*
X154479057Y-70599500D01*
X154320943Y-70599500D01*
X154168216Y-70640423D01*
X154168209Y-70640426D01*
X154031290Y-70719475D01*
X154031282Y-70719481D01*
X153919481Y-70831282D01*
X153919475Y-70831290D01*
X153840426Y-70968209D01*
X153840423Y-70968216D01*
X153799500Y-71120943D01*
X134589277Y-71120943D01*
X134600500Y-71079057D01*
X134600500Y-70920943D01*
X134559577Y-70768216D01*
X134531437Y-70719475D01*
X134480524Y-70631290D01*
X134480518Y-70631282D01*
X134368717Y-70519481D01*
X134368712Y-70519477D01*
X134347772Y-70507388D01*
X134299555Y-70456822D01*
X134286331Y-70388215D01*
X134312298Y-70323350D01*
X134347772Y-70292612D01*
X134352374Y-70289954D01*
X134368716Y-70280520D01*
X134480520Y-70168716D01*
X134559577Y-70031784D01*
X134600500Y-69879057D01*
X134600500Y-69720943D01*
X134559577Y-69568216D01*
X134559573Y-69568209D01*
X134480524Y-69431290D01*
X134480518Y-69431282D01*
X134368717Y-69319481D01*
X134368712Y-69319477D01*
X134347772Y-69307388D01*
X134299555Y-69256822D01*
X134286331Y-69188215D01*
X134312298Y-69123350D01*
X134347772Y-69092612D01*
X134368709Y-69080524D01*
X134368716Y-69080520D01*
X134480520Y-68968716D01*
X134559577Y-68831784D01*
X134600500Y-68679057D01*
X134600500Y-68520943D01*
X134559577Y-68368216D01*
X134537225Y-68329500D01*
X134480524Y-68231290D01*
X134480518Y-68231282D01*
X134368717Y-68119481D01*
X134368709Y-68119475D01*
X134231790Y-68040426D01*
X134231786Y-68040424D01*
X134231784Y-68040423D01*
X134154721Y-68019774D01*
X134095062Y-67983410D01*
X134064533Y-67920563D01*
X134072828Y-67851188D01*
X134117313Y-67797310D01*
X134154720Y-67780225D01*
X134231784Y-67759577D01*
X134368716Y-67680520D01*
X134480520Y-67568716D01*
X134559577Y-67431784D01*
X134600500Y-67279057D01*
X134600500Y-67120943D01*
X134559577Y-66968216D01*
X134531437Y-66919475D01*
X134480524Y-66831290D01*
X134480518Y-66831282D01*
X134368717Y-66719481D01*
X134368712Y-66719477D01*
X134271529Y-66663369D01*
X134271528Y-66663369D01*
X134231784Y-66640423D01*
X134079057Y-66599500D01*
X133920943Y-66599500D01*
X133768216Y-66640423D01*
X133768209Y-66640426D01*
X133631290Y-66719475D01*
X133631282Y-66719481D01*
X133519481Y-66831282D01*
X133519475Y-66831290D01*
X133440426Y-66968209D01*
X133440423Y-66968216D01*
X133399500Y-67120943D01*
X131532284Y-67120943D01*
X131480522Y-67031287D01*
X131480518Y-67031282D01*
X131368717Y-66919481D01*
X131368709Y-66919475D01*
X131231790Y-66840426D01*
X131231786Y-66840424D01*
X131231784Y-66840423D01*
X131079057Y-66799500D01*
X130920943Y-66799500D01*
X130768216Y-66840423D01*
X130768209Y-66840426D01*
X130631290Y-66919475D01*
X130631282Y-66919481D01*
X130519481Y-67031282D01*
X130519475Y-67031290D01*
X130440426Y-67168209D01*
X130440426Y-67168210D01*
X130440423Y-67168216D01*
X130399500Y-67320943D01*
X112800000Y-67320943D01*
X112800000Y-66564108D01*
X140849500Y-66564108D01*
X140849500Y-66695891D01*
X140883608Y-66823187D01*
X140906946Y-66863608D01*
X140949500Y-66937314D01*
X141042686Y-67030500D01*
X141156814Y-67096392D01*
X141284108Y-67130500D01*
X141284110Y-67130500D01*
X141424019Y-67130500D01*
X141424019Y-67133600D01*
X141426421Y-67133974D01*
X141443371Y-67131537D01*
X141460227Y-67139235D01*
X141478540Y-67142085D01*
X141491351Y-67153448D01*
X141506927Y-67160562D01*
X141516945Y-67176150D01*
X141530810Y-67188449D01*
X141535630Y-67205226D01*
X141544701Y-67219340D01*
X141546559Y-67243260D01*
X141549724Y-67254275D01*
X141549724Y-67263272D01*
X141549500Y-67264108D01*
X141549500Y-67395892D01*
X141549724Y-67396727D01*
X141549724Y-67405724D01*
X141542074Y-67431774D01*
X141537883Y-67458604D01*
X141532375Y-67464806D01*
X141530039Y-67472763D01*
X141509522Y-67490540D01*
X141491489Y-67510848D01*
X141483501Y-67513088D01*
X141477235Y-67518518D01*
X141450362Y-67522381D01*
X141424215Y-67529715D01*
X141421208Y-67529500D01*
X141415892Y-67529500D01*
X141284108Y-67529500D01*
X141156812Y-67563608D01*
X141042686Y-67629500D01*
X141042683Y-67629502D01*
X140949502Y-67722683D01*
X140949500Y-67722686D01*
X140883608Y-67836812D01*
X140849500Y-67964108D01*
X140849500Y-68095891D01*
X140883608Y-68223187D01*
X140906946Y-68263608D01*
X140949500Y-68337314D01*
X141042686Y-68430500D01*
X141156814Y-68496392D01*
X141284108Y-68530500D01*
X141284110Y-68530500D01*
X141424019Y-68530500D01*
X141424019Y-68533600D01*
X141478540Y-68542085D01*
X141530810Y-68588449D01*
X141549716Y-68655712D01*
X141549500Y-68658745D01*
X141549500Y-68795891D01*
X141583608Y-68923187D01*
X141609891Y-68968709D01*
X141649500Y-69037314D01*
X141742686Y-69130500D01*
X141856814Y-69196392D01*
X141984108Y-69230500D01*
X141984110Y-69230500D01*
X142115890Y-69230500D01*
X142115892Y-69230500D01*
X142243186Y-69196392D01*
X142357314Y-69130500D01*
X142450500Y-69037314D01*
X142516392Y-68923186D01*
X142550500Y-68795892D01*
X142550500Y-68664108D01*
X142550500Y-68655981D01*
X142553659Y-68655981D01*
X142553684Y-68655817D01*
X142551042Y-68641004D01*
X142558958Y-68621996D01*
X142562131Y-68601652D01*
X142572119Y-68590397D01*
X142577906Y-68576505D01*
X142594842Y-68564794D01*
X142608510Y-68549395D01*
X142623927Y-68544684D01*
X142635376Y-68536769D01*
X142665951Y-68531845D01*
X142670122Y-68530571D01*
X142672225Y-68530500D01*
X142790892Y-68530500D01*
X142807996Y-68525917D01*
X142822187Y-68525438D01*
X142842819Y-68530747D01*
X142864121Y-68531253D01*
X142875982Y-68539280D01*
X142889852Y-68542849D01*
X142904339Y-68558471D01*
X142921985Y-68570413D01*
X142927623Y-68583578D01*
X142937362Y-68594080D01*
X142941103Y-68615054D01*
X142949492Y-68634640D01*
X142949367Y-68655981D01*
X142949500Y-68655981D01*
X142949500Y-68662117D01*
X142949633Y-68662863D01*
X142949500Y-68663182D01*
X142949500Y-68795891D01*
X142983608Y-68923187D01*
X143009891Y-68968709D01*
X143049500Y-69037314D01*
X143142686Y-69130500D01*
X143256814Y-69196392D01*
X143384108Y-69230500D01*
X143384110Y-69230500D01*
X143515890Y-69230500D01*
X143515892Y-69230500D01*
X143643186Y-69196392D01*
X143757314Y-69130500D01*
X143850500Y-69037314D01*
X143916392Y-68923186D01*
X143950500Y-68795892D01*
X143950500Y-68664108D01*
X143950500Y-68655981D01*
X143953599Y-68655981D01*
X143962089Y-68601451D01*
X144008457Y-68549184D01*
X144075722Y-68530283D01*
X144078754Y-68530500D01*
X144084108Y-68530500D01*
X144215890Y-68530500D01*
X144215892Y-68530500D01*
X144251560Y-68520943D01*
X153799500Y-68520943D01*
X153799500Y-68679057D01*
X153830806Y-68795890D01*
X153840423Y-68831783D01*
X153840426Y-68831790D01*
X153919475Y-68968709D01*
X153919479Y-68968714D01*
X153919480Y-68968716D01*
X154031284Y-69080520D01*
X154031286Y-69080521D01*
X154031290Y-69080524D01*
X154139815Y-69143180D01*
X154168216Y-69159577D01*
X154320943Y-69200500D01*
X154320945Y-69200500D01*
X154479055Y-69200500D01*
X154479057Y-69200500D01*
X154631784Y-69159577D01*
X154768716Y-69080520D01*
X154880520Y-68968716D01*
X154959577Y-68831784D01*
X155000500Y-68679057D01*
X155000500Y-68520943D01*
X154959577Y-68368216D01*
X154937225Y-68329500D01*
X154880524Y-68231290D01*
X154880518Y-68231282D01*
X154768717Y-68119481D01*
X154768709Y-68119475D01*
X154631790Y-68040426D01*
X154631786Y-68040424D01*
X154631784Y-68040423D01*
X154479057Y-67999500D01*
X154320943Y-67999500D01*
X154168216Y-68040423D01*
X154168209Y-68040426D01*
X154031290Y-68119475D01*
X154031282Y-68119481D01*
X153919481Y-68231282D01*
X153919475Y-68231290D01*
X153840426Y-68368209D01*
X153840423Y-68368216D01*
X153799500Y-68520943D01*
X144251560Y-68520943D01*
X144343186Y-68496392D01*
X144457314Y-68430500D01*
X144550500Y-68337314D01*
X144616392Y-68223186D01*
X144650500Y-68095892D01*
X144650500Y-67964108D01*
X144616392Y-67836814D01*
X144550500Y-67722686D01*
X144457314Y-67629500D01*
X144400250Y-67596554D01*
X144343187Y-67563608D01*
X144279539Y-67546554D01*
X144215892Y-67529500D01*
X144084108Y-67529500D01*
X144075981Y-67529500D01*
X144075981Y-67526412D01*
X144073537Y-67526030D01*
X144056628Y-67528462D01*
X144039734Y-67520746D01*
X144021386Y-67517879D01*
X144008612Y-67506534D01*
X143993072Y-67499437D01*
X143983031Y-67483813D01*
X143969146Y-67471481D01*
X143964337Y-67454724D01*
X143955298Y-67440659D01*
X143953452Y-67416794D01*
X143950275Y-67405724D01*
X143950275Y-67396731D01*
X143950500Y-67395892D01*
X143950500Y-67264108D01*
X143950275Y-67263268D01*
X143950275Y-67254275D01*
X143957916Y-67228252D01*
X143962089Y-67201451D01*
X143967615Y-67195221D01*
X143969960Y-67187236D01*
X143990452Y-67169479D01*
X144008457Y-67149184D01*
X144016474Y-67146931D01*
X144022764Y-67141481D01*
X144049605Y-67137621D01*
X144075722Y-67130283D01*
X144078754Y-67130500D01*
X144084108Y-67130500D01*
X144215890Y-67130500D01*
X144215892Y-67130500D01*
X144343186Y-67096392D01*
X144457314Y-67030500D01*
X144550500Y-66937314D01*
X144616392Y-66823186D01*
X144650500Y-66695892D01*
X144650500Y-66564108D01*
X144616392Y-66436814D01*
X144550500Y-66322686D01*
X144457314Y-66229500D01*
X144388467Y-66189751D01*
X144343187Y-66163608D01*
X144235011Y-66134623D01*
X144215892Y-66129500D01*
X144084108Y-66129500D01*
X144075981Y-66129500D01*
X144075981Y-66126412D01*
X144040990Y-66120943D01*
X155599500Y-66120943D01*
X155599500Y-66279057D01*
X155621946Y-66362824D01*
X155640423Y-66431783D01*
X155640426Y-66431790D01*
X155719475Y-66568709D01*
X155719479Y-66568714D01*
X155719480Y-66568716D01*
X155831284Y-66680520D01*
X155831286Y-66680521D01*
X155831290Y-66680524D01*
X155898760Y-66719477D01*
X155968216Y-66759577D01*
X156120943Y-66800500D01*
X156120945Y-66800500D01*
X156279055Y-66800500D01*
X156279057Y-66800500D01*
X156431784Y-66759577D01*
X156568716Y-66680520D01*
X156680520Y-66568716D01*
X156759577Y-66431784D01*
X156800500Y-66279057D01*
X156800500Y-66120943D01*
X156759577Y-65968216D01*
X156699471Y-65864108D01*
X156680524Y-65831290D01*
X156680518Y-65831282D01*
X156568717Y-65719481D01*
X156568709Y-65719475D01*
X156431790Y-65640426D01*
X156431786Y-65640424D01*
X156431784Y-65640423D01*
X156279057Y-65599500D01*
X156120943Y-65599500D01*
X155968216Y-65640423D01*
X155968209Y-65640426D01*
X155831290Y-65719475D01*
X155831282Y-65719481D01*
X155719481Y-65831282D01*
X155719475Y-65831290D01*
X155640426Y-65968209D01*
X155640423Y-65968216D01*
X155599500Y-66120943D01*
X144040990Y-66120943D01*
X144021386Y-66117879D01*
X143969146Y-66071481D01*
X143950284Y-66004206D01*
X143950500Y-66001201D01*
X143950500Y-65864110D01*
X143950500Y-65864108D01*
X143916392Y-65736814D01*
X143850500Y-65622686D01*
X143757314Y-65529500D01*
X143700250Y-65496554D01*
X143643187Y-65463608D01*
X143579539Y-65446554D01*
X143515892Y-65429500D01*
X143384108Y-65429500D01*
X143256812Y-65463608D01*
X143142686Y-65529500D01*
X143142683Y-65529502D01*
X143049502Y-65622683D01*
X143049500Y-65622686D01*
X142983608Y-65736812D01*
X142949500Y-65864108D01*
X142949500Y-66004019D01*
X142947819Y-66004019D01*
X142938539Y-66063492D01*
X142892154Y-66115744D01*
X142824883Y-66134623D01*
X142822188Y-66134561D01*
X142807992Y-66134081D01*
X142790892Y-66129500D01*
X142672227Y-66129500D01*
X142670123Y-66129429D01*
X142638857Y-66119091D01*
X142607266Y-66109815D01*
X142605846Y-66108176D01*
X142603785Y-66107495D01*
X142583055Y-66081874D01*
X142561511Y-66057011D01*
X142561186Y-66054845D01*
X142559837Y-66053178D01*
X142556853Y-66025934D01*
X142553570Y-66004019D01*
X142550500Y-66004019D01*
X142550500Y-65864110D01*
X142550500Y-65864108D01*
X142516392Y-65736814D01*
X142450500Y-65622686D01*
X142357314Y-65529500D01*
X142300250Y-65496554D01*
X142243187Y-65463608D01*
X142179539Y-65446554D01*
X142115892Y-65429500D01*
X141984108Y-65429500D01*
X141856812Y-65463608D01*
X141742686Y-65529500D01*
X141742683Y-65529502D01*
X141649502Y-65622683D01*
X141649500Y-65622686D01*
X141583608Y-65736812D01*
X141549500Y-65864108D01*
X141549500Y-66004019D01*
X141546411Y-66004019D01*
X141537883Y-66058604D01*
X141491489Y-66110848D01*
X141424215Y-66129715D01*
X141421208Y-66129500D01*
X141415892Y-66129500D01*
X141284108Y-66129500D01*
X141156812Y-66163608D01*
X141042686Y-66229500D01*
X141042683Y-66229502D01*
X140949502Y-66322683D01*
X140949500Y-66322686D01*
X140883608Y-66436812D01*
X140849500Y-66564108D01*
X112800000Y-66564108D01*
X112800000Y-63720943D01*
X124799500Y-63720943D01*
X124799500Y-63879057D01*
X124832041Y-64000500D01*
X124840423Y-64031783D01*
X124840426Y-64031790D01*
X124919475Y-64168709D01*
X124919479Y-64168714D01*
X124919480Y-64168716D01*
X125031284Y-64280520D01*
X125031286Y-64280521D01*
X125031290Y-64280524D01*
X125168209Y-64359573D01*
X125168216Y-64359577D01*
X125320943Y-64400500D01*
X125320945Y-64400500D01*
X125479055Y-64400500D01*
X125479057Y-64400500D01*
X125631784Y-64359577D01*
X125768716Y-64280520D01*
X125880520Y-64168716D01*
X125959577Y-64031784D01*
X126000500Y-63879057D01*
X126000500Y-63720943D01*
X125959577Y-63568216D01*
X125908101Y-63479056D01*
X125880524Y-63431290D01*
X125880518Y-63431282D01*
X125768717Y-63319481D01*
X125768709Y-63319475D01*
X125631790Y-63240426D01*
X125631786Y-63240424D01*
X125631784Y-63240423D01*
X125479057Y-63199500D01*
X125320943Y-63199500D01*
X125168216Y-63240423D01*
X125168209Y-63240426D01*
X125031290Y-63319475D01*
X125031282Y-63319481D01*
X124919481Y-63431282D01*
X124919475Y-63431290D01*
X124840426Y-63568209D01*
X124840423Y-63568216D01*
X124799500Y-63720943D01*
X112800000Y-63720943D01*
X112800000Y-61720943D01*
X116199500Y-61720943D01*
X116199500Y-61879057D01*
X116240289Y-62031282D01*
X116240423Y-62031783D01*
X116240426Y-62031790D01*
X116319475Y-62168709D01*
X116319479Y-62168714D01*
X116319480Y-62168716D01*
X116431284Y-62280520D01*
X116431286Y-62280521D01*
X116431290Y-62280524D01*
X116517887Y-62330520D01*
X116568216Y-62359577D01*
X116720943Y-62400500D01*
X116720945Y-62400500D01*
X116879055Y-62400500D01*
X116879057Y-62400500D01*
X117031784Y-62359577D01*
X117168716Y-62280520D01*
X117280520Y-62168716D01*
X117359577Y-62031784D01*
X117400500Y-61879057D01*
X117400500Y-61770943D01*
X119149500Y-61770943D01*
X119149500Y-61929057D01*
X119177026Y-62031783D01*
X119190423Y-62081783D01*
X119190426Y-62081790D01*
X119269475Y-62218709D01*
X119269479Y-62218714D01*
X119269480Y-62218716D01*
X119381284Y-62330520D01*
X119381286Y-62330521D01*
X119381290Y-62330524D01*
X119502492Y-62400499D01*
X119518216Y-62409577D01*
X119670943Y-62450500D01*
X119670945Y-62450500D01*
X119829055Y-62450500D01*
X119829057Y-62450500D01*
X119981784Y-62409577D01*
X120118716Y-62330520D01*
X120128293Y-62320943D01*
X121599500Y-62320943D01*
X121599500Y-62479057D01*
X121623525Y-62568717D01*
X121640423Y-62631783D01*
X121640426Y-62631790D01*
X121719475Y-62768709D01*
X121719479Y-62768714D01*
X121719480Y-62768716D01*
X121831284Y-62880520D01*
X121831286Y-62880521D01*
X121831290Y-62880524D01*
X121898760Y-62919477D01*
X121968216Y-62959577D01*
X122120943Y-63000500D01*
X122120945Y-63000500D01*
X122279055Y-63000500D01*
X122279057Y-63000500D01*
X122431784Y-62959577D01*
X122568716Y-62880520D01*
X122680520Y-62768716D01*
X122759577Y-62631784D01*
X122800500Y-62479057D01*
X122800500Y-62320943D01*
X129199500Y-62320943D01*
X129199500Y-62479057D01*
X129223525Y-62568717D01*
X129240423Y-62631783D01*
X129240426Y-62631790D01*
X129319475Y-62768709D01*
X129319479Y-62768714D01*
X129319480Y-62768716D01*
X129431284Y-62880520D01*
X129431286Y-62880521D01*
X129431290Y-62880524D01*
X129498760Y-62919477D01*
X129568216Y-62959577D01*
X129720943Y-63000500D01*
X129720945Y-63000500D01*
X129879055Y-63000500D01*
X129879057Y-63000500D01*
X130031784Y-62959577D01*
X130168716Y-62880520D01*
X130280520Y-62768716D01*
X130359577Y-62631784D01*
X130400500Y-62479057D01*
X130400500Y-62320943D01*
X131199500Y-62320943D01*
X131199500Y-62479057D01*
X131223525Y-62568717D01*
X131240423Y-62631783D01*
X131240426Y-62631790D01*
X131319475Y-62768709D01*
X131319479Y-62768714D01*
X131319480Y-62768716D01*
X131431284Y-62880520D01*
X131431286Y-62880521D01*
X131431290Y-62880524D01*
X131498760Y-62919477D01*
X131568216Y-62959577D01*
X131720943Y-63000500D01*
X131720945Y-63000500D01*
X131879055Y-63000500D01*
X131879057Y-63000500D01*
X132031784Y-62959577D01*
X132168716Y-62880520D01*
X132280520Y-62768716D01*
X132359577Y-62631784D01*
X132400500Y-62479057D01*
X132400500Y-62320943D01*
X132359577Y-62168216D01*
X132332285Y-62120945D01*
X132332284Y-62120943D01*
X153799500Y-62120943D01*
X153799500Y-62279057D01*
X153834473Y-62409576D01*
X153840423Y-62431783D01*
X153840426Y-62431790D01*
X153919475Y-62568709D01*
X153919479Y-62568714D01*
X153919480Y-62568716D01*
X154031284Y-62680520D01*
X154031286Y-62680521D01*
X154031290Y-62680524D01*
X154169623Y-62760390D01*
X154217839Y-62810956D01*
X154231063Y-62879563D01*
X154205095Y-62944428D01*
X154195306Y-62955458D01*
X154119478Y-63031286D01*
X154119475Y-63031290D01*
X154040426Y-63168209D01*
X154040423Y-63168216D01*
X153999500Y-63320943D01*
X153999500Y-63479056D01*
X154040423Y-63631783D01*
X154040426Y-63631790D01*
X154119475Y-63768709D01*
X154119479Y-63768714D01*
X154119480Y-63768716D01*
X154231284Y-63880520D01*
X154231286Y-63880521D01*
X154231290Y-63880524D01*
X154369623Y-63960390D01*
X154417839Y-64010956D01*
X154431063Y-64079563D01*
X154405095Y-64144428D01*
X154395306Y-64155458D01*
X154319478Y-64231286D01*
X154319475Y-64231290D01*
X154240426Y-64368209D01*
X154240423Y-64368216D01*
X154199500Y-64520943D01*
X154199500Y-64679056D01*
X154240423Y-64831783D01*
X154240426Y-64831790D01*
X154319475Y-64968709D01*
X154319479Y-64968714D01*
X154319480Y-64968716D01*
X154431284Y-65080520D01*
X154431286Y-65080521D01*
X154431290Y-65080524D01*
X154568209Y-65159573D01*
X154568216Y-65159577D01*
X154720943Y-65200500D01*
X154720945Y-65200500D01*
X154879055Y-65200500D01*
X154879057Y-65200500D01*
X155031784Y-65159577D01*
X155168716Y-65080520D01*
X155280520Y-64968716D01*
X155359577Y-64831784D01*
X155400500Y-64679057D01*
X155400500Y-64520943D01*
X155359577Y-64368216D01*
X155354587Y-64359573D01*
X155280524Y-64231290D01*
X155280518Y-64231282D01*
X155168717Y-64119481D01*
X155168712Y-64119477D01*
X155030375Y-64039609D01*
X154982160Y-63989042D01*
X154968936Y-63920435D01*
X154994904Y-63855571D01*
X155004678Y-63844557D01*
X155080520Y-63768716D01*
X155159577Y-63631784D01*
X155200500Y-63479057D01*
X155200500Y-63320943D01*
X155159577Y-63168216D01*
X155159573Y-63168209D01*
X155080524Y-63031290D01*
X155080518Y-63031282D01*
X154968717Y-62919481D01*
X154968712Y-62919477D01*
X154830375Y-62839609D01*
X154782160Y-62789042D01*
X154768936Y-62720435D01*
X154794904Y-62655571D01*
X154804678Y-62644557D01*
X154880520Y-62568716D01*
X154959577Y-62431784D01*
X155000500Y-62279057D01*
X155000500Y-62120943D01*
X154959577Y-61968216D01*
X154908101Y-61879056D01*
X154880524Y-61831290D01*
X154880518Y-61831282D01*
X154768717Y-61719481D01*
X154768709Y-61719475D01*
X154631790Y-61640426D01*
X154631786Y-61640424D01*
X154631784Y-61640423D01*
X154479057Y-61599500D01*
X154320943Y-61599500D01*
X154168216Y-61640423D01*
X154168209Y-61640426D01*
X154031290Y-61719475D01*
X154031282Y-61719481D01*
X153919481Y-61831282D01*
X153919475Y-61831290D01*
X153840426Y-61968209D01*
X153840423Y-61968216D01*
X153799500Y-62120943D01*
X132332284Y-62120943D01*
X132280522Y-62031287D01*
X132280518Y-62031282D01*
X132168717Y-61919481D01*
X132168709Y-61919475D01*
X132031790Y-61840426D01*
X132031786Y-61840424D01*
X132031784Y-61840423D01*
X131879057Y-61799500D01*
X131720943Y-61799500D01*
X131568216Y-61840423D01*
X131568209Y-61840426D01*
X131431290Y-61919475D01*
X131431282Y-61919481D01*
X131319481Y-62031282D01*
X131319475Y-62031290D01*
X131240426Y-62168209D01*
X131240426Y-62168210D01*
X131240423Y-62168216D01*
X131199500Y-62320943D01*
X130400500Y-62320943D01*
X130359577Y-62168216D01*
X130359573Y-62168209D01*
X130280524Y-62031290D01*
X130280518Y-62031282D01*
X130168717Y-61919481D01*
X130168709Y-61919475D01*
X130031790Y-61840426D01*
X130031786Y-61840424D01*
X130031784Y-61840423D01*
X129879057Y-61799500D01*
X129720943Y-61799500D01*
X129568216Y-61840423D01*
X129568209Y-61840426D01*
X129431290Y-61919475D01*
X129431282Y-61919481D01*
X129319481Y-62031282D01*
X129319475Y-62031290D01*
X129240426Y-62168209D01*
X129240426Y-62168210D01*
X129240423Y-62168216D01*
X129199500Y-62320943D01*
X122800500Y-62320943D01*
X122759577Y-62168216D01*
X122759573Y-62168209D01*
X122680524Y-62031290D01*
X122680518Y-62031282D01*
X122568717Y-61919481D01*
X122568709Y-61919475D01*
X122431790Y-61840426D01*
X122431786Y-61840424D01*
X122431784Y-61840423D01*
X122279057Y-61799500D01*
X122120943Y-61799500D01*
X121968216Y-61840423D01*
X121968209Y-61840426D01*
X121831290Y-61919475D01*
X121831282Y-61919481D01*
X121719481Y-62031282D01*
X121719475Y-62031290D01*
X121640426Y-62168209D01*
X121640426Y-62168210D01*
X121640423Y-62168216D01*
X121599500Y-62320943D01*
X120128293Y-62320943D01*
X120230520Y-62218716D01*
X120309577Y-62081784D01*
X120350500Y-61929057D01*
X120350500Y-61770943D01*
X120309577Y-61618216D01*
X120309573Y-61618209D01*
X120230524Y-61481290D01*
X120230518Y-61481282D01*
X120118717Y-61369481D01*
X120118709Y-61369475D01*
X119981790Y-61290426D01*
X119981786Y-61290424D01*
X119981784Y-61290423D01*
X119829057Y-61249500D01*
X119670943Y-61249500D01*
X119518216Y-61290423D01*
X119518209Y-61290426D01*
X119381290Y-61369475D01*
X119381282Y-61369481D01*
X119269481Y-61481282D01*
X119269475Y-61481290D01*
X119190426Y-61618209D01*
X119190423Y-61618216D01*
X119149500Y-61770943D01*
X117400500Y-61770943D01*
X117400500Y-61720943D01*
X117359577Y-61568216D01*
X117309391Y-61481290D01*
X117280524Y-61431290D01*
X117280518Y-61431282D01*
X117168717Y-61319481D01*
X117168709Y-61319475D01*
X117031790Y-61240426D01*
X117031786Y-61240424D01*
X117031784Y-61240423D01*
X116879057Y-61199500D01*
X116720943Y-61199500D01*
X116568216Y-61240423D01*
X116568209Y-61240426D01*
X116431290Y-61319475D01*
X116431282Y-61319481D01*
X116319481Y-61431282D01*
X116319475Y-61431290D01*
X116240426Y-61568209D01*
X116240423Y-61568216D01*
X116199500Y-61720943D01*
X112800000Y-61720943D01*
X112800000Y-59520943D01*
X133399500Y-59520943D01*
X133399500Y-59679056D01*
X133440423Y-59831783D01*
X133440426Y-59831790D01*
X133519475Y-59968709D01*
X133519479Y-59968714D01*
X133519480Y-59968716D01*
X133631284Y-60080520D01*
X133631286Y-60080521D01*
X133631290Y-60080524D01*
X133768209Y-60159573D01*
X133768216Y-60159577D01*
X133920943Y-60200500D01*
X133920945Y-60200500D01*
X134079055Y-60200500D01*
X134079057Y-60200500D01*
X134231784Y-60159577D01*
X134368716Y-60080520D01*
X134480520Y-59968716D01*
X134559577Y-59831784D01*
X134600500Y-59679057D01*
X134600500Y-59520943D01*
X153999500Y-59520943D01*
X153999500Y-59679056D01*
X154040423Y-59831783D01*
X154040426Y-59831790D01*
X154119475Y-59968709D01*
X154119479Y-59968714D01*
X154119480Y-59968716D01*
X154231284Y-60080520D01*
X154231286Y-60080521D01*
X154231290Y-60080524D01*
X154368209Y-60159573D01*
X154368216Y-60159577D01*
X154520943Y-60200500D01*
X154520945Y-60200500D01*
X154679055Y-60200500D01*
X154679057Y-60200500D01*
X154831784Y-60159577D01*
X154968716Y-60080520D01*
X155080520Y-59968716D01*
X155159577Y-59831784D01*
X155200500Y-59679057D01*
X155200500Y-59520943D01*
X155159577Y-59368216D01*
X155159573Y-59368209D01*
X155080524Y-59231290D01*
X155080518Y-59231282D01*
X154968717Y-59119481D01*
X154968709Y-59119475D01*
X154831790Y-59040426D01*
X154831786Y-59040424D01*
X154831784Y-59040423D01*
X154679057Y-58999500D01*
X154520943Y-58999500D01*
X154368216Y-59040423D01*
X154368209Y-59040426D01*
X154231290Y-59119475D01*
X154231282Y-59119481D01*
X154119481Y-59231282D01*
X154119475Y-59231290D01*
X154040426Y-59368209D01*
X154040423Y-59368216D01*
X153999500Y-59520943D01*
X134600500Y-59520943D01*
X134559577Y-59368216D01*
X134559573Y-59368209D01*
X134480524Y-59231290D01*
X134480518Y-59231282D01*
X134368717Y-59119481D01*
X134368709Y-59119475D01*
X134231790Y-59040426D01*
X134231786Y-59040424D01*
X134231784Y-59040423D01*
X134079057Y-58999500D01*
X133920943Y-58999500D01*
X133768216Y-59040423D01*
X133768209Y-59040426D01*
X133631290Y-59119475D01*
X133631282Y-59119481D01*
X133519481Y-59231282D01*
X133519475Y-59231290D01*
X133440426Y-59368209D01*
X133440423Y-59368216D01*
X133399500Y-59520943D01*
X112800000Y-59520943D01*
X112800000Y-58524500D01*
X112819685Y-58457461D01*
X112872489Y-58411706D01*
X112924000Y-58400500D01*
X157475500Y-58400500D01*
X157542539Y-58420185D01*
G37*
%TD.AperFunction*%
%TD*%
%TA.AperFunction,Conductor*%
%TO.N,VCC*%
G36*
X112537539Y-58420185D02*
G01*
X112583294Y-58472989D01*
X112594500Y-58524500D01*
X112594500Y-61446755D01*
X112574815Y-61513794D01*
X112522011Y-61559549D01*
X112452853Y-61569493D01*
X112389297Y-61540468D01*
X112351523Y-61481690D01*
X112347561Y-61462941D01*
X112320548Y-61257763D01*
X112320543Y-61257743D01*
X112309485Y-61216474D01*
X112308516Y-61210042D01*
X112302776Y-61191438D01*
X112261158Y-61036113D01*
X112236511Y-60976610D01*
X112231313Y-60959757D01*
X112218569Y-60933295D01*
X112173344Y-60824112D01*
X112173341Y-60824108D01*
X112173338Y-60824100D01*
X112142853Y-60771300D01*
X112129008Y-60747319D01*
X112117669Y-60723773D01*
X112102949Y-60702185D01*
X112058611Y-60625388D01*
X112058603Y-60625378D01*
X111988792Y-60534399D01*
X111986666Y-60531628D01*
X111970123Y-60507363D01*
X111958119Y-60494426D01*
X111918919Y-60443339D01*
X111805219Y-60329639D01*
X111791971Y-60315361D01*
X111786885Y-60311305D01*
X111781965Y-60306385D01*
X111756661Y-60281081D01*
X111574617Y-60141392D01*
X111375890Y-60026657D01*
X111375876Y-60026650D01*
X111163887Y-59938842D01*
X111163883Y-59938841D01*
X111163879Y-59938840D01*
X111160704Y-59937989D01*
X111129323Y-59929580D01*
X111129323Y-59929579D01*
X111122587Y-59927774D01*
X111116545Y-59925403D01*
X111097571Y-59921072D01*
X111095334Y-59920473D01*
X111095321Y-59920470D01*
X110942245Y-59879454D01*
X110942238Y-59879452D01*
X110942232Y-59879451D01*
X110942231Y-59879451D01*
X110884143Y-59871803D01*
X110884143Y-59871802D01*
X110878378Y-59871043D01*
X110861190Y-59867120D01*
X110831900Y-59864925D01*
X110828443Y-59864470D01*
X110714743Y-59849501D01*
X110714740Y-59849500D01*
X110714734Y-59849500D01*
X110626062Y-59849500D01*
X110600000Y-59847547D01*
X110573938Y-59849500D01*
X110485264Y-59849500D01*
X110371555Y-59864468D01*
X110371556Y-59864469D01*
X110368080Y-59864926D01*
X110338810Y-59867120D01*
X110321627Y-59871041D01*
X110315868Y-59871800D01*
X110315860Y-59871802D01*
X110257767Y-59879451D01*
X110257753Y-59879454D01*
X110104682Y-59920467D01*
X110104683Y-59920468D01*
X110102420Y-59921074D01*
X110083455Y-59925403D01*
X110077406Y-59927776D01*
X110070681Y-59929579D01*
X110070679Y-59929578D01*
X110036116Y-59938840D01*
X109824118Y-60026653D01*
X109824109Y-60026657D01*
X109625387Y-60141389D01*
X109443334Y-60281084D01*
X109443331Y-60281087D01*
X109418028Y-60306389D01*
X109413099Y-60311317D01*
X109408029Y-60315361D01*
X109394818Y-60329598D01*
X109393150Y-60331267D01*
X109281086Y-60443332D01*
X109281081Y-60443338D01*
X109245405Y-60489830D01*
X109241866Y-60494441D01*
X109229877Y-60507363D01*
X109213342Y-60531614D01*
X109211209Y-60534395D01*
X109141395Y-60625378D01*
X109141388Y-60625389D01*
X109099376Y-60698156D01*
X109099375Y-60698155D01*
X109097041Y-60702196D01*
X109082331Y-60723773D01*
X109070998Y-60747306D01*
X109068672Y-60751335D01*
X109068668Y-60751344D01*
X109026657Y-60824110D01*
X109026653Y-60824118D01*
X108982762Y-60930076D01*
X108981418Y-60933320D01*
X108968687Y-60959757D01*
X108963489Y-60976605D01*
X108961268Y-60981970D01*
X108961267Y-60981972D01*
X108938844Y-61036105D01*
X108897821Y-61189202D01*
X108897820Y-61189201D01*
X108897207Y-61191485D01*
X108891484Y-61210042D01*
X108890516Y-61216462D01*
X108888712Y-61223197D01*
X108879456Y-61257743D01*
X108879452Y-61257763D01*
X108849500Y-61485258D01*
X108849500Y-61714741D01*
X108879452Y-61942238D01*
X108888711Y-61976797D01*
X108890515Y-61983530D01*
X108891484Y-61989958D01*
X108897221Y-62008557D01*
X108897821Y-62010796D01*
X108897825Y-62010810D01*
X108938843Y-62163890D01*
X108961266Y-62218024D01*
X108961267Y-62218025D01*
X108963486Y-62223383D01*
X108968687Y-62240243D01*
X108981429Y-62266702D01*
X108982764Y-62269925D01*
X108982764Y-62269927D01*
X109026655Y-62375887D01*
X109026660Y-62375896D01*
X109065134Y-62442534D01*
X109069624Y-62450311D01*
X109070988Y-62452674D01*
X109082331Y-62476227D01*
X109097054Y-62497822D01*
X109099374Y-62501840D01*
X109099374Y-62501842D01*
X109141390Y-62574613D01*
X109211209Y-62665604D01*
X109211210Y-62665604D01*
X109213328Y-62668365D01*
X109229877Y-62692637D01*
X109241877Y-62705570D01*
X109245403Y-62710165D01*
X109245404Y-62710168D01*
X109274217Y-62747716D01*
X109281081Y-62756661D01*
X109393132Y-62868712D01*
X109394780Y-62870360D01*
X109408029Y-62884639D01*
X109413114Y-62888694D01*
X109439764Y-62915344D01*
X109443338Y-62918918D01*
X109625382Y-63058607D01*
X109625385Y-63058608D01*
X109625388Y-63058611D01*
X109824112Y-63173344D01*
X109824114Y-63173344D01*
X109824118Y-63173347D01*
X110001477Y-63246811D01*
X110036113Y-63261158D01*
X110077401Y-63272221D01*
X110083455Y-63274597D01*
X110102443Y-63278930D01*
X110257762Y-63320548D01*
X110321613Y-63328954D01*
X110338810Y-63332880D01*
X110368101Y-63335074D01*
X110485266Y-63350500D01*
X110485267Y-63350500D01*
X110573926Y-63350500D01*
X110600000Y-63352454D01*
X110626074Y-63350500D01*
X110714733Y-63350500D01*
X110714734Y-63350500D01*
X110831898Y-63335074D01*
X110861190Y-63332880D01*
X110878387Y-63328954D01*
X110942238Y-63320548D01*
X111097566Y-63278928D01*
X111116545Y-63274597D01*
X111122592Y-63272222D01*
X111163880Y-63261160D01*
X111163884Y-63261159D01*
X111163884Y-63261158D01*
X111163887Y-63261158D01*
X111375888Y-63173344D01*
X111574612Y-63058611D01*
X111756661Y-62918919D01*
X111786889Y-62888690D01*
X111791971Y-62884639D01*
X111805206Y-62870373D01*
X111918919Y-62756661D01*
X111958126Y-62705565D01*
X111970123Y-62692637D01*
X111986661Y-62668377D01*
X112058611Y-62574612D01*
X112102950Y-62497814D01*
X112117669Y-62476227D01*
X112129006Y-62452683D01*
X112173344Y-62375888D01*
X112218573Y-62266693D01*
X112231313Y-62240243D01*
X112236510Y-62223391D01*
X112261158Y-62163887D01*
X112302778Y-62008554D01*
X112308516Y-61989958D01*
X112309485Y-61983524D01*
X112320548Y-61942238D01*
X112347561Y-61737058D01*
X112375828Y-61673162D01*
X112434152Y-61634691D01*
X112504017Y-61633860D01*
X112563240Y-61670932D01*
X112593019Y-61734138D01*
X112594500Y-61753244D01*
X112594500Y-64526000D01*
X112574815Y-64593039D01*
X112522011Y-64638794D01*
X112470500Y-64650000D01*
X111850000Y-64650000D01*
X111850000Y-65566988D01*
X111792993Y-65534075D01*
X111665826Y-65500000D01*
X111534174Y-65500000D01*
X111407007Y-65534075D01*
X111350000Y-65566988D01*
X111350000Y-64650000D01*
X110702155Y-64650000D01*
X110642627Y-64656401D01*
X110642620Y-64656403D01*
X110507913Y-64706645D01*
X110507906Y-64706649D01*
X110392812Y-64792809D01*
X110392809Y-64792812D01*
X110306649Y-64907906D01*
X110306645Y-64907913D01*
X110256403Y-65042620D01*
X110256401Y-65042627D01*
X110250000Y-65102155D01*
X110250000Y-65750000D01*
X111166988Y-65750000D01*
X111134075Y-65807007D01*
X111100000Y-65934174D01*
X111100000Y-66065826D01*
X111134075Y-66192993D01*
X111166988Y-66250000D01*
X110250000Y-66250000D01*
X110250000Y-66897844D01*
X110256401Y-66957372D01*
X110256403Y-66957379D01*
X110306645Y-67092086D01*
X110306649Y-67092093D01*
X110392809Y-67207187D01*
X110392812Y-67207190D01*
X110507906Y-67293350D01*
X110507913Y-67293354D01*
X110642620Y-67343596D01*
X110642627Y-67343598D01*
X110702155Y-67349999D01*
X110702172Y-67350000D01*
X111104435Y-67350000D01*
X111171474Y-67369685D01*
X111217229Y-67422489D01*
X111227173Y-67491647D01*
X111198148Y-67555203D01*
X111151888Y-67588561D01*
X111102403Y-67609058D01*
X110930342Y-67724024D01*
X110784024Y-67870342D01*
X110669058Y-68042403D01*
X110589870Y-68233579D01*
X110589868Y-68233587D01*
X110549500Y-68436530D01*
X110549500Y-68643469D01*
X110589868Y-68846412D01*
X110589870Y-68846420D01*
X110669058Y-69037596D01*
X110784024Y-69209657D01*
X110930342Y-69355975D01*
X110930345Y-69355977D01*
X111102402Y-69470941D01*
X111293580Y-69550130D01*
X111496530Y-69590499D01*
X111496534Y-69590500D01*
X111496535Y-69590500D01*
X111703466Y-69590500D01*
X111703467Y-69590499D01*
X111906420Y-69550130D01*
X112097598Y-69470941D01*
X112269655Y-69355977D01*
X112303983Y-69321649D01*
X112382819Y-69242814D01*
X112444142Y-69209329D01*
X112513834Y-69214313D01*
X112569767Y-69256185D01*
X112594184Y-69321649D01*
X112594500Y-69330495D01*
X112594500Y-89924522D01*
X112596100Y-89950115D01*
X112596102Y-89950137D01*
X112599949Y-89980777D01*
X112627101Y-90060009D01*
X112627103Y-90060013D01*
X112627105Y-90060018D01*
X112641808Y-90084804D01*
X112662753Y-90120113D01*
X112681857Y-90148240D01*
X112679728Y-90149686D01*
X112704431Y-90200334D01*
X112696247Y-90269723D01*
X112689569Y-90283091D01*
X112640423Y-90368215D01*
X112640423Y-90368216D01*
X112599500Y-90520943D01*
X112599500Y-90679057D01*
X112633235Y-90804956D01*
X112640423Y-90831783D01*
X112640426Y-90831790D01*
X112690112Y-90917850D01*
X112706585Y-90985750D01*
X112683732Y-91051777D01*
X112669514Y-91068413D01*
X112667163Y-91070716D01*
X112667154Y-91070727D01*
X112622511Y-91150537D01*
X112622509Y-91150542D01*
X112602826Y-91217574D01*
X112602825Y-91217579D01*
X112602825Y-91217580D01*
X112596112Y-91264272D01*
X112594500Y-91275481D01*
X112594500Y-96876007D01*
X112599197Y-96919686D01*
X112610397Y-96971174D01*
X112612890Y-96981372D01*
X112612891Y-96981375D01*
X112655899Y-97062083D01*
X112655901Y-97062086D01*
X112701660Y-97114895D01*
X112719242Y-97132839D01*
X112719246Y-97132843D01*
X112719247Y-97132844D01*
X112719249Y-97132845D01*
X112799059Y-97177488D01*
X112799063Y-97177490D01*
X112866102Y-97197175D01*
X112924000Y-97205500D01*
X149870500Y-97205500D01*
X149937539Y-97225185D01*
X149983294Y-97277989D01*
X149994500Y-97329500D01*
X149994500Y-108275500D01*
X149974815Y-108342539D01*
X149922011Y-108388294D01*
X149870500Y-108399500D01*
X107724500Y-108399500D01*
X107657461Y-108379815D01*
X107611706Y-108327011D01*
X107600500Y-108275500D01*
X107600500Y-105285258D01*
X108849500Y-105285258D01*
X108849500Y-105514741D01*
X108879452Y-105742238D01*
X108888711Y-105776797D01*
X108890515Y-105783530D01*
X108891484Y-105789958D01*
X108897221Y-105808557D01*
X108897821Y-105810796D01*
X108897825Y-105810810D01*
X108938843Y-105963890D01*
X108961266Y-106018024D01*
X108961267Y-106018025D01*
X108963486Y-106023383D01*
X108968687Y-106040243D01*
X108981429Y-106066702D01*
X108982764Y-106069925D01*
X108982764Y-106069927D01*
X109026655Y-106175887D01*
X109026660Y-106175896D01*
X109040051Y-106199089D01*
X109069624Y-106250311D01*
X109070988Y-106252674D01*
X109082331Y-106276227D01*
X109097054Y-106297822D01*
X109099374Y-106301840D01*
X109099374Y-106301842D01*
X109141390Y-106374613D01*
X109211209Y-106465604D01*
X109211210Y-106465604D01*
X109213328Y-106468365D01*
X109229877Y-106492637D01*
X109241877Y-106505570D01*
X109245403Y-106510165D01*
X109245404Y-106510168D01*
X109270893Y-106543384D01*
X109281081Y-106556661D01*
X109393132Y-106668712D01*
X109394780Y-106670360D01*
X109408029Y-106684639D01*
X109413114Y-106688694D01*
X109439764Y-106715344D01*
X109443338Y-106718918D01*
X109625382Y-106858607D01*
X109625385Y-106858608D01*
X109625388Y-106858611D01*
X109824112Y-106973344D01*
X109824114Y-106973344D01*
X109824118Y-106973347D01*
X110001477Y-107046811D01*
X110036113Y-107061158D01*
X110077401Y-107072221D01*
X110083455Y-107074597D01*
X110102443Y-107078930D01*
X110257762Y-107120548D01*
X110321613Y-107128954D01*
X110338810Y-107132880D01*
X110368101Y-107135074D01*
X110485266Y-107150500D01*
X110485267Y-107150500D01*
X110573926Y-107150500D01*
X110600000Y-107152454D01*
X110626074Y-107150500D01*
X110714733Y-107150500D01*
X110714734Y-107150500D01*
X110831898Y-107135074D01*
X110861190Y-107132880D01*
X110878387Y-107128954D01*
X110942238Y-107120548D01*
X111097566Y-107078928D01*
X111116545Y-107074597D01*
X111122592Y-107072222D01*
X111163880Y-107061160D01*
X111163884Y-107061159D01*
X111163884Y-107061158D01*
X111163887Y-107061158D01*
X111375888Y-106973344D01*
X111574612Y-106858611D01*
X111756661Y-106718919D01*
X111786889Y-106688690D01*
X111791971Y-106684639D01*
X111805206Y-106670373D01*
X111918919Y-106556661D01*
X111958126Y-106505565D01*
X111970123Y-106492637D01*
X111986661Y-106468377D01*
X112058611Y-106374612D01*
X112102950Y-106297814D01*
X112117669Y-106276227D01*
X112129006Y-106252683D01*
X112173344Y-106175888D01*
X112218573Y-106066693D01*
X112231313Y-106040243D01*
X112236510Y-106023391D01*
X112261158Y-105963887D01*
X112302778Y-105808554D01*
X112308516Y-105789958D01*
X112309485Y-105783524D01*
X112320548Y-105742238D01*
X112350500Y-105514734D01*
X112350500Y-105285266D01*
X112320548Y-105057762D01*
X112309485Y-105016474D01*
X112308516Y-105010042D01*
X112302776Y-104991438D01*
X112261158Y-104836113D01*
X112236511Y-104776610D01*
X112231313Y-104759757D01*
X112218569Y-104733295D01*
X112173344Y-104624112D01*
X112173341Y-104624108D01*
X112173338Y-104624100D01*
X112142853Y-104571300D01*
X112129008Y-104547319D01*
X112117669Y-104523773D01*
X112102949Y-104502185D01*
X112058611Y-104425388D01*
X112058603Y-104425378D01*
X111988792Y-104334399D01*
X111986666Y-104331628D01*
X111970123Y-104307363D01*
X111958119Y-104294426D01*
X111918919Y-104243339D01*
X111805219Y-104129639D01*
X111791971Y-104115361D01*
X111786885Y-104111305D01*
X111781965Y-104106385D01*
X111756661Y-104081081D01*
X111747660Y-104074174D01*
X111574618Y-103941393D01*
X111574616Y-103941392D01*
X111574615Y-103941391D01*
X111574612Y-103941389D01*
X111402733Y-103842155D01*
X113030000Y-103842155D01*
X113030000Y-104490000D01*
X113946988Y-104490000D01*
X113914075Y-104547007D01*
X113880000Y-104674174D01*
X113880000Y-104805826D01*
X113914075Y-104932993D01*
X113946988Y-104990000D01*
X113030000Y-104990000D01*
X113030000Y-105637844D01*
X113036401Y-105697372D01*
X113036403Y-105697379D01*
X113086645Y-105832086D01*
X113086649Y-105832093D01*
X113172809Y-105947187D01*
X113172812Y-105947190D01*
X113287906Y-106033350D01*
X113287913Y-106033354D01*
X113422620Y-106083596D01*
X113422627Y-106083598D01*
X113482155Y-106089999D01*
X113482172Y-106090000D01*
X114130000Y-106090000D01*
X114130000Y-105173012D01*
X114187007Y-105205925D01*
X114314174Y-105240000D01*
X114445826Y-105240000D01*
X114572993Y-105205925D01*
X114630000Y-105173012D01*
X114630000Y-106090000D01*
X115277828Y-106090000D01*
X115277844Y-106089999D01*
X115337372Y-106083598D01*
X115337379Y-106083596D01*
X115472086Y-106033354D01*
X115472093Y-106033350D01*
X115587187Y-105947190D01*
X115587190Y-105947187D01*
X115673350Y-105832093D01*
X115673354Y-105832086D01*
X115723596Y-105697379D01*
X115723598Y-105697372D01*
X115729999Y-105637844D01*
X115730000Y-105637827D01*
X115730000Y-104990000D01*
X114813012Y-104990000D01*
X114845925Y-104932993D01*
X114880000Y-104805826D01*
X114880000Y-104674174D01*
X114845925Y-104547007D01*
X114813012Y-104490000D01*
X115730000Y-104490000D01*
X115730000Y-103842172D01*
X115729999Y-103842155D01*
X117450000Y-103842155D01*
X117450000Y-104490000D01*
X118366988Y-104490000D01*
X118334075Y-104547007D01*
X118300000Y-104674174D01*
X118300000Y-104805826D01*
X118334075Y-104932993D01*
X118366988Y-104990000D01*
X117450000Y-104990000D01*
X117450000Y-105637844D01*
X117456401Y-105697372D01*
X117456403Y-105697379D01*
X117506645Y-105832086D01*
X117506649Y-105832093D01*
X117592809Y-105947187D01*
X117592812Y-105947190D01*
X117707906Y-106033350D01*
X117707913Y-106033354D01*
X117842620Y-106083596D01*
X117842627Y-106083598D01*
X117902155Y-106089999D01*
X117902172Y-106090000D01*
X118550000Y-106090000D01*
X118550000Y-105173012D01*
X118607007Y-105205925D01*
X118734174Y-105240000D01*
X118865826Y-105240000D01*
X118992993Y-105205925D01*
X119050000Y-105173012D01*
X119050000Y-106090000D01*
X119697828Y-106090000D01*
X119697844Y-106089999D01*
X119757372Y-106083598D01*
X119757379Y-106083596D01*
X119892086Y-106033354D01*
X119892093Y-106033350D01*
X120007187Y-105947190D01*
X120007190Y-105947187D01*
X120093350Y-105832093D01*
X120093354Y-105832086D01*
X120143596Y-105697379D01*
X120143598Y-105697372D01*
X120149999Y-105637844D01*
X120150000Y-105637827D01*
X120150000Y-104990000D01*
X119233012Y-104990000D01*
X119265925Y-104932993D01*
X119300000Y-104805826D01*
X119300000Y-104674174D01*
X119265925Y-104547007D01*
X119233012Y-104490000D01*
X120150000Y-104490000D01*
X120150000Y-103842172D01*
X120149999Y-103842155D01*
X121650000Y-103842155D01*
X121650000Y-104490000D01*
X122566988Y-104490000D01*
X122534075Y-104547007D01*
X122500000Y-104674174D01*
X122500000Y-104805826D01*
X122534075Y-104932993D01*
X122566988Y-104990000D01*
X121650000Y-104990000D01*
X121650000Y-105637844D01*
X121656401Y-105697372D01*
X121656403Y-105697379D01*
X121706645Y-105832086D01*
X121706649Y-105832093D01*
X121792809Y-105947187D01*
X121792812Y-105947190D01*
X121907906Y-106033350D01*
X121907913Y-106033354D01*
X122042620Y-106083596D01*
X122042627Y-106083598D01*
X122102155Y-106089999D01*
X122102172Y-106090000D01*
X122750000Y-106090000D01*
X122750000Y-105173012D01*
X122807007Y-105205925D01*
X122934174Y-105240000D01*
X123065826Y-105240000D01*
X123192993Y-105205925D01*
X123250000Y-105173012D01*
X123250000Y-106090000D01*
X123897828Y-106090000D01*
X123897844Y-106089999D01*
X123957372Y-106083598D01*
X123957379Y-106083596D01*
X124092086Y-106033354D01*
X124092093Y-106033350D01*
X124207187Y-105947190D01*
X124207190Y-105947187D01*
X124293350Y-105832093D01*
X124293354Y-105832086D01*
X124343596Y-105697379D01*
X124343598Y-105697372D01*
X124349999Y-105637844D01*
X124350000Y-105637827D01*
X124350000Y-104990000D01*
X123433012Y-104990000D01*
X123465925Y-104932993D01*
X123500000Y-104805826D01*
X123500000Y-104674174D01*
X123465925Y-104547007D01*
X123433012Y-104490000D01*
X124350000Y-104490000D01*
X124350000Y-103842172D01*
X124349999Y-103842155D01*
X125650000Y-103842155D01*
X125650000Y-104490000D01*
X126566988Y-104490000D01*
X126534075Y-104547007D01*
X126500000Y-104674174D01*
X126500000Y-104805826D01*
X126534075Y-104932993D01*
X126566988Y-104990000D01*
X125650000Y-104990000D01*
X125650000Y-105637844D01*
X125656401Y-105697372D01*
X125656403Y-105697379D01*
X125706645Y-105832086D01*
X125706649Y-105832093D01*
X125792809Y-105947187D01*
X125792812Y-105947190D01*
X125907906Y-106033350D01*
X125907913Y-106033354D01*
X126042620Y-106083596D01*
X126042627Y-106083598D01*
X126102155Y-106089999D01*
X126102172Y-106090000D01*
X126750000Y-106090000D01*
X126750000Y-105173012D01*
X126807007Y-105205925D01*
X126934174Y-105240000D01*
X127065826Y-105240000D01*
X127192993Y-105205925D01*
X127250000Y-105173012D01*
X127250000Y-106090000D01*
X127897828Y-106090000D01*
X127897844Y-106089999D01*
X127957372Y-106083598D01*
X127957379Y-106083596D01*
X128092086Y-106033354D01*
X128092093Y-106033350D01*
X128207187Y-105947190D01*
X128207190Y-105947187D01*
X128293350Y-105832093D01*
X128293354Y-105832086D01*
X128343596Y-105697379D01*
X128343598Y-105697372D01*
X128349999Y-105637844D01*
X128350000Y-105637827D01*
X128350000Y-104990000D01*
X127433012Y-104990000D01*
X127465925Y-104932993D01*
X127500000Y-104805826D01*
X127500000Y-104674174D01*
X127465925Y-104547007D01*
X127433012Y-104490000D01*
X128350000Y-104490000D01*
X128350000Y-103842172D01*
X128349999Y-103842155D01*
X129850000Y-103842155D01*
X129850000Y-104490000D01*
X130766988Y-104490000D01*
X130734075Y-104547007D01*
X130700000Y-104674174D01*
X130700000Y-104805826D01*
X130734075Y-104932993D01*
X130766988Y-104990000D01*
X129850000Y-104990000D01*
X129850000Y-105637844D01*
X129856401Y-105697372D01*
X129856403Y-105697379D01*
X129906645Y-105832086D01*
X129906649Y-105832093D01*
X129992809Y-105947187D01*
X129992812Y-105947190D01*
X130107906Y-106033350D01*
X130107913Y-106033354D01*
X130242620Y-106083596D01*
X130242627Y-106083598D01*
X130302155Y-106089999D01*
X130302172Y-106090000D01*
X130950000Y-106090000D01*
X130950000Y-105173012D01*
X131007007Y-105205925D01*
X131134174Y-105240000D01*
X131265826Y-105240000D01*
X131392993Y-105205925D01*
X131450000Y-105173012D01*
X131450000Y-106090000D01*
X132097828Y-106090000D01*
X132097844Y-106089999D01*
X132157372Y-106083598D01*
X132157379Y-106083596D01*
X132292086Y-106033354D01*
X132292093Y-106033350D01*
X132407187Y-105947190D01*
X132407190Y-105947187D01*
X132493350Y-105832093D01*
X132493354Y-105832086D01*
X132543596Y-105697379D01*
X132543598Y-105697372D01*
X132549999Y-105637844D01*
X132550000Y-105637827D01*
X132550000Y-104990000D01*
X131633012Y-104990000D01*
X131665925Y-104932993D01*
X131700000Y-104805826D01*
X131700000Y-104674174D01*
X131665925Y-104547007D01*
X131633012Y-104490000D01*
X132550000Y-104490000D01*
X132550000Y-103842172D01*
X132549999Y-103842155D01*
X134050000Y-103842155D01*
X134050000Y-104490000D01*
X134966988Y-104490000D01*
X134934075Y-104547007D01*
X134900000Y-104674174D01*
X134900000Y-104805826D01*
X134934075Y-104932993D01*
X134966988Y-104990000D01*
X134050000Y-104990000D01*
X134050000Y-105637844D01*
X134056401Y-105697372D01*
X134056403Y-105697379D01*
X134106645Y-105832086D01*
X134106649Y-105832093D01*
X134192809Y-105947187D01*
X134192812Y-105947190D01*
X134307906Y-106033350D01*
X134307913Y-106033354D01*
X134442620Y-106083596D01*
X134442627Y-106083598D01*
X134502155Y-106089999D01*
X134502172Y-106090000D01*
X135150000Y-106090000D01*
X135150000Y-105173012D01*
X135207007Y-105205925D01*
X135334174Y-105240000D01*
X135465826Y-105240000D01*
X135592993Y-105205925D01*
X135650000Y-105173012D01*
X135650000Y-106090000D01*
X136297828Y-106090000D01*
X136297844Y-106089999D01*
X136357372Y-106083598D01*
X136357379Y-106083596D01*
X136492086Y-106033354D01*
X136492093Y-106033350D01*
X136607187Y-105947190D01*
X136607190Y-105947187D01*
X136693350Y-105832093D01*
X136693354Y-105832086D01*
X136743596Y-105697379D01*
X136743598Y-105697372D01*
X136749999Y-105637844D01*
X136750000Y-105637827D01*
X136750000Y-104990000D01*
X135833012Y-104990000D01*
X135865925Y-104932993D01*
X135900000Y-104805826D01*
X135900000Y-104674174D01*
X135865925Y-104547007D01*
X135833012Y-104490000D01*
X136750000Y-104490000D01*
X136750000Y-103842172D01*
X136749999Y-103842155D01*
X136743598Y-103782627D01*
X136743596Y-103782620D01*
X136693354Y-103647913D01*
X136693350Y-103647906D01*
X136607190Y-103532812D01*
X136607187Y-103532809D01*
X136492093Y-103446649D01*
X136492086Y-103446645D01*
X136357379Y-103396403D01*
X136357372Y-103396401D01*
X136297844Y-103390000D01*
X135895565Y-103390000D01*
X135885529Y-103387053D01*
X135875144Y-103388307D01*
X135852578Y-103377377D01*
X135828526Y-103370315D01*
X135821677Y-103362411D01*
X135812262Y-103357851D01*
X135799187Y-103336456D01*
X135782771Y-103317511D01*
X135781282Y-103307158D01*
X135775828Y-103298233D01*
X135776395Y-103273169D01*
X135772827Y-103248353D01*
X135775657Y-103242155D01*
X142640000Y-103242155D01*
X142640000Y-103890000D01*
X143556988Y-103890000D01*
X143524075Y-103947007D01*
X143490000Y-104074174D01*
X143490000Y-104205826D01*
X143524075Y-104332993D01*
X143556988Y-104390000D01*
X142640000Y-104390000D01*
X142640000Y-105037844D01*
X142646401Y-105097372D01*
X142646403Y-105097379D01*
X142696645Y-105232086D01*
X142696649Y-105232093D01*
X142782809Y-105347187D01*
X142782812Y-105347190D01*
X142897906Y-105433350D01*
X142897913Y-105433354D01*
X143032620Y-105483596D01*
X143032627Y-105483598D01*
X143092155Y-105489999D01*
X143092172Y-105490000D01*
X143740000Y-105490000D01*
X143740000Y-104573012D01*
X143797007Y-104605925D01*
X143924174Y-104640000D01*
X144055826Y-104640000D01*
X144182993Y-104605925D01*
X144240000Y-104573012D01*
X144240000Y-105490000D01*
X144887828Y-105490000D01*
X144887844Y-105489999D01*
X144947372Y-105483598D01*
X144947379Y-105483596D01*
X145082086Y-105433354D01*
X145082093Y-105433350D01*
X145197187Y-105347190D01*
X145197190Y-105347187D01*
X145283350Y-105232093D01*
X145283354Y-105232086D01*
X145333596Y-105097379D01*
X145333598Y-105097372D01*
X145339999Y-105037844D01*
X145340000Y-105037827D01*
X145340000Y-104390000D01*
X144423012Y-104390000D01*
X144455925Y-104332993D01*
X144490000Y-104205826D01*
X144490000Y-104074174D01*
X144455925Y-103947007D01*
X144423012Y-103890000D01*
X145340000Y-103890000D01*
X145340000Y-103242172D01*
X145339999Y-103242155D01*
X146450000Y-103242155D01*
X146450000Y-103890000D01*
X147366988Y-103890000D01*
X147334075Y-103947007D01*
X147300000Y-104074174D01*
X147300000Y-104205826D01*
X147334075Y-104332993D01*
X147366988Y-104390000D01*
X146450000Y-104390000D01*
X146450000Y-105037844D01*
X146456401Y-105097372D01*
X146456403Y-105097379D01*
X146506645Y-105232086D01*
X146506649Y-105232093D01*
X146592809Y-105347187D01*
X146592812Y-105347190D01*
X146707906Y-105433350D01*
X146707913Y-105433354D01*
X146842620Y-105483596D01*
X146842627Y-105483598D01*
X146902155Y-105489999D01*
X146902172Y-105490000D01*
X147550000Y-105490000D01*
X147550000Y-104573012D01*
X147607007Y-104605925D01*
X147734174Y-104640000D01*
X147865826Y-104640000D01*
X147992993Y-104605925D01*
X148050000Y-104573012D01*
X148050000Y-105490000D01*
X148697828Y-105490000D01*
X148697844Y-105489999D01*
X148757372Y-105483598D01*
X148757379Y-105483596D01*
X148892086Y-105433354D01*
X148892093Y-105433350D01*
X149007187Y-105347190D01*
X149007190Y-105347187D01*
X149093350Y-105232093D01*
X149093354Y-105232086D01*
X149143596Y-105097379D01*
X149143598Y-105097372D01*
X149149999Y-105037844D01*
X149150000Y-105037827D01*
X149150000Y-104390000D01*
X148233012Y-104390000D01*
X148265925Y-104332993D01*
X148300000Y-104205826D01*
X148300000Y-104074174D01*
X148265925Y-103947007D01*
X148233012Y-103890000D01*
X149150000Y-103890000D01*
X149150000Y-103242172D01*
X149149999Y-103242155D01*
X149143598Y-103182627D01*
X149143596Y-103182620D01*
X149093354Y-103047913D01*
X149093350Y-103047906D01*
X149007190Y-102932812D01*
X149007187Y-102932809D01*
X148892093Y-102846649D01*
X148892086Y-102846645D01*
X148757379Y-102796403D01*
X148757372Y-102796401D01*
X148697844Y-102790000D01*
X148295565Y-102790000D01*
X148228526Y-102770315D01*
X148182771Y-102717511D01*
X148172827Y-102648353D01*
X148201852Y-102584797D01*
X148248112Y-102551439D01*
X148253608Y-102549162D01*
X148297598Y-102530941D01*
X148469655Y-102415977D01*
X148615977Y-102269655D01*
X148730941Y-102097598D01*
X148810130Y-101906420D01*
X148850500Y-101703465D01*
X148850500Y-101496535D01*
X148810130Y-101293580D01*
X148730941Y-101102402D01*
X148615977Y-100930345D01*
X148615975Y-100930342D01*
X148469657Y-100784024D01*
X148299202Y-100670131D01*
X148297598Y-100669059D01*
X148106420Y-100589870D01*
X148106412Y-100589868D01*
X147903469Y-100549500D01*
X147903465Y-100549500D01*
X147696535Y-100549500D01*
X147696530Y-100549500D01*
X147493587Y-100589868D01*
X147493579Y-100589870D01*
X147302403Y-100669058D01*
X147130342Y-100784024D01*
X146984024Y-100930342D01*
X146869058Y-101102403D01*
X146789870Y-101293579D01*
X146789868Y-101293587D01*
X146749500Y-101496530D01*
X146749500Y-101703469D01*
X146789868Y-101906412D01*
X146789870Y-101906420D01*
X146869058Y-102097596D01*
X146984024Y-102269657D01*
X147130342Y-102415975D01*
X147130345Y-102415977D01*
X147302402Y-102530941D01*
X147341993Y-102547340D01*
X147351888Y-102551439D01*
X147406291Y-102595280D01*
X147428356Y-102661574D01*
X147411077Y-102729274D01*
X147359939Y-102776884D01*
X147304435Y-102790000D01*
X146902155Y-102790000D01*
X146842627Y-102796401D01*
X146842620Y-102796403D01*
X146707913Y-102846645D01*
X146707906Y-102846649D01*
X146592812Y-102932809D01*
X146592809Y-102932812D01*
X146506649Y-103047906D01*
X146506645Y-103047913D01*
X146456403Y-103182620D01*
X146456401Y-103182627D01*
X146450000Y-103242155D01*
X145339999Y-103242155D01*
X145333598Y-103182627D01*
X145333596Y-103182620D01*
X145283354Y-103047913D01*
X145283350Y-103047906D01*
X145197190Y-102932812D01*
X145197187Y-102932809D01*
X145082093Y-102846649D01*
X145082086Y-102846645D01*
X144947379Y-102796403D01*
X144947372Y-102796401D01*
X144887844Y-102790000D01*
X144485565Y-102790000D01*
X144418526Y-102770315D01*
X144372771Y-102717511D01*
X144362827Y-102648353D01*
X144391852Y-102584797D01*
X144438112Y-102551439D01*
X144443608Y-102549162D01*
X144487598Y-102530941D01*
X144659655Y-102415977D01*
X144805977Y-102269655D01*
X144920941Y-102097598D01*
X145000130Y-101906420D01*
X145040500Y-101703465D01*
X145040500Y-101496535D01*
X145000130Y-101293580D01*
X144920941Y-101102402D01*
X144805977Y-100930345D01*
X144805975Y-100930342D01*
X144659657Y-100784024D01*
X144489202Y-100670131D01*
X144487598Y-100669059D01*
X144296420Y-100589870D01*
X144296412Y-100589868D01*
X144093469Y-100549500D01*
X144093465Y-100549500D01*
X143886535Y-100549500D01*
X143886530Y-100549500D01*
X143683587Y-100589868D01*
X143683579Y-100589870D01*
X143492403Y-100669058D01*
X143320342Y-100784024D01*
X143174024Y-100930342D01*
X143059058Y-101102403D01*
X142979870Y-101293579D01*
X142979868Y-101293587D01*
X142939500Y-101496530D01*
X142939500Y-101703469D01*
X142979868Y-101906412D01*
X142979870Y-101906420D01*
X143059058Y-102097596D01*
X143174024Y-102269657D01*
X143320342Y-102415975D01*
X143320345Y-102415977D01*
X143492402Y-102530941D01*
X143531993Y-102547340D01*
X143541888Y-102551439D01*
X143596291Y-102595280D01*
X143618356Y-102661574D01*
X143601077Y-102729274D01*
X143549939Y-102776884D01*
X143494435Y-102790000D01*
X143092155Y-102790000D01*
X143032627Y-102796401D01*
X143032620Y-102796403D01*
X142897913Y-102846645D01*
X142897906Y-102846649D01*
X142782812Y-102932809D01*
X142782809Y-102932812D01*
X142696649Y-103047906D01*
X142696645Y-103047913D01*
X142646403Y-103182620D01*
X142646401Y-103182627D01*
X142640000Y-103242155D01*
X135775657Y-103242155D01*
X135777172Y-103238838D01*
X135777409Y-103228381D01*
X135791437Y-103207602D01*
X135801852Y-103184797D01*
X135811688Y-103177605D01*
X135816504Y-103170473D01*
X135844529Y-103153596D01*
X135846620Y-103152068D01*
X135847340Y-103151758D01*
X135897598Y-103130941D01*
X136069655Y-103015977D01*
X136215977Y-102869655D01*
X136330941Y-102697598D01*
X136410130Y-102506420D01*
X136450500Y-102303465D01*
X136450500Y-102096535D01*
X136410130Y-101893580D01*
X136330941Y-101702402D01*
X136215977Y-101530345D01*
X136215975Y-101530342D01*
X136069657Y-101384024D01*
X135934307Y-101293587D01*
X135897598Y-101269059D01*
X135706420Y-101189870D01*
X135706412Y-101189868D01*
X135503469Y-101149500D01*
X135503465Y-101149500D01*
X135296535Y-101149500D01*
X135296530Y-101149500D01*
X135093587Y-101189868D01*
X135093579Y-101189870D01*
X134902403Y-101269058D01*
X134730342Y-101384024D01*
X134584024Y-101530342D01*
X134469058Y-101702403D01*
X134389870Y-101893579D01*
X134389868Y-101893587D01*
X134349500Y-102096530D01*
X134349500Y-102303469D01*
X134389868Y-102506412D01*
X134389870Y-102506420D01*
X134469059Y-102697598D01*
X134490224Y-102729274D01*
X134584024Y-102869657D01*
X134730342Y-103015975D01*
X134730345Y-103015977D01*
X134902402Y-103130941D01*
X134941993Y-103147340D01*
X134951888Y-103151439D01*
X135006291Y-103195280D01*
X135028356Y-103261574D01*
X135011077Y-103329274D01*
X134959939Y-103376884D01*
X134904435Y-103390000D01*
X134502155Y-103390000D01*
X134442627Y-103396401D01*
X134442620Y-103396403D01*
X134307913Y-103446645D01*
X134307906Y-103446649D01*
X134192812Y-103532809D01*
X134192809Y-103532812D01*
X134106649Y-103647906D01*
X134106645Y-103647913D01*
X134056403Y-103782620D01*
X134056401Y-103782627D01*
X134050000Y-103842155D01*
X132549999Y-103842155D01*
X132543598Y-103782627D01*
X132543596Y-103782620D01*
X132493354Y-103647913D01*
X132493350Y-103647906D01*
X132407190Y-103532812D01*
X132407187Y-103532809D01*
X132292093Y-103446649D01*
X132292086Y-103446645D01*
X132157379Y-103396403D01*
X132157372Y-103396401D01*
X132097844Y-103390000D01*
X131695565Y-103390000D01*
X131628526Y-103370315D01*
X131582771Y-103317511D01*
X131572827Y-103248353D01*
X131601852Y-103184797D01*
X131648112Y-103151439D01*
X131653608Y-103149162D01*
X131697598Y-103130941D01*
X131869655Y-103015977D01*
X132015977Y-102869655D01*
X132130941Y-102697598D01*
X132210130Y-102506420D01*
X132250500Y-102303465D01*
X132250500Y-102096535D01*
X132210130Y-101893580D01*
X132130941Y-101702402D01*
X132015977Y-101530345D01*
X132015975Y-101530342D01*
X131869657Y-101384024D01*
X131734307Y-101293587D01*
X131697598Y-101269059D01*
X131506420Y-101189870D01*
X131506412Y-101189868D01*
X131303469Y-101149500D01*
X131303465Y-101149500D01*
X131096535Y-101149500D01*
X131096530Y-101149500D01*
X130893587Y-101189868D01*
X130893579Y-101189870D01*
X130702403Y-101269058D01*
X130530342Y-101384024D01*
X130384024Y-101530342D01*
X130269058Y-101702403D01*
X130189870Y-101893579D01*
X130189868Y-101893587D01*
X130149500Y-102096530D01*
X130149500Y-102303469D01*
X130189868Y-102506412D01*
X130189870Y-102506420D01*
X130269059Y-102697598D01*
X130290224Y-102729274D01*
X130384024Y-102869657D01*
X130530342Y-103015975D01*
X130530345Y-103015977D01*
X130702402Y-103130941D01*
X130741993Y-103147340D01*
X130751888Y-103151439D01*
X130806291Y-103195280D01*
X130828356Y-103261574D01*
X130811077Y-103329274D01*
X130759939Y-103376884D01*
X130704435Y-103390000D01*
X130302155Y-103390000D01*
X130242627Y-103396401D01*
X130242620Y-103396403D01*
X130107913Y-103446645D01*
X130107906Y-103446649D01*
X129992812Y-103532809D01*
X129992809Y-103532812D01*
X129906649Y-103647906D01*
X129906645Y-103647913D01*
X129856403Y-103782620D01*
X129856401Y-103782627D01*
X129850000Y-103842155D01*
X128349999Y-103842155D01*
X128343598Y-103782627D01*
X128343596Y-103782620D01*
X128293354Y-103647913D01*
X128293350Y-103647906D01*
X128207190Y-103532812D01*
X128207187Y-103532809D01*
X128092093Y-103446649D01*
X128092086Y-103446645D01*
X127957379Y-103396403D01*
X127957372Y-103396401D01*
X127897844Y-103390000D01*
X127495565Y-103390000D01*
X127428526Y-103370315D01*
X127382771Y-103317511D01*
X127372827Y-103248353D01*
X127401852Y-103184797D01*
X127448112Y-103151439D01*
X127453608Y-103149162D01*
X127497598Y-103130941D01*
X127669655Y-103015977D01*
X127815977Y-102869655D01*
X127930941Y-102697598D01*
X128010130Y-102506420D01*
X128050500Y-102303465D01*
X128050500Y-102096535D01*
X128010130Y-101893580D01*
X127930941Y-101702402D01*
X127815977Y-101530345D01*
X127815975Y-101530342D01*
X127669657Y-101384024D01*
X127534307Y-101293587D01*
X127497598Y-101269059D01*
X127306420Y-101189870D01*
X127306412Y-101189868D01*
X127103469Y-101149500D01*
X127103465Y-101149500D01*
X126896535Y-101149500D01*
X126896530Y-101149500D01*
X126693587Y-101189868D01*
X126693579Y-101189870D01*
X126502403Y-101269058D01*
X126330342Y-101384024D01*
X126184024Y-101530342D01*
X126069058Y-101702403D01*
X125989870Y-101893579D01*
X125989868Y-101893587D01*
X125949500Y-102096530D01*
X125949500Y-102303469D01*
X125989868Y-102506412D01*
X125989870Y-102506420D01*
X126069059Y-102697598D01*
X126090224Y-102729274D01*
X126184024Y-102869657D01*
X126330342Y-103015975D01*
X126330345Y-103015977D01*
X126502402Y-103130941D01*
X126541993Y-103147340D01*
X126551888Y-103151439D01*
X126606291Y-103195280D01*
X126628356Y-103261574D01*
X126611077Y-103329274D01*
X126559939Y-103376884D01*
X126504435Y-103390000D01*
X126102155Y-103390000D01*
X126042627Y-103396401D01*
X126042620Y-103396403D01*
X125907913Y-103446645D01*
X125907906Y-103446649D01*
X125792812Y-103532809D01*
X125792809Y-103532812D01*
X125706649Y-103647906D01*
X125706645Y-103647913D01*
X125656403Y-103782620D01*
X125656401Y-103782627D01*
X125650000Y-103842155D01*
X124349999Y-103842155D01*
X124343598Y-103782627D01*
X124343596Y-103782620D01*
X124293354Y-103647913D01*
X124293350Y-103647906D01*
X124207190Y-103532812D01*
X124207187Y-103532809D01*
X124092093Y-103446649D01*
X124092086Y-103446645D01*
X123957379Y-103396403D01*
X123957372Y-103396401D01*
X123897844Y-103390000D01*
X123495565Y-103390000D01*
X123428526Y-103370315D01*
X123382771Y-103317511D01*
X123372827Y-103248353D01*
X123401852Y-103184797D01*
X123448112Y-103151439D01*
X123453608Y-103149162D01*
X123497598Y-103130941D01*
X123669655Y-103015977D01*
X123815977Y-102869655D01*
X123930941Y-102697598D01*
X124010130Y-102506420D01*
X124050500Y-102303465D01*
X124050500Y-102096535D01*
X124010130Y-101893580D01*
X123930941Y-101702402D01*
X123815977Y-101530345D01*
X123815975Y-101530342D01*
X123669657Y-101384024D01*
X123534307Y-101293587D01*
X123497598Y-101269059D01*
X123306420Y-101189870D01*
X123306412Y-101189868D01*
X123103469Y-101149500D01*
X123103465Y-101149500D01*
X122896535Y-101149500D01*
X122896530Y-101149500D01*
X122693587Y-101189868D01*
X122693579Y-101189870D01*
X122502403Y-101269058D01*
X122330342Y-101384024D01*
X122184024Y-101530342D01*
X122069058Y-101702403D01*
X121989870Y-101893579D01*
X121989868Y-101893587D01*
X121949500Y-102096530D01*
X121949500Y-102303469D01*
X121989868Y-102506412D01*
X121989870Y-102506420D01*
X122069059Y-102697598D01*
X122090224Y-102729274D01*
X122184024Y-102869657D01*
X122330342Y-103015975D01*
X122330345Y-103015977D01*
X122502402Y-103130941D01*
X122541993Y-103147340D01*
X122551888Y-103151439D01*
X122606291Y-103195280D01*
X122628356Y-103261574D01*
X122611077Y-103329274D01*
X122559939Y-103376884D01*
X122504435Y-103390000D01*
X122102155Y-103390000D01*
X122042627Y-103396401D01*
X122042620Y-103396403D01*
X121907913Y-103446645D01*
X121907906Y-103446649D01*
X121792812Y-103532809D01*
X121792809Y-103532812D01*
X121706649Y-103647906D01*
X121706645Y-103647913D01*
X121656403Y-103782620D01*
X121656401Y-103782627D01*
X121650000Y-103842155D01*
X120149999Y-103842155D01*
X120143598Y-103782627D01*
X120143596Y-103782620D01*
X120093354Y-103647913D01*
X120093350Y-103647906D01*
X120007190Y-103532812D01*
X120007187Y-103532809D01*
X119892093Y-103446649D01*
X119892086Y-103446645D01*
X119757379Y-103396403D01*
X119757372Y-103396401D01*
X119697844Y-103390000D01*
X119295565Y-103390000D01*
X119228526Y-103370315D01*
X119182771Y-103317511D01*
X119172827Y-103248353D01*
X119201852Y-103184797D01*
X119248112Y-103151439D01*
X119253608Y-103149162D01*
X119297598Y-103130941D01*
X119469655Y-103015977D01*
X119615977Y-102869655D01*
X119730941Y-102697598D01*
X119810130Y-102506420D01*
X119850500Y-102303465D01*
X119850500Y-102096535D01*
X119810130Y-101893580D01*
X119730941Y-101702402D01*
X119615977Y-101530345D01*
X119615975Y-101530342D01*
X119469657Y-101384024D01*
X119334307Y-101293587D01*
X119297598Y-101269059D01*
X119106420Y-101189870D01*
X119106412Y-101189868D01*
X118903469Y-101149500D01*
X118903465Y-101149500D01*
X118696535Y-101149500D01*
X118696530Y-101149500D01*
X118493587Y-101189868D01*
X118493579Y-101189870D01*
X118302403Y-101269058D01*
X118130342Y-101384024D01*
X117984024Y-101530342D01*
X117869058Y-101702403D01*
X117789870Y-101893579D01*
X117789868Y-101893587D01*
X117749500Y-102096530D01*
X117749500Y-102303469D01*
X117789868Y-102506412D01*
X117789870Y-102506420D01*
X117869059Y-102697598D01*
X117890224Y-102729274D01*
X117984024Y-102869657D01*
X118130342Y-103015975D01*
X118130345Y-103015977D01*
X118302402Y-103130941D01*
X118341993Y-103147340D01*
X118351888Y-103151439D01*
X118406291Y-103195280D01*
X118428356Y-103261574D01*
X118411077Y-103329274D01*
X118359939Y-103376884D01*
X118304435Y-103390000D01*
X117902155Y-103390000D01*
X117842627Y-103396401D01*
X117842620Y-103396403D01*
X117707913Y-103446645D01*
X117707906Y-103446649D01*
X117592812Y-103532809D01*
X117592809Y-103532812D01*
X117506649Y-103647906D01*
X117506645Y-103647913D01*
X117456403Y-103782620D01*
X117456401Y-103782627D01*
X117450000Y-103842155D01*
X115729999Y-103842155D01*
X115723598Y-103782627D01*
X115723596Y-103782620D01*
X115673354Y-103647913D01*
X115673350Y-103647906D01*
X115587190Y-103532812D01*
X115587187Y-103532809D01*
X115472093Y-103446649D01*
X115472086Y-103446645D01*
X115337379Y-103396403D01*
X115337372Y-103396401D01*
X115277844Y-103390000D01*
X114875565Y-103390000D01*
X114808526Y-103370315D01*
X114762771Y-103317511D01*
X114752827Y-103248353D01*
X114781852Y-103184797D01*
X114828112Y-103151439D01*
X114833608Y-103149162D01*
X114877598Y-103130941D01*
X115049655Y-103015977D01*
X115195977Y-102869655D01*
X115310941Y-102697598D01*
X115390130Y-102506420D01*
X115430500Y-102303465D01*
X115430500Y-102096535D01*
X115390130Y-101893580D01*
X115310941Y-101702402D01*
X115195977Y-101530345D01*
X115195975Y-101530342D01*
X115049657Y-101384024D01*
X114914307Y-101293587D01*
X114877598Y-101269059D01*
X114686420Y-101189870D01*
X114686412Y-101189868D01*
X114483469Y-101149500D01*
X114483465Y-101149500D01*
X114276535Y-101149500D01*
X114276530Y-101149500D01*
X114073587Y-101189868D01*
X114073579Y-101189870D01*
X113882403Y-101269058D01*
X113710342Y-101384024D01*
X113564024Y-101530342D01*
X113449058Y-101702403D01*
X113369870Y-101893579D01*
X113369868Y-101893587D01*
X113329500Y-102096530D01*
X113329500Y-102303469D01*
X113369868Y-102506412D01*
X113369870Y-102506420D01*
X113449059Y-102697598D01*
X113470224Y-102729274D01*
X113564024Y-102869657D01*
X113710342Y-103015975D01*
X113710345Y-103015977D01*
X113882402Y-103130941D01*
X113921993Y-103147340D01*
X113931888Y-103151439D01*
X113986291Y-103195280D01*
X114008356Y-103261574D01*
X113991077Y-103329274D01*
X113939939Y-103376884D01*
X113884435Y-103390000D01*
X113482155Y-103390000D01*
X113422627Y-103396401D01*
X113422620Y-103396403D01*
X113287913Y-103446645D01*
X113287906Y-103446649D01*
X113172812Y-103532809D01*
X113172809Y-103532812D01*
X113086649Y-103647906D01*
X113086645Y-103647913D01*
X113036403Y-103782620D01*
X113036401Y-103782627D01*
X113030000Y-103842155D01*
X111402733Y-103842155D01*
X111375888Y-103826656D01*
X111375876Y-103826650D01*
X111163887Y-103738842D01*
X111163883Y-103738841D01*
X111163879Y-103738840D01*
X111160704Y-103737989D01*
X111129323Y-103729580D01*
X111129323Y-103729579D01*
X111122587Y-103727774D01*
X111116545Y-103725403D01*
X111097571Y-103721072D01*
X111095334Y-103720473D01*
X111095321Y-103720470D01*
X110942245Y-103679454D01*
X110942238Y-103679452D01*
X110942232Y-103679451D01*
X110942231Y-103679451D01*
X110884143Y-103671803D01*
X110884143Y-103671802D01*
X110878378Y-103671043D01*
X110861190Y-103667120D01*
X110831900Y-103664925D01*
X110828443Y-103664470D01*
X110714743Y-103649501D01*
X110714740Y-103649500D01*
X110714734Y-103649500D01*
X110626062Y-103649500D01*
X110600000Y-103647547D01*
X110573938Y-103649500D01*
X110485264Y-103649500D01*
X110371555Y-103664468D01*
X110371556Y-103664469D01*
X110368080Y-103664926D01*
X110338810Y-103667120D01*
X110321627Y-103671041D01*
X110315868Y-103671800D01*
X110315860Y-103671802D01*
X110257767Y-103679451D01*
X110257753Y-103679454D01*
X110104682Y-103720467D01*
X110104683Y-103720468D01*
X110102420Y-103721074D01*
X110083455Y-103725403D01*
X110077406Y-103727776D01*
X110070681Y-103729579D01*
X110070679Y-103729578D01*
X110036116Y-103738840D01*
X109824118Y-103826653D01*
X109824109Y-103826657D01*
X109625387Y-103941389D01*
X109443334Y-104081084D01*
X109443331Y-104081087D01*
X109418028Y-104106389D01*
X109413099Y-104111317D01*
X109408029Y-104115361D01*
X109394818Y-104129598D01*
X109393150Y-104131267D01*
X109281086Y-104243332D01*
X109281081Y-104243338D01*
X109245405Y-104289830D01*
X109241866Y-104294441D01*
X109229877Y-104307363D01*
X109213342Y-104331614D01*
X109211209Y-104334395D01*
X109141395Y-104425378D01*
X109141388Y-104425389D01*
X109099376Y-104498156D01*
X109099375Y-104498155D01*
X109097041Y-104502196D01*
X109082331Y-104523773D01*
X109070998Y-104547306D01*
X109068672Y-104551335D01*
X109068668Y-104551344D01*
X109026657Y-104624110D01*
X109026653Y-104624118D01*
X108982762Y-104730076D01*
X108981418Y-104733320D01*
X108968687Y-104759757D01*
X108963489Y-104776605D01*
X108961268Y-104781970D01*
X108961267Y-104781972D01*
X108938844Y-104836105D01*
X108897821Y-104989202D01*
X108897820Y-104989201D01*
X108897207Y-104991485D01*
X108891484Y-105010042D01*
X108890516Y-105016462D01*
X108888712Y-105023197D01*
X108879456Y-105057743D01*
X108879452Y-105057759D01*
X108879452Y-105057762D01*
X108876124Y-105083040D01*
X108849500Y-105285258D01*
X107600500Y-105285258D01*
X107600500Y-99556530D01*
X113329500Y-99556530D01*
X113329500Y-99763469D01*
X113369868Y-99966412D01*
X113369870Y-99966420D01*
X113449058Y-100157596D01*
X113564024Y-100329657D01*
X113710342Y-100475975D01*
X113710345Y-100475977D01*
X113882402Y-100590941D01*
X114073580Y-100670130D01*
X114276530Y-100710499D01*
X114276534Y-100710500D01*
X114276535Y-100710500D01*
X114483466Y-100710500D01*
X114483467Y-100710499D01*
X114686420Y-100670130D01*
X114877598Y-100590941D01*
X115049655Y-100475977D01*
X115195977Y-100329655D01*
X115310941Y-100157598D01*
X115390130Y-99966420D01*
X115430500Y-99763465D01*
X115430500Y-99556535D01*
X115430499Y-99556530D01*
X117749500Y-99556530D01*
X117749500Y-99763469D01*
X117789868Y-99966412D01*
X117789870Y-99966420D01*
X117869058Y-100157596D01*
X117984024Y-100329657D01*
X118130342Y-100475975D01*
X118130345Y-100475977D01*
X118302402Y-100590941D01*
X118493580Y-100670130D01*
X118696530Y-100710499D01*
X118696534Y-100710500D01*
X118696535Y-100710500D01*
X118903466Y-100710500D01*
X118903467Y-100710499D01*
X119106420Y-100670130D01*
X119297598Y-100590941D01*
X119469655Y-100475977D01*
X119615977Y-100329655D01*
X119730941Y-100157598D01*
X119810130Y-99966420D01*
X119850500Y-99763465D01*
X119850500Y-99556535D01*
X119850499Y-99556530D01*
X121949500Y-99556530D01*
X121949500Y-99763469D01*
X121989868Y-99966412D01*
X121989870Y-99966420D01*
X122069058Y-100157596D01*
X122184024Y-100329657D01*
X122330342Y-100475975D01*
X122330345Y-100475977D01*
X122502402Y-100590941D01*
X122693580Y-100670130D01*
X122896530Y-100710499D01*
X122896534Y-100710500D01*
X122896535Y-100710500D01*
X123103466Y-100710500D01*
X123103467Y-100710499D01*
X123306420Y-100670130D01*
X123497598Y-100590941D01*
X123669655Y-100475977D01*
X123815977Y-100329655D01*
X123930941Y-100157598D01*
X124010130Y-99966420D01*
X124050500Y-99763465D01*
X124050500Y-99556535D01*
X124050499Y-99556530D01*
X125949500Y-99556530D01*
X125949500Y-99763469D01*
X125989868Y-99966412D01*
X125989870Y-99966420D01*
X126069058Y-100157596D01*
X126184024Y-100329657D01*
X126330342Y-100475975D01*
X126330345Y-100475977D01*
X126502402Y-100590941D01*
X126693580Y-100670130D01*
X126896530Y-100710499D01*
X126896534Y-100710500D01*
X126896535Y-100710500D01*
X127103466Y-100710500D01*
X127103467Y-100710499D01*
X127306420Y-100670130D01*
X127497598Y-100590941D01*
X127669655Y-100475977D01*
X127815977Y-100329655D01*
X127930941Y-100157598D01*
X128010130Y-99966420D01*
X128050500Y-99763465D01*
X128050500Y-99556535D01*
X128050499Y-99556530D01*
X130149500Y-99556530D01*
X130149500Y-99763469D01*
X130189868Y-99966412D01*
X130189870Y-99966420D01*
X130269058Y-100157596D01*
X130384024Y-100329657D01*
X130530342Y-100475975D01*
X130530345Y-100475977D01*
X130702402Y-100590941D01*
X130893580Y-100670130D01*
X131096530Y-100710499D01*
X131096534Y-100710500D01*
X131096535Y-100710500D01*
X131303466Y-100710500D01*
X131303467Y-100710499D01*
X131506420Y-100670130D01*
X131697598Y-100590941D01*
X131869655Y-100475977D01*
X132015977Y-100329655D01*
X132130941Y-100157598D01*
X132210130Y-99966420D01*
X132250500Y-99763465D01*
X132250500Y-99556535D01*
X132250499Y-99556530D01*
X134349500Y-99556530D01*
X134349500Y-99763469D01*
X134389868Y-99966412D01*
X134389870Y-99966420D01*
X134469058Y-100157596D01*
X134584024Y-100329657D01*
X134730342Y-100475975D01*
X134730345Y-100475977D01*
X134902402Y-100590941D01*
X135093580Y-100670130D01*
X135296530Y-100710499D01*
X135296534Y-100710500D01*
X135296535Y-100710500D01*
X135503466Y-100710500D01*
X135503467Y-100710499D01*
X135706420Y-100670130D01*
X135897598Y-100590941D01*
X136069655Y-100475977D01*
X136215977Y-100329655D01*
X136330941Y-100157598D01*
X136410130Y-99966420D01*
X136450500Y-99763465D01*
X136450500Y-99556535D01*
X136410130Y-99353580D01*
X136330941Y-99162402D01*
X136235345Y-99019332D01*
X136235345Y-99019330D01*
X136215980Y-98990349D01*
X136215974Y-98990341D01*
X136182163Y-98956530D01*
X142939500Y-98956530D01*
X142939500Y-99163469D01*
X142979868Y-99366412D01*
X142979870Y-99366420D01*
X143059058Y-99557596D01*
X143174024Y-99729657D01*
X143320342Y-99875975D01*
X143320345Y-99875977D01*
X143492402Y-99990941D01*
X143683580Y-100070130D01*
X143886530Y-100110499D01*
X143886534Y-100110500D01*
X143886535Y-100110500D01*
X144093466Y-100110500D01*
X144093467Y-100110499D01*
X144296420Y-100070130D01*
X144487598Y-99990941D01*
X144659655Y-99875977D01*
X144805977Y-99729655D01*
X144920941Y-99557598D01*
X145000130Y-99366420D01*
X145040500Y-99163465D01*
X145040500Y-98956535D01*
X145040499Y-98956530D01*
X146749500Y-98956530D01*
X146749500Y-99163469D01*
X146789868Y-99366412D01*
X146789870Y-99366420D01*
X146869058Y-99557596D01*
X146984024Y-99729657D01*
X147130342Y-99875975D01*
X147130345Y-99875977D01*
X147302402Y-99990941D01*
X147493580Y-100070130D01*
X147696530Y-100110499D01*
X147696534Y-100110500D01*
X147696535Y-100110500D01*
X147903466Y-100110500D01*
X147903467Y-100110499D01*
X148106420Y-100070130D01*
X148297598Y-99990941D01*
X148469655Y-99875977D01*
X148615977Y-99729655D01*
X148730941Y-99557598D01*
X148810130Y-99366420D01*
X148850500Y-99163465D01*
X148850500Y-98956535D01*
X148810130Y-98753580D01*
X148730941Y-98562402D01*
X148615977Y-98390345D01*
X148615975Y-98390342D01*
X148469657Y-98244024D01*
X148315970Y-98141335D01*
X148297598Y-98129059D01*
X148106420Y-98049870D01*
X148106412Y-98049868D01*
X147903469Y-98009500D01*
X147903465Y-98009500D01*
X147696535Y-98009500D01*
X147696530Y-98009500D01*
X147493587Y-98049868D01*
X147493579Y-98049870D01*
X147302403Y-98129058D01*
X147130342Y-98244024D01*
X146984024Y-98390342D01*
X146869058Y-98562403D01*
X146789870Y-98753579D01*
X146789868Y-98753587D01*
X146749500Y-98956530D01*
X145040499Y-98956530D01*
X145000130Y-98753580D01*
X144920941Y-98562402D01*
X144805977Y-98390345D01*
X144805975Y-98390342D01*
X144659657Y-98244024D01*
X144505970Y-98141335D01*
X144487598Y-98129059D01*
X144296420Y-98049870D01*
X144296412Y-98049868D01*
X144093469Y-98009500D01*
X144093465Y-98009500D01*
X143886535Y-98009500D01*
X143886530Y-98009500D01*
X143683587Y-98049868D01*
X143683579Y-98049870D01*
X143492403Y-98129058D01*
X143320342Y-98244024D01*
X143174024Y-98390342D01*
X143059058Y-98562403D01*
X142979870Y-98753579D01*
X142979868Y-98753587D01*
X142939500Y-98956530D01*
X136182163Y-98956530D01*
X136069657Y-98844024D01*
X135934307Y-98753587D01*
X135897598Y-98729059D01*
X135706420Y-98649870D01*
X135706412Y-98649868D01*
X135503469Y-98609500D01*
X135503465Y-98609500D01*
X135296535Y-98609500D01*
X135296530Y-98609500D01*
X135093587Y-98649868D01*
X135093579Y-98649870D01*
X134902403Y-98729058D01*
X134730342Y-98844024D01*
X134584024Y-98990342D01*
X134469058Y-99162403D01*
X134389870Y-99353579D01*
X134389868Y-99353587D01*
X134349500Y-99556530D01*
X132250499Y-99556530D01*
X132210130Y-99353580D01*
X132130941Y-99162402D01*
X132015977Y-98990345D01*
X132015975Y-98990342D01*
X131869657Y-98844024D01*
X131734307Y-98753587D01*
X131697598Y-98729059D01*
X131506420Y-98649870D01*
X131506412Y-98649868D01*
X131303469Y-98609500D01*
X131303465Y-98609500D01*
X131096535Y-98609500D01*
X131096530Y-98609500D01*
X130893587Y-98649868D01*
X130893579Y-98649870D01*
X130702403Y-98729058D01*
X130530342Y-98844024D01*
X130384024Y-98990342D01*
X130269058Y-99162403D01*
X130189870Y-99353579D01*
X130189868Y-99353587D01*
X130149500Y-99556530D01*
X128050499Y-99556530D01*
X128010130Y-99353580D01*
X127930941Y-99162402D01*
X127815977Y-98990345D01*
X127815975Y-98990342D01*
X127669657Y-98844024D01*
X127534307Y-98753587D01*
X127497598Y-98729059D01*
X127306420Y-98649870D01*
X127306412Y-98649868D01*
X127103469Y-98609500D01*
X127103465Y-98609500D01*
X126896535Y-98609500D01*
X126896530Y-98609500D01*
X126693587Y-98649868D01*
X126693579Y-98649870D01*
X126502403Y-98729058D01*
X126330342Y-98844024D01*
X126184024Y-98990342D01*
X126069058Y-99162403D01*
X125989870Y-99353579D01*
X125989868Y-99353587D01*
X125949500Y-99556530D01*
X124050499Y-99556530D01*
X124010130Y-99353580D01*
X123930941Y-99162402D01*
X123815977Y-98990345D01*
X123815975Y-98990342D01*
X123669657Y-98844024D01*
X123534307Y-98753587D01*
X123497598Y-98729059D01*
X123306420Y-98649870D01*
X123306412Y-98649868D01*
X123103469Y-98609500D01*
X123103465Y-98609500D01*
X122896535Y-98609500D01*
X122896530Y-98609500D01*
X122693587Y-98649868D01*
X122693579Y-98649870D01*
X122502403Y-98729058D01*
X122330342Y-98844024D01*
X122184024Y-98990342D01*
X122069058Y-99162403D01*
X121989870Y-99353579D01*
X121989868Y-99353587D01*
X121949500Y-99556530D01*
X119850499Y-99556530D01*
X119810130Y-99353580D01*
X119730941Y-99162402D01*
X119615977Y-98990345D01*
X119615975Y-98990342D01*
X119469657Y-98844024D01*
X119334307Y-98753587D01*
X119297598Y-98729059D01*
X119106420Y-98649870D01*
X119106412Y-98649868D01*
X118903469Y-98609500D01*
X118903465Y-98609500D01*
X118696535Y-98609500D01*
X118696530Y-98609500D01*
X118493587Y-98649868D01*
X118493579Y-98649870D01*
X118302403Y-98729058D01*
X118130342Y-98844024D01*
X117984024Y-98990342D01*
X117869058Y-99162403D01*
X117789870Y-99353579D01*
X117789868Y-99353587D01*
X117749500Y-99556530D01*
X115430499Y-99556530D01*
X115390130Y-99353580D01*
X115310941Y-99162402D01*
X115195977Y-98990345D01*
X115195975Y-98990342D01*
X115049657Y-98844024D01*
X114914307Y-98753587D01*
X114877598Y-98729059D01*
X114686420Y-98649870D01*
X114686412Y-98649868D01*
X114483469Y-98609500D01*
X114483465Y-98609500D01*
X114276535Y-98609500D01*
X114276530Y-98609500D01*
X114073587Y-98649868D01*
X114073579Y-98649870D01*
X113882403Y-98729058D01*
X113710342Y-98844024D01*
X113564024Y-98990342D01*
X113449058Y-99162403D01*
X113369870Y-99353579D01*
X113369868Y-99353587D01*
X113329500Y-99556530D01*
X107600500Y-99556530D01*
X107600500Y-58524500D01*
X107620185Y-58457461D01*
X107672989Y-58411706D01*
X107724500Y-58400500D01*
X112470500Y-58400500D01*
X112537539Y-58420185D01*
G37*
%TD.AperFunction*%
%TD*%
M02*
