M48
; DRILL file {KiCad 9.0.4} date 2025-11-19T15:19:07+0100
; FORMAT={-:-/ absolute / inch / decimal}
; #@! TF.CreationDate,2025-11-19T15:19:07+01:00
; #@! TF.GenerationSoftware,Kicad,Pcbnew,9.0.4
; #@! TF.FileFunction,Plated,1,4,PTH
FMAT,2
INCH
; #@! TA.AperFunction,Plated,PTH,ComponentDrill
T1C0.0079
; #@! TA.AperFunction,Plated,PTH,ViaDrill
T2C0.0217
; #@! TA.AperFunction,Plated,PTH,ComponentDrill
T3C0.0394
%
G90
G05
T1
X5.565Y-2.6232
X5.565Y-2.6783
X5.5925Y-2.5957
X5.5925Y-2.6508
X5.5925Y-2.7059
X5.6191Y-2.6232
X5.6191Y-2.6783
X5.6476Y-2.5957
X5.6476Y-2.6508
X5.6476Y-2.7059
X5.6752Y-2.6232
X5.6752Y-2.6783
T2
X4.4567Y-3.5669
X4.5984Y-2.4331
X4.6362Y-3.5689
X4.7146Y-2.435
X4.7244Y-2.3465
X4.7638Y-2.3465
X4.7937Y-3.5689
X4.811Y-2.4567
X4.8189Y-3.3071
X4.937Y-2.5118
X4.9512Y-3.5768
X5.0866Y-3.378
X5.1024Y-3.1654
X5.1102Y-2.4567
X5.1165Y-3.5768
X5.1575Y-2.6535
X5.189Y-2.4567
X5.2756Y-2.3465
X5.2756Y-2.6457
X5.2756Y-2.7008
X5.2756Y-2.748
X5.2756Y-2.7953
X5.2756Y-2.8504
X5.2756Y-2.8976
X5.2819Y-3.5689
X5.3307Y-3.1181
X5.4567Y-3.1024
X6.0236Y-3.0551
X6.0787Y-2.4488
X6.0787Y-2.7008
X6.0787Y-2.8031
X6.0787Y-2.9528
X6.0866Y-2.3465
X6.0866Y-2.4961
X6.0945Y-2.5433
X6.1496Y-2.6063
T3
X4.3937Y-2.5984
X4.3937Y-2.6984
X4.5031Y-3.9236
X4.5031Y-4.0236
X4.5031Y-4.1236
X4.5059Y-2.9213
X4.6059Y-2.9213
X4.6772Y-3.9236
X4.6772Y-4.0236
X4.6772Y-4.1236
X4.7059Y-2.9213
X4.8059Y-2.9213
X4.8425Y-3.9236
X4.8425Y-4.0236
X4.8425Y-4.1236
X4.9059Y-2.9213
X5.0Y-3.9236
X5.0Y-4.0236
X5.0Y-4.1236
X5.0059Y-2.9213
X5.1654Y-3.9236
X5.1654Y-4.0236
X5.1654Y-4.1236
X5.3307Y-3.9236
X5.3307Y-4.0236
X5.3307Y-4.1236
X5.3567Y-3.2283
X5.3567Y-3.3283
X5.4567Y-3.2283
X5.4567Y-3.3283
X5.5268Y-3.6063
X5.5567Y-3.2283
X5.5567Y-3.3283
X5.6268Y-3.6063
X5.6567Y-3.2283
X5.6567Y-3.3283
X5.6689Y-3.9
X5.6689Y-4.0
X5.6689Y-4.1
X5.7268Y-3.6063
X5.7567Y-3.2283
X5.7567Y-3.3283
X5.8189Y-3.9
X5.8189Y-4.0
X5.8189Y-4.1
X5.8268Y-3.6063
X6.0945Y-3.585
X6.0945Y-3.685
X6.0945Y-3.785
X6.0945Y-3.885
M30
